Acathist-Regular.ufo
<glyph name="exclam" format="2">
  <advance width="222"/>
  <unicode hex="0021"/>
  <outline>
    <contour>
      <point x="52" y="672" type="curve" smooth="yes"/>
      <point x="52" y="679.803"/>
      <point x="57.5516" y="690"/>
      <point x="66" y="690" type="curve" smooth="yes"/>
      <point x="97.1659" y="687.507"/>
      <point x="130.181" y="687.84"/>
      <point x="160" y="685" type="curve" smooth="yes"/>
      <point x="166.23" y="683.754"/>
      <point x="170" y="676.151"/>
      <point x="170" y="669" type="curve" smooth="yes"/>
      <point x="153.165" y="539.929"/>
      <point x="138.103" y="395.303"/>
      <point x="125" y="261" type="curve" smooth="yes"/>
      <point x="122.333" y="233.667"/>
      <point x="120.333" y="209.667"/>
      <point x="119" y="189" type="curve"/>
      <point x="105" y="189" type="line"/>
      <point x="93.3889" y="309.756"/>
      <point x="78.7047" y="449.094"/>
      <point x="65" y="569.5" type="curve" smooth="yes"/>
      <point x="60.3333" y="610.5"/>
      <point x="56" y="644.667"/>
    </contour>
    <contour>
      <point x="52" y="58" type="curve" smooth="yes"/>
      <point x="52" y="89.7395"/>
      <point x="78.2614" y="116"/>
      <point x="110" y="116" type="curve" smooth="yes"/>
      <point x="141.739" y="116"/>
      <point x="168" y="89.7386"/>
      <point x="168" y="58" type="curve" smooth="yes"/>
      <point x="168" y="26.2605"/>
      <point x="141.739" y="0"/>
      <point x="110" y="0" type="curve" smooth="yes"/>
      <point x="78.2605" y="0"/>
      <point x="52" y="26.2614"/>
    </contour>
  </outline>
</glyph>
<glyph name="quotedbl" format="2">
  <advance width="393"/>
  <unicode hex="0022"/>
  <outline>
    <contour>
      <point x="170" y="704" type="curve" smooth="yes"/>
      <point x="170" y="643.027"/>
      <point x="145.194" y="597.248"/>
      <point x="112.5" y="564" type="curve" smooth="yes"/>
      <point x="92.8333" y="544"/>
      <point x="73.6667" y="528.667"/>
      <point x="55" y="518" type="curve" smooth="yes"/>
      <point x="46.4199" y="513.71"/>
      <point x="45.3368" y="520.539"/>
      <point x="50" y="528" type="curve" smooth="yes"/>
      <point x="68" y="550.667"/>
      <point x="83.3333" y="573.5"/>
      <point x="96" y="596.5" type="curve" smooth="yes"/>
      <point x="108.667" y="619.5"/>
      <point x="115" y="641.333"/>
      <point x="115" y="662" type="curve" smooth="yes"/>
      <point x="115" y="681.333"/>
      <point x="109" y="697.333"/>
      <point x="97" y="710" type="curve" smooth="yes"/>
      <point x="90.8059" y="717.964"/>
      <point x="81.698" y="720.964"/>
      <point x="71.8585" y="720.964" type="curve" smooth="yes"/>
      <point x="56.141" y="720.964"/>
      <point x="38.5567" y="713.308"/>
      <point x="28" y="706" type="curve" smooth="yes"/>
      <point x="19.3333" y="700"/>
      <point x="12" y="692.667"/>
      <point x="6" y="684" type="curve" smooth="yes"/>
      <point x="4" y="680.667"/>
      <point x="1.33333" y="679.667"/>
      <point x="-2" y="681" type="curve" smooth="yes"/>
      <point x="-3.41581" y="681.566"/>
      <point x="-4.03224" y="682.921"/>
      <point x="-4.03224" y="684.851" type="curve" smooth="yes"/>
      <point x="-4.03224" y="696.868"/>
      <point x="19.8743" y="731.166"/>
      <point x="23.5" y="736" type="curve" smooth="yes"/>
      <point x="42.3038" y="761.072"/>
      <point x="65.134" y="784.283"/>
      <point x="95" y="794.5" type="curve" smooth="yes"/>
      <point x="102.04" y="796.908"/>
      <point x="108.518" y="798.02"/>
      <point x="114.462" y="798.02" type="curve" smooth="yes"/>
      <point x="154.142" y="798.02"/>
      <point x="170" y="748.45"/>
    </contour>
    <contour>
      <point x="404" y="706" type="curve" smooth="yes"/>
      <point x="404" y="616.903"/>
      <point x="346.72" y="551.612"/>
      <point x="290" y="518" type="curve" smooth="yes"/>
      <point x="281.126" y="513.563"/>
      <point x="279.277" y="520.37"/>
      <point x="285" y="528" type="curve" smooth="yes"/>
      <point x="302.333" y="550.667"/>
      <point x="317.333" y="573.667"/>
      <point x="330" y="597" type="curve" smooth="yes"/>
      <point x="342.667" y="620.333"/>
      <point x="349" y="642.667"/>
      <point x="349" y="664" type="curve" smooth="yes"/>
      <point x="349" y="687.685"/>
      <point x="338.609" y="717.424"/>
      <point x="314" y="720.5" type="curve" smooth="yes"/>
      <point x="311.071" y="720.866"/>
      <point x="308.183" y="721.041"/>
      <point x="305.343" y="721.041" type="curve" smooth="yes"/>
      <point x="276.026" y="721.041"/>
      <point x="251.767" y="702.441"/>
      <point x="239" y="684" type="curve" smooth="yes"/>
      <point x="234.724" y="676.874"/>
      <point x="227.509" y="681.283"/>
      <point x="230" y="690" type="curve" smooth="yes"/>
      <point x="249.705" y="732.992"/>
      <point x="284.462" y="778.676"/>
      <point x="329.5" y="794.5" type="curve" smooth="yes"/>
      <point x="336.247" y="796.87"/>
      <point x="342.433" y="797.931"/>
      <point x="348.093" y="797.931" type="curve" smooth="yes"/>
      <point x="371.134" y="797.931"/>
      <point x="385.47" y="780.355"/>
      <point x="393.5" y="762" type="curve" smooth="yes"/>
      <point x="400.5" y="746"/>
      <point x="404" y="727.333"/>
    </contour>
  </outline>
</glyph>
<glyph name="quotesingle" format="2">
  <advance width="254"/>
  <unicode hex="0027"/>
  <outline>
    <contour>
      <point x="177" y="767" type="curve" smooth="yes"/>
      <point x="192.209" y="767"/>
      <point x="204" y="761.556"/>
      <point x="204" y="750" type="curve" smooth="yes"/>
      <point x="204" y="740.397"/>
      <point x="202.865" y="738.081"/>
      <point x="198" y="732" type="curve" smooth="yes"/>
      <point x="48" y="548" type="line" smooth="yes"/>
      <point x="44" y="543.333"/>
      <point x="39" y="541"/>
      <point x="33" y="541" type="curve" smooth="yes"/>
      <point x="17" y="541" type="line" smooth="yes"/>
      <point x="5.5137" y="541"/>
      <point x="-2.58267" y="544.513"/>
      <point x="6" y="558" type="curve" smooth="yes"/>
      <point x="105" y="724" type="line"/>
      <point x="110.824" y="731.28"/>
      <point x="112.259" y="735.259"/>
      <point x="119" y="742" type="curve" smooth="yes"/>
      <point x="137.936" y="759.752"/>
      <point x="145.158" y="767"/>
    </contour>
  </outline>
</glyph>
<glyph name="parenleft" format="2">
  <advance width="306"/>
  <unicode hex="0028"/>
  <outline>
    <contour>
      <point x="340" y="-405" type="line"/>
      <point x="276.081" y="-395.412"/>
      <point x="232.664" y="-346.04"/>
      <point x="200" y="-296.5" type="curve" smooth="yes"/>
      <point x="137.623" y="-201.895"/>
      <point x="98.8637" y="-70.9402"/>
      <point x="81" y="68" type="curve" smooth="yes"/>
      <point x="75" y="114.667"/>
      <point x="72" y="160.667"/>
      <point x="72" y="206" type="curve" smooth="yes"/>
      <point x="72" y="356.66"/>
      <point x="101.363" y="494.444"/>
      <point x="144.5" y="605.5" type="curve" smooth="yes"/>
      <point x="173.218" y="679.433"/>
      <point x="211.621" y="746.467"/>
      <point x="263.5" y="792.5" type="curve" smooth="yes"/>
      <point x="287.167" y="813.5"/>
      <point x="312.667" y="827"/>
      <point x="340" y="833" type="curve"/>
      <point x="340" y="811" type="line"/>
      <point x="284.658" y="793.524"/>
      <point x="252.484" y="743.257"/>
      <point x="231.5" y="687.5" type="curve" smooth="yes"/>
      <point x="183.491" y="559.932"/>
      <point x="182" y="380.234"/>
      <point x="182" y="206" type="curve" smooth="yes"/>
      <point x="182" y="36.1104"/>
      <point x="191.19" y="-138.643"/>
      <point x="238.5" y="-263" type="curve" smooth="yes"/>
      <point x="258.689" y="-316.068"/>
      <point x="288.61" y="-366.374"/>
      <point x="340" y="-383" type="curve"/>
    </contour>
  </outline>
</glyph>
<glyph name="parenright" format="2">
  <advance width="306"/>
  <unicode hex="0029"/>
  <outline>
    <contour>
      <point x="234" y="206" type="curve" smooth="yes"/>
      <point x="234" y="55.0198"/>
      <point x="203.655" y="-82.5827"/>
      <point x="159.5" y="-192.5" type="curve" smooth="yes"/>
      <point x="131.138" y="-263.103"/>
      <point x="92.7241" y="-328.382"/>
      <point x="41" y="-370.5" type="curve" smooth="yes"/>
      <point x="17.6667" y="-389.5"/>
      <point x="-7.33333" y="-401"/>
      <point x="-34" y="-405" type="curve"/>
      <point x="-34" y="-383" type="line"/>
      <point x="17.3456" y="-366.388"/>
      <point x="47.3315" y="-316.014"/>
      <point x="67.5" y="-263" type="curve" smooth="yes"/>
      <point x="114.942" y="-138.294"/>
      <point x="124" y="36.0339"/>
      <point x="124" y="206" type="curve" smooth="yes"/>
      <point x="124" y="379.911"/>
      <point x="122.25" y="560.622"/>
      <point x="74.5" y="687.5" type="curve" smooth="yes"/>
      <point x="53.5016" y="743.296"/>
      <point x="21.3755" y="793.513"/>
      <point x="-34" y="811" type="curve"/>
      <point x="-34" y="833" type="line"/>
      <point x="30.2082" y="818.906"/>
      <point x="74.6083" y="766.37"/>
      <point x="108" y="713.5" type="curve" smooth="yes"/>
      <point x="169.586" y="615.988"/>
      <point x="208.346" y="483.268"/>
      <point x="225.5" y="342" type="curve" smooth="yes"/>
      <point x="231.167" y="295.333"/>
      <point x="234" y="250"/>
    </contour>
  </outline>
</glyph>
<glyph name="comma" format="2">
  <advance width="255"/>
  <unicode hex="002C"/>
  <outline>
    <contour>
      <point x="91" y="28" type="curve" smooth="yes"/>
      <point x="67.0668" y="28"/>
      <point x="52.1961" y="9.19609"/>
      <point x="40" y="-3" type="curve"/>
      <point x="33.3894" y="-0.355743"/>
      <point x="27" y="4.6575"/>
      <point x="27" y="14" type="curve"/>
      <point x="51.92" y="44.26"/>
      <point x="77.5436" y="72.6103"/>
      <point x="114.5" y="93" type="curve" smooth="yes"/>
      <point x="124.167" y="98.3333"/>
      <point x="134.333" y="101"/>
      <point x="145" y="101" type="curve" smooth="yes"/>
      <point x="170.09" y="95.4244"/>
      <point x="187.765" y="67.0871"/>
      <point x="197" y="44" type="curve" smooth="yes"/>
      <point x="201" y="34"/>
      <point x="203" y="24"/>
      <point x="203" y="14" type="curve" smooth="yes"/>
      <point x="203" y="-46.1603"/>
      <point x="174.948" y="-88.7614"/>
      <point x="147" y="-124" type="curve" smooth="yes"/>
      <point x="129" y="-147.333"/>
      <point x="110" y="-164.667"/>
      <point x="90" y="-176" type="curve"/>
      <point x="84" y="-172"/>
      <point x="79.6667" y="-166.667"/>
      <point x="77" y="-160" type="curve"/>
      <point x="106.505" y="-135.034"/>
      <point x="131" y="-101.711"/>
      <point x="131" y="-48" type="curve" smooth="yes"/>
      <point x="131" y="-21.1152"/>
      <point x="121.844" y="5.76632"/>
      <point x="108.5" y="20" type="curve" smooth="yes"/>
      <point x="103.5" y="25.3333"/>
      <point x="97.6667" y="28"/>
    </contour>
  </outline>
</glyph>
<glyph name="period" format="2">
  <advance width="216"/>
  <unicode hex="002E"/>
  <outline>
    <contour>
      <point x="37" y="62" type="curve" smooth="yes"/>
      <point x="37" y="97.7134"/>
      <point x="66.2876" y="127"/>
      <point x="102" y="127" type="curve" smooth="yes"/>
      <point x="137.713" y="127"/>
      <point x="167" y="97.7124"/>
      <point x="167" y="62" type="curve" smooth="yes"/>
      <point x="167" y="26.7856"/>
      <point x="136.869" y="-2"/>
      <point x="102" y="-2" type="curve" smooth="yes"/>
      <point x="67.1327" y="-2"/>
      <point x="37" y="26.789"/>
    </contour>
  </outline>
</glyph>
<glyph name="slash" format="2">
  <advance width="405"/>
  <unicode hex="002F"/>
  <outline>
    <contour>
      <point x="6" y="-353" type="line"/>
      <point x="-53" y="-353" type="line"/>
      <point x="362" y="939" type="line"/>
      <point x="421" y="939" type="line"/>
    </contour>
  </outline>
</glyph>
<glyph name="colon" format="2">
  <advance width="202"/>
  <unicode hex="003A"/>
  <outline>
    <contour>
      <point x="102" y="261" type="line" smooth="yes"/>
      <point x="99.3333" y="258.333"/>
      <point x="96.6667" y="258.333"/>
      <point x="94" y="261" type="curve" smooth="yes"/>
      <point x="33" y="333" type="line" smooth="yes"/>
      <point x="31" y="336.333"/>
      <point x="31" y="339"/>
      <point x="33" y="341" type="curve" smooth="yes"/>
      <point x="94" y="413" type="line"/>
      <point x="97.3333" y="415"/>
      <point x="100" y="415"/>
      <point x="102" y="413" type="curve" smooth="yes"/>
      <point x="164" y="342" type="line" smooth="yes"/>
      <point x="166.667" y="339.333"/>
      <point x="166.667" y="336.667"/>
      <point x="164" y="334" type="curve" smooth="yes"/>
    </contour>
    <contour>
      <point x="102" y="3" type="line" smooth="yes"/>
      <point x="99.3333" y="0.333333"/>
      <point x="96.6667" y="0.333333"/>
      <point x="94" y="3" type="curve" smooth="yes"/>
      <point x="33" y="75" type="line" smooth="yes"/>
      <point x="31" y="78.3333"/>
      <point x="31" y="81"/>
      <point x="33" y="83" type="curve" smooth="yes"/>
      <point x="94" y="155" type="line"/>
      <point x="97.3333" y="157"/>
      <point x="100" y="157"/>
      <point x="102" y="155" type="curve" smooth="yes"/>
      <point x="164" y="84" type="line" smooth="yes"/>
      <point x="166.667" y="81.3333"/>
      <point x="166.667" y="78.6667"/>
      <point x="164" y="76" type="curve" smooth="yes"/>
    </contour>
  </outline>
</glyph>
<glyph name="semicolon" format="2">
  <advance width="263"/>
  <unicode hex="003B"/>
  <outline>
    <contour>
      <point x="62" y="272" type="curve" smooth="yes"/>
      <point x="62" y="307.713"/>
      <point x="91.2876" y="337"/>
      <point x="127" y="337" type="curve" smooth="yes"/>
      <point x="162.713" y="337"/>
      <point x="192" y="307.712"/>
      <point x="192" y="272" type="curve" smooth="yes"/>
      <point x="192" y="236.786"/>
      <point x="161.869" y="208"/>
      <point x="127" y="208" type="curve" smooth="yes"/>
      <point x="92.1327" y="208"/>
      <point x="62" y="236.789"/>
    </contour>
    <contour>
      <point x="100" y="43" type="curve" smooth="yes"/>
      <point x="76.0668" y="43"/>
      <point x="61.1961" y="24.1961"/>
      <point x="49" y="12" type="curve"/>
      <point x="42.3894" y="14.6443"/>
      <point x="36" y="19.6575"/>
      <point x="36" y="29" type="curve"/>
      <point x="60.92" y="59.26"/>
      <point x="86.5436" y="87.6103"/>
      <point x="123.5" y="108" type="curve" smooth="yes"/>
      <point x="133.167" y="113.333"/>
      <point x="143.333" y="116"/>
      <point x="154" y="116" type="curve" smooth="yes"/>
      <point x="179.09" y="110.424"/>
      <point x="196.765" y="82.0871"/>
      <point x="206" y="59" type="curve" smooth="yes"/>
      <point x="210" y="49"/>
      <point x="212" y="39"/>
      <point x="212" y="29" type="curve" smooth="yes"/>
      <point x="212" y="-31.1603"/>
      <point x="183.948" y="-73.7614"/>
      <point x="156" y="-109" type="curve" smooth="yes"/>
      <point x="138" y="-132.333"/>
      <point x="119" y="-149.667"/>
      <point x="99" y="-161" type="curve"/>
      <point x="93" y="-157"/>
      <point x="88.6667" y="-151.667"/>
      <point x="86" y="-145" type="curve"/>
      <point x="115.505" y="-120.034"/>
      <point x="140" y="-86.7112"/>
      <point x="140" y="-33" type="curve" smooth="yes"/>
      <point x="140" y="-6.11517"/>
      <point x="130.844" y="20.7663"/>
      <point x="117.5" y="35" type="curve" smooth="yes"/>
      <point x="112.5" y="40.3333"/>
      <point x="106.667" y="43"/>
    </contour>
  </outline>
</glyph>
<glyph name="bracketleft" format="2">
  <advance width="311"/>
  <unicode hex="005B"/>
  <outline>
    <contour>
      <point x="311" y="-362" type="line"/>
      <point x="60" y="-362" type="line"/>
      <point x="60" y="832" type="line"/>
      <point x="311" y="832" type="line"/>
      <point x="311" y="814" type="line"/>
      <point x="160" y="814" type="line"/>
      <point x="160" y="-344" type="line"/>
      <point x="311" y="-344" type="line"/>
    </contour>
  </outline>
</glyph>
<glyph name="bracketright" format="2">
  <advance width="311"/>
  <unicode hex="005D"/>
  <outline>
    <contour>
      <point x="251" y="-362" type="line"/>
      <point x="0" y="-362" type="line"/>
      <point x="0" y="-344" type="line"/>
      <point x="149" y="-344" type="line"/>
      <point x="149" y="814" type="line"/>
      <point x="0" y="814" type="line"/>
      <point x="0" y="832" type="line"/>
      <point x="251" y="832" type="line"/>
    </contour>
  </outline>
</glyph>
<glyph name="uni007F" format="2">
  <advance width="366"/>
  <unicode hex="007F"/>
  <outline>
    <contour>
      <point x="0" y="663" type="line"/>
      <point x="366" y="663" type="line"/>
      <point x="366" y="0" type="line"/>
      <point x="0" y="0" type="line"/>
    </contour>
    <contour>
      <point x="24" y="645" type="line"/>
      <point x="182" y="344" type="line"/>
      <point x="342" y="645" type="line"/>
    </contour>
    <contour>
      <point x="189" y="331" type="line"/>
      <point x="348" y="31" type="line"/>
      <point x="348" y="632" type="line"/>
    </contour>
    <contour>
      <point x="342" y="18" type="line"/>
      <point x="182" y="319" type="line"/>
      <point x="24" y="18" type="line"/>
    </contour>
    <contour>
      <point x="18" y="632" type="line"/>
      <point x="18" y="31" type="line"/>
      <point x="176" y="331" type="line"/>
    </contour>
  </outline>
</glyph>
<glyph name="logicalnot" format="2">
  <advance width="399"/>
  <unicode hex="00AC"/>
  <outline>
    <contour>
      <point x="364" y="277" type="line"/>
      <point x="364" y="91" type="line"/>
      <point x="310" y="91" type="line"/>
      <point x="310" y="223" type="line"/>
      <point x="36" y="223" type="line"/>
      <point x="36" y="277" type="line"/>
    </contour>
  </outline>
</glyph>
<glyph name="paragraph" format="2">
  <advance width="501"/>
  <unicode hex="00B6"/>
  <outline>
    <contour>
      <point x="218" y="-91" type="line"/>
      <point x="218" y="349" type="line"/>
      <point x="153.81" y="349"/>
      <point x="110.762" y="384.144"/>
      <point x="90" y="428.5" type="curve" smooth="yes"/>
      <point x="82.6667" y="444.167"/>
      <point x="78.6667" y="460.667"/>
      <point x="78" y="478" type="curve" smooth="yes"/>
      <point x="78" y="502" type="line"/>
      <point x="80.4955" y="559.397"/>
      <point x="119.387" y="601.477"/>
      <point x="162.5" y="621" type="curve" smooth="yes"/>
      <point x="180.167" y="629"/>
      <point x="198.667" y="633"/>
      <point x="218" y="633" type="curve" smooth="yes"/>
      <point x="274" y="633" type="line"/>
      <point x="274" y="-91" type="line"/>
    </contour>
    <contour>
      <point x="331" y="-91" type="line"/>
      <point x="331" y="633" type="line"/>
      <point x="387" y="633" type="line"/>
      <point x="387" y="-91" type="line"/>
    </contour>
  </outline>
</glyph>
<glyph name="periodcentered" format="2">
  <advance width="159"/>
  <unicode hex="00B7"/>
  <outline>
    <contour>
      <point x="81" y="170" type="curve" smooth="yes"/>
      <point x="56.6812" y="170"/>
      <point x="37" y="190.387"/>
      <point x="37" y="215" type="curve" smooth="yes"/>
      <point x="37" y="239.616"/>
      <point x="56.6794" y="260"/>
      <point x="81" y="260" type="curve" smooth="yes"/>
      <point x="105.319" y="260"/>
      <point x="125" y="239.613"/>
      <point x="125" y="215" type="curve" smooth="yes"/>
      <point x="125" y="190.384"/>
      <point x="105.321" y="170"/>
    </contour>
  </outline>
</glyph>
<glyph name="gravecomb" format="2">
  <advance width="1"/>
  <unicode hex="0300"/>
  <anchor x="-166" y="557" name="_Stacking"/>
  <anchor x="-165" y="726" name="Stacking"/>
  <anchor x="-166" y="557" name="_Diacritic"/>
  <outline>
    <contour>
      <point x="-79" y="563" type="curve" smooth="yes"/>
      <point x="-79" y="557.667"/>
      <point x="-81.6667" y="555"/>
      <point x="-87" y="555" type="curve"/>
      <point x="-310" y="642" type="line"/>
      <point x="-313.377" y="654.381"/>
      <point x="-315" y="670.492"/>
      <point x="-315" y="685" type="curve" smooth="yes"/>
      <point x="-315" y="689.667"/>
      <point x="-312.667" y="692"/>
      <point x="-308" y="692" type="curve"/>
      <point x="-82" y="604" type="line"/>
      <point x="-79.7821" y="591.801"/>
      <point x="-79" y="576.199"/>
    </contour>
  </outline>
</glyph>
<glyph name="acutecomb" format="2">
  <advance width="1"/>
  <unicode hex="0301"/>
  <anchor x="-189" y="857" name="Stacking"/>
  <anchor x="-190" y="542" name="_Stacking"/>
  <anchor x="-190" y="542" name="_Diacritic"/>
  <outline>
    <contour>
      <point x="-111" y="787" type="line"/>
      <point x="-103.895" y="797.657"/>
      <point x="-89.8005" y="800.328"/>
      <point x="-75" y="803.5" type="curve" smooth="yes"/>
      <point x="-61" y="806.5" type="line" smooth="yes"/>
      <point x="-56.3333" y="807.5"/>
      <point x="-52.6667" y="808"/>
      <point x="-50" y="808" type="curve" smooth="yes"/>
      <point x="-44.6667" y="808"/>
      <point x="-42" y="805.333"/>
      <point x="-42" y="800" type="curve"/>
      <point x="-166" y="549" type="line" smooth="yes"/>
      <point x="-168" y="545.667"/>
      <point x="-171.333" y="544"/>
      <point x="-176" y="544" type="curve" smooth="yes"/>
      <point x="-187.772" y="545.177"/>
      <point x="-204.2" y="546.198"/>
      <point x="-207" y="556" type="curve"/>
    </contour>
  </outline>
</glyph>
<glyph name="uni0306" format="2">
  <advance width="0"/>
  <unicode hex="0306"/>
  <anchor x="-168" y="799" name="Stacking"/>
  <anchor x="-169" y="596" name="_Stacking"/>
  <anchor x="-169" y="596" name="_Diacritic"/>
  <outline>
    <contour>
      <point x="-130" y="758" type="curve"/>
      <point x="-111.585" y="743.268"/>
      <point x="-93" y="718.218"/>
      <point x="-93" y="686" type="curve" smooth="yes"/>
      <point x="-93" y="645.941"/>
      <point x="-113.331" y="618.023"/>
      <point x="-140.5" y="604" type="curve" smooth="yes"/>
      <point x="-150.833" y="598.667"/>
      <point x="-162.667" y="596"/>
      <point x="-176" y="596" type="curve" smooth="yes"/>
      <point x="-214.458" y="596"/>
      <point x="-242" y="632.778"/>
      <point x="-242" y="671" type="curve" smooth="yes"/>
      <point x="-242" y="702.263"/>
      <point x="-226.45" y="728.083"/>
      <point x="-211" y="744.5" type="curve" smooth="yes"/>
      <point x="-205.667" y="750.167"/>
      <point x="-200.333" y="754"/>
      <point x="-195" y="756" type="curve"/>
      <point x="-190.333" y="754"/>
      <point x="-186.333" y="750.667"/>
      <point x="-183" y="746" type="curve"/>
      <point x="-189.669" y="729.992"/>
      <point x="-201" y="712.725"/>
      <point x="-201" y="690" type="curve" smooth="yes"/>
      <point x="-201" y="667.542"/>
      <point x="-188.64" y="648"/>
      <point x="-166" y="648" type="curve" smooth="yes"/>
      <point x="-146.496" y="648"/>
      <point x="-132" y="666.99"/>
      <point x="-132" y="687" type="curve" smooth="yes"/>
      <point x="-132" y="712.094"/>
      <point x="-138.976" y="729.241"/>
      <point x="-148" y="746" type="curve"/>
      <point x="-144" y="752"/>
      <point x="-138" y="756"/>
    </contour>
  </outline>
</glyph>
<glyph name="uni0307" format="2">
  <advance width="0"/>
  <unicode hex="0307"/>
  <anchor x="-264" y="794" name="Stacking"/>
  <anchor x="-265" y="597" name="_Stacking"/>
  <anchor x="-263" y="596" name="_Diacritic"/>
  <outline>
    <contour>
      <point x="-219" y="605" type="curve"/>
      <point x="-232.669" y="601.272"/>
      <point x="-250.092" y="600"/>
      <point x="-267" y="600" type="curve" smooth="yes"/>
      <point x="-278.333" y="600"/>
      <point x="-290.667" y="601.667"/>
      <point x="-304" y="605" type="curve"/>
      <point x="-312.682" y="625.26"/>
      <point x="-316.007" y="659.74"/>
      <point x="-318.5" y="685.5" type="curve" smooth="yes"/>
      <point x="-319.5" y="695.833"/>
      <point x="-320" y="704.667"/>
      <point x="-320" y="712" type="curve"/>
      <point x="-304.992" y="714.501"/>
      <point x="-287.985" y="715"/>
      <point x="-271" y="715" type="curve" smooth="yes"/>
      <point x="-258.169" y="715"/>
      <point x="-246.129" y="713.392"/>
      <point x="-235" y="712" type="curve"/>
      <point x="-225.318" y="682.955"/>
      <point x="-219" y="642.13"/>
    </contour>
  </outline>
</glyph>
<glyph name="uni0308" format="2">
  <advance width="0"/>
  <unicode hex="0308"/>
  <anchor x="-193" y="790" name="Stacking"/>
  <anchor x="-194" y="598" name="_Stacking"/>
  <anchor x="-194" y="598" name="_Diacritic"/>
  <outline>
    <contour>
      <point x="-82" y="611" type="curve"/>
      <point x="-95.6694" y="607.272"/>
      <point x="-113.092" y="606"/>
      <point x="-130" y="606" type="curve" smooth="yes"/>
      <point x="-141.333" y="606"/>
      <point x="-153.667" y="607.667"/>
      <point x="-167" y="611" type="curve"/>
      <point x="-175.682" y="631.26"/>
      <point x="-179.007" y="665.74"/>
      <point x="-181.5" y="691.5" type="curve" smooth="yes"/>
      <point x="-182.5" y="701.833"/>
      <point x="-183" y="710.667"/>
      <point x="-183" y="718" type="curve"/>
      <point x="-167.992" y="720.501"/>
      <point x="-150.985" y="721"/>
      <point x="-134" y="721" type="curve" smooth="yes"/>
      <point x="-121.169" y="721"/>
      <point x="-109.129" y="719.392"/>
      <point x="-98" y="718" type="curve"/>
      <point x="-88.3185" y="688.955"/>
      <point x="-82" y="648.13"/>
    </contour>
    <contour>
      <point x="-219" y="605" type="curve"/>
      <point x="-232.669" y="601.272"/>
      <point x="-250.092" y="600"/>
      <point x="-267" y="600" type="curve" smooth="yes"/>
      <point x="-278.333" y="600"/>
      <point x="-290.667" y="601.667"/>
      <point x="-304" y="605" type="curve"/>
      <point x="-312.682" y="625.26"/>
      <point x="-316.007" y="659.74"/>
      <point x="-318.5" y="685.5" type="curve" smooth="yes"/>
      <point x="-319.5" y="695.833"/>
      <point x="-320" y="704.667"/>
      <point x="-320" y="712" type="curve"/>
      <point x="-304.992" y="714.501"/>
      <point x="-287.985" y="715"/>
      <point x="-271" y="715" type="curve" smooth="yes"/>
      <point x="-258.169" y="715"/>
      <point x="-246.129" y="713.392"/>
      <point x="-235" y="712" type="curve"/>
      <point x="-225.318" y="682.955"/>
      <point x="-219" y="642.13"/>
    </contour>
  </outline>
</glyph>
<glyph name="uni030F" format="2">
  <advance width="0"/>
  <unicode hex="030F"/>
  <anchor x="-202" y="757" name="Stacking"/>
  <anchor x="-203" y="557" name="_Stacking"/>
  <anchor x="-204" y="555" name="_Diacritic"/>
  <outline>
    <contour>
      <point x="-226" y="684" type="line"/>
      <point x="-226" y="687.385"/>
      <point x="-225.787" y="693"/>
      <point x="-222" y="693" type="curve" smooth="yes"/>
      <point x="-148" y="693" type="line"/>
      <point x="-74" y="564" type="line"/>
      <point x="-74" y="560.615"/>
      <point x="-74.2134" y="555"/>
      <point x="-78" y="555" type="curve" smooth="yes"/>
      <point x="-152" y="555" type="line"/>
    </contour>
    <contour>
      <point x="-398" y="684" type="line"/>
      <point x="-398" y="687.385"/>
      <point x="-397.787" y="693"/>
      <point x="-394" y="693" type="curve" smooth="yes"/>
      <point x="-320" y="693" type="line"/>
      <point x="-246" y="564" type="line"/>
      <point x="-246" y="560.615"/>
      <point x="-246.213" y="555"/>
      <point x="-250" y="555" type="curve" smooth="yes"/>
      <point x="-324" y="555" type="line"/>
    </contour>
  </outline>
</glyph>
<glyph name="uni0311" format="2">
  <advance width="1"/>
  <unicode hex="0311"/>
  <anchor x="-199" y="767" name="Stacking"/>
  <anchor x="-200" y="558" name="_Stacking"/>
  <anchor x="-199" y="558" name="_Diacritic"/>
  <outline>
    <contour>
      <point x="-200" y="653" type="curve" smooth="yes"/>
      <point x="-240.782" y="653"/>
      <point x="-271" y="624.472"/>
      <point x="-271" y="583" type="curve" smooth="yes"/>
      <point x="-271" y="557" type="line"/>
      <point x="-317" y="557" type="line"/>
      <point x="-317" y="583" type="line" smooth="yes"/>
      <point x="-317" y="636.017"/>
      <point x="-283.747" y="673.99"/>
      <point x="-245.5" y="690" type="curve" smooth="yes"/>
      <point x="-231.167" y="696"/>
      <point x="-216" y="699"/>
      <point x="-200" y="699" type="curve" smooth="yes"/>
      <point x="-145.146" y="699"/>
      <point x="-109.923" y="666.513"/>
      <point x="-92.5" y="628" type="curve" smooth="yes"/>
      <point x="-86.1667" y="614"/>
      <point x="-83" y="599"/>
      <point x="-83" y="583" type="curve" smooth="yes"/>
      <point x="-83" y="557" type="line"/>
      <point x="-129" y="557" type="line"/>
      <point x="-129" y="583" type="line" smooth="yes"/>
      <point x="-129" y="625.357"/>
      <point x="-158.677" y="653"/>
    </contour>
  </outline>
</glyph>
<glyph name="uni033E" format="2">
  <advance width="1"/>
  <unicode hex="033E"/>
  <anchor x="-279" y="855" name="Stacking"/>
  <anchor x="-280" y="526" name="_Stacking"/>
  <anchor x="-272" y="526" name="_Yerok"/>
  <outline>
    <contour>
      <point x="-152" y="732" type="line"/>
      <point x="-100" y="646" type="line" smooth="yes"/>
      <point x="-97.333" y="642"/>
      <point x="-97.667" y="639.333"/>
      <point x="-101" y="638" type="curve" smooth="yes"/>
      <point x="-315" y="525" type="line"/>
      <point x="-321.404" y="526.068"/>
      <point x="-328.246" y="534.883"/>
      <point x="-325" y="543" type="curve"/>
      <point x="-205" y="605" type="line"/>
      <point x="-257" y="692" type="line" smooth="yes"/>
      <point x="-259.667" y="696"/>
      <point x="-259.333" y="698.667"/>
      <point x="-256" y="700" type="curve" smooth="yes"/>
      <point x="-42" y="813" type="line"/>
      <point x="-35.5962" y="811.932"/>
      <point x="-28.7538" y="803.117"/>
      <point x="-32" y="795" type="curve"/>
    </contour>
  </outline>
</glyph>
<glyph name="uni0403" format="2">
  <advance width="438"/>
  <unicode hex="0403"/>
  <anchor x="255" y="1034" name="Yerok"/>
  <anchor x="255" y="1034" name="Diacritic"/>
  <outline>
    <contour>
      <point x="257" y="951" type="line"/>
      <point x="264.103" y="961.657"/>
      <point x="278.201" y="964.329"/>
      <point x="293" y="967.5" type="curve" smooth="yes"/>
      <point x="307" y="970.5" type="line" smooth="yes"/>
      <point x="311.667" y="971.5"/>
      <point x="315.333" y="972"/>
      <point x="318" y="972" type="curve" smooth="yes"/>
      <point x="323.333" y="972"/>
      <point x="326" y="969.333"/>
      <point x="326" y="964" type="curve"/>
      <point x="202" y="713" type="line" smooth="yes"/>
      <point x="200" y="709.667"/>
      <point x="196.667" y="708"/>
      <point x="192" y="708" type="curve" smooth="yes"/>
      <point x="180.228" y="709.178"/>
      <point x="163.8" y="710.198"/>
      <point x="161" y="720" type="curve"/>
    </contour>
    <contour>
      <point x="337" y="492" type="line" smooth="yes"/>
      <point x="337" y="486.745"/>
      <point x="335.359" y="481"/>
      <point x="330" y="481" type="curve" smooth="yes"/>
      <point x="323.069" y="481"/>
      <point x="317.346" y="489.308"/>
      <point x="315" y="494" type="curve" smooth="yes"/>
      <point x="294.914" y="538.898"/>
      <point x="287.304" y="595.785"/>
      <point x="275" y="645" type="curve"/>
      <point x="180" y="645" type="line"/>
      <point x="180" y="18" type="line"/>
      <point x="235" y="18" type="line"/>
      <point x="235" y="0" type="line"/>
      <point x="30" y="0" type="line"/>
      <point x="30" y="18" type="line"/>
      <point x="80" y="18" type="line"/>
      <point x="80" y="645" type="line"/>
      <point x="30" y="645" type="line"/>
      <point x="30" y="663" type="line"/>
      <point x="418" y="663" type="line" smooth="yes"/>
      <point x="421.333" y="663"/>
      <point x="423" y="660"/>
      <point x="423" y="654" type="curve" smooth="yes"/>
      <point x="423" y="649.333"/>
      <point x="421" y="646.333"/>
      <point x="417" y="645" type="curve" smooth="yes"/>
      <point x="394.542" y="640.187"/>
      <point x="377.542" y="615.955"/>
      <point x="366.5" y="596.5" type="curve" smooth="yes"/>
      <point x="354.713" y="575.733"/>
      <point x="343.755" y="545.361"/>
      <point x="339" y="520" type="curve" smooth="yes"/>
      <point x="337.667" y="514.667"/>
      <point x="337" y="509.5"/>
      <point x="337" y="504.5" type="curve" smooth="yes"/>
    </contour>
  </outline>
</glyph>
<glyph name="afii10053" format="2">
  <advance width="487"/>
  <unicode hex="0404"/>
  <anchor x="235" y="716" name="Yerok"/>
  <anchor x="238" y="716" name="Diacritic"/>
  <outline>
    <contour>
      <point x="128" y="-1" type="curve"/>
      <point x="140.123" y="17.8574"/>
      <point x="150" y="37.0581"/>
      <point x="150" y="68" type="curve" smooth="yes"/>
      <point x="150" y="90.8459"/>
      <point x="137.788" y="118.499"/>
      <point x="129.5" y="138" type="curve" smooth="yes"/>
      <point x="96.014" y="216.791"/>
      <point x="53.5445" y="277.052"/>
      <point x="39" y="374.5" type="curve" smooth="yes"/>
      <point x="35.6667" y="396.833"/>
      <point x="34" y="422.333"/>
      <point x="34" y="451" type="curve" smooth="yes"/>
      <point x="34" y="554.576"/>
      <point x="82.2773" y="625.31"/>
      <point x="156" y="656.5" type="curve" smooth="yes"/>
      <point x="182" y="667.5"/>
      <point x="211.333" y="673"/>
      <point x="244" y="673" type="curve" smooth="yes"/>
      <point x="312.801" y="673"/>
      <point x="364.662" y="646.866"/>
      <point x="396" y="609" type="curve" smooth="yes"/>
      <point x="411.811" y="589.54"/>
      <point x="417.902" y="571.434"/>
      <point x="421" y="542" type="curve"/>
      <point x="441" y="542" type="line"/>
      <point x="447.068" y="538.359"/>
      <point x="446.532" y="528.532"/>
      <point x="442" y="524" type="curve"/>
      <point x="285" y="524" type="line"/>
      <point x="277.215" y="527.114"/>
      <point x="278.423" y="536.423"/>
      <point x="284" y="542" type="curve"/>
      <point x="314" y="542" type="line"/>
      <point x="314" y="584.201"/>
      <point x="306.208" y="632.492"/>
      <point x="279.5" y="648" type="curve" smooth="yes"/>
      <point x="269.167" y="654"/>
      <point x="256.333" y="657"/>
      <point x="241" y="657" type="curve" smooth="yes"/>
      <point x="155.559" y="657"/>
      <point x="143" y="543.754"/>
      <point x="143" y="458" type="curve" smooth="yes"/>
      <point x="143" y="423.694"/>
      <point x="146.147" y="391.542"/>
      <point x="151" y="360" type="curve"/>
      <point x="159.667" y="382.667"/>
      <point x="170.667" y="403"/>
      <point x="184" y="421" type="curve" smooth="yes"/>
      <point x="208" y="452.333"/>
      <point x="240.667" y="468"/>
      <point x="282" y="468" type="curve" smooth="yes"/>
      <point x="355.766" y="468"/>
      <point x="412.096" y="425.045"/>
      <point x="419" y="356" type="curve" smooth="yes"/>
      <point x="421" y="336" type="line"/>
      <point x="446" y="336" type="line"/>
      <point x="451.162" y="332.128"/>
      <point x="450.049" y="322.049"/>
      <point x="446" y="318" type="curve"/>
      <point x="288" y="318" type="line"/>
      <point x="284.667" y="320"/>
      <point x="283" y="322.833"/>
      <point x="283" y="326.5" type="curve" smooth="yes"/>
      <point x="283" y="330.167"/>
      <point x="284.667" y="333.333"/>
      <point x="288" y="336" type="curve"/>
      <point x="314" y="336" type="line"/>
      <point x="316.667" y="346.667"/>
      <point x="318" y="361.667"/>
      <point x="318" y="381" type="curve" smooth="yes"/>
      <point x="318" y="414.554"/>
      <point x="293.038" y="445"/>
      <point x="262" y="445" type="curve" smooth="yes"/>
      <point x="235.353" y="445"/>
      <point x="211.438" y="425.831"/>
      <point x="199" y="410" type="curve" smooth="yes"/>
      <point x="180.818" y="386.969"/>
      <point x="163.68" y="351.081"/>
      <point x="158" y="317" type="curve"/>
      <point x="162.899" y="296.181"/>
      <point x="166.185" y="273.897"/>
      <point x="172" y="255" type="curve" smooth="yes"/>
      <point x="184.277" y="208.346"/>
      <point x="199" y="177.56"/>
      <point x="199" y="124" type="curve" smooth="yes"/>
      <point x="199" y="97.3333"/>
      <point x="193.667" y="70.6667"/>
      <point x="183" y="44" type="curve"/>
      <point x="222.977" y="59.7052"/>
      <point x="253.879" y="83.3432"/>
      <point x="279" y="116" type="curve" smooth="yes"/>
      <point x="295.667" y="136.667"/>
      <point x="305" y="160.667"/>
      <point x="307" y="188" type="curve"/>
      <point x="307" y="202.5" type="line" smooth="yes"/>
      <point x="307" y="206.833"/>
      <point x="306.667" y="211"/>
      <point x="306" y="215" type="curve"/>
      <point x="283" y="219" type="line"/>
      <point x="277.726" y="224.274"/>
      <point x="282.191" y="234.115"/>
      <point x="287" y="237" type="curve"/>
      <point x="435" y="210" type="line"/>
      <point x="438.99" y="206.01"/>
      <point x="432.844" y="193.844"/>
      <point x="431" y="192" type="curve"/>
      <point x="411" y="195" type="line"/>
      <point x="401.848" y="137.036"/>
      <point x="370.468" y="97.2237"/>
      <point x="333" y="66" type="curve" smooth="yes"/>
      <point x="298.447" y="37.2055"/>
      <point x="240.125" y="15.084"/>
      <point x="191" y="0.5" type="curve" smooth="yes"/>
      <point x="169.667" y="-5.83333"/>
      <point x="151" y="-9.66667"/>
      <point x="135" y="-11" type="curve" smooth="yes"/>
      <point x="132.046" y="-8.04575"/>
      <point x="130.484" y="-4.72667"/>
    </contour>
  </outline>
</glyph>
<glyph name="afii10054" format="2">
  <advance width="566"/>
  <unicode hex="0405"/>
  <anchor x="465" y="716" name="Yerok"/>
  <anchor x="255" y="716" name="Diacritic"/>
  <outline>
    <contour>
      <point x="379" y="633" type="curve" smooth="yes"/>
      <point x="401.234" y="635.779"/>
      <point x="422.079" y="651.317"/>
      <point x="427" y="671" type="curve"/>
      <point x="444" y="667" type="line"/>
      <point x="413" y="520" type="line"/>
      <point x="396" y="524" type="line"/>
      <point x="398" y="534" type="line"/>
      <point x="393.418" y="561.493"/>
      <point x="387.061" y="584.939"/>
      <point x="370" y="602" type="curve" smooth="yes"/>
      <point x="355.086" y="615.05"/>
      <point x="327.909" y="635.214"/>
      <point x="306" y="638.5" type="curve" smooth="yes"/>
      <point x="299.333" y="639.5"/>
      <point x="290.667" y="640"/>
      <point x="280" y="640" type="curve" smooth="yes"/>
      <point x="229.554" y="640"/>
      <point x="202" y="584.648"/>
      <point x="202" y="534" type="curve" smooth="yes"/>
      <point x="202" y="484.905"/>
      <point x="221.586" y="448.236"/>
      <point x="253.5" y="430" type="curve" smooth="yes"/>
      <point x="265.167" y="423.333"/>
      <point x="279" y="420"/>
      <point x="295" y="420" type="curve" smooth="yes"/>
      <point x="326.709" y="420"/>
      <point x="353.716" y="434.875"/>
      <point x="374" y="448" type="curve"/>
      <point x="403" y="474" type="line"/>
      <point x="415" y="460" type="line"/>
      <point x="239" y="306" type="line"/>
      <point x="272.333" y="320.667"/>
      <point x="309.333" y="328"/>
      <point x="350" y="328" type="curve" smooth="yes"/>
      <point x="425.511" y="328"/>
      <point x="467.518" y="305.457"/>
      <point x="501" y="265" type="curve" smooth="yes"/>
      <point x="513.959" y="248.506"/>
      <point x="528" y="216.45"/>
      <point x="528" y="188" type="curve" smooth="yes"/>
      <point x="528" y="89.2466"/>
      <point x="494.886" y="25.3545"/>
      <point x="424" y="-3" type="curve" smooth="yes"/>
      <point x="410.667" y="-8.33333"/>
      <point x="396.667" y="-11"/>
      <point x="382" y="-11" type="curve" smooth="yes"/>
      <point x="349.127" y="-11"/>
      <point x="325.513" y="-5.65467"/>
      <point x="304" y="7" type="curve" smooth="yes"/>
      <point x="269.305" y="27.4087"/>
      <point x="221.008" y="62.4611"/>
      <point x="193" y="83" type="curve" smooth="yes"/>
      <point x="183.441" y="86.5846"/>
      <point x="174.117" y="90"/>
      <point x="162" y="90" type="curve" smooth="yes"/>
      <point x="138.044" y="90"/>
      <point x="129" y="67.6176"/>
      <point x="129" y="43" type="curve" smooth="yes"/>
      <point x="129" y="33.8597"/>
      <point x="134.695" y="21.3818"/>
      <point x="139" y="16" type="curve"/>
      <point x="139" y="0" type="line"/>
      <point x="127" y="-2"/>
      <point x="111.667" y="-3"/>
      <point x="93" y="-3" type="curve" smooth="yes"/>
      <point x="74.2728" y="-3"/>
      <point x="54.403" y="-2.80054"/>
      <point x="39" y="0" type="curve"/>
      <point x="31.6463" y="11.7659"/>
      <point x="25" y="25.9188"/>
      <point x="25" y="46" type="curve" smooth="yes"/>
      <point x="25" y="84.5829"/>
      <point x="51.6097" y="111.25"/>
      <point x="79.5" y="124" type="curve" smooth="yes"/>
      <point x="91.1667" y="129.333"/>
      <point x="104" y="132"/>
      <point x="118" y="132" type="curve" smooth="yes"/>
      <point x="152.226" y="132"/>
      <point x="170.132" y="122.958"/>
      <point x="191" y="107" type="curve" smooth="yes"/>
      <point x="217.698" y="87.2667"/>
      <point x="258.395" y="55.733"/>
      <point x="287" y="40" type="curve"/>
      <point x="305" y="35.5" type="line" smooth="yes"/>
      <point x="311.667" y="33.8333"/>
      <point x="318.333" y="33"/>
      <point x="325" y="33" type="curve" smooth="yes"/>
      <point x="398.37" y="33"/>
      <point x="414" y="103.59"/>
      <point x="414" y="176" type="curve" smooth="yes"/>
      <point x="414" y="226.627"/>
      <point x="391.983" y="272.195"/>
      <point x="361.5" y="288.5" type="curve" smooth="yes"/>
      <point x="347.167" y="296.167"/>
      <point x="329" y="300"/>
      <point x="307" y="300" type="curve" smooth="yes"/>
      <point x="253.988" y="300"/>
      <point x="215.479" y="278.793"/>
      <point x="184" y="257" type="curve"/>
      <point x="183" y="257" type="line"/>
      <point x="160" y="237" type="line"/>
      <point x="148" y="251" type="line"/>
      <point x="325" y="406" type="line"/>
      <point x="300.38" y="396.621"/>
      <point x="267.052" y="393"/>
      <point x="235" y="393" type="curve" smooth="yes"/>
      <point x="191.943" y="393"/>
      <point x="155.319" y="415.959"/>
      <point x="132" y="438.5" type="curve" smooth="yes"/>
      <point x="107.829" y="461.866"/>
      <point x="98" y="491.477"/>
      <point x="98" y="536" type="curve" smooth="yes"/>
      <point x="98" y="610.164"/>
      <point x="136.671" y="647.498"/>
      <point x="193.5" y="666" type="curve" smooth="yes"/>
      <point x="207.833" y="670.667"/>
      <point x="223.333" y="673"/>
      <point x="240" y="673" type="curve" smooth="yes"/>
      <point x="284.355" y="673"/>
      <point x="303.174" y="662.137"/>
      <point x="335" y="645" type="curve" smooth="yes"/>
      <point x="348.333" y="637.667"/>
      <point x="363" y="633.667"/>
    </contour>
  </outline>
</glyph>
<glyph name="uni0406" format="2">
  <advance width="316"/>
  <unicode hex="0406"/>
  <anchor x="154" y="716" name="Yerok"/>
  <anchor x="154" y="716" name="Diacritic"/>
  <outline>
    <contour>
      <point x="257" y="335" type="curve" smooth="yes"/>
      <point x="257" y="291.103"/>
      <point x="218.949" y="268.325"/>
      <point x="181" y="262" type="curve"/>
      <point x="185.094" y="182.161"/>
      <point x="196.159" y="103.517"/>
      <point x="229.5" y="53" type="curve" smooth="yes"/>
      <point x="240.5" y="36.3333"/>
      <point x="254.333" y="24.6667"/>
      <point x="271" y="18" type="curve"/>
      <point x="271" y="0" type="line"/>
      <point x="257.667" y="0"/>
      <point x="244.333" y="0.333333"/>
      <point x="231" y="1" type="curve" smooth="yes"/>
      <point x="208.861" y="1"/>
      <point x="180.136" y="2"/>
      <point x="158" y="2" type="curve" smooth="yes"/>
      <point x="135.861" y="2"/>
      <point x="107.136" y="1"/>
      <point x="85" y="1" type="curve" smooth="yes"/>
      <point x="71.6667" y="0.333333"/>
      <point x="58.3333" y="0"/>
      <point x="45" y="0" type="curve"/>
      <point x="45" y="18" type="line"/>
      <point x="117.732" y="47.0926"/>
      <point x="130.055" y="165.57"/>
      <point x="135" y="262" type="curve"/>
      <point x="97.04" y="268.327"/>
      <point x="59" y="291.099"/>
      <point x="59" y="335" type="curve" smooth="yes"/>
      <point x="59" y="378.917"/>
      <point x="97.0559" y="399.676"/>
      <point x="135" y="406" type="curve"/>
      <point x="132.941" y="484.256"/>
      <point x="125.533" y="561.448"/>
      <point x="94.5" y="610.5" type="curve" smooth="yes"/>
      <point x="84.1667" y="626.833"/>
      <point x="71" y="638.333"/>
      <point x="55" y="645" type="curve"/>
      <point x="55" y="663" type="line"/>
      <point x="67" y="662.333"/>
      <point x="79" y="662"/>
      <point x="91" y="662" type="curve" smooth="yes"/>
      <point x="101.667" y="661.333"/>
      <point x="113" y="661"/>
      <point x="125" y="661" type="curve" smooth="yes"/>
      <point x="190.5" y="661" type="line" smooth="yes"/>
      <point x="202.167" y="661"/>
      <point x="213.333" y="661.333"/>
      <point x="224" y="662" type="curve" smooth="yes"/>
      <point x="236" y="662"/>
      <point x="248.333" y="662.333"/>
      <point x="261" y="663" type="curve"/>
      <point x="261" y="645" type="line"/>
      <point x="189.917" y="616.567"/>
      <point x="182.54" y="502.537"/>
      <point x="180" y="406" type="curve"/>
      <point x="216.771" y="399.871"/>
      <point x="257" y="376.979"/>
    </contour>
  </outline>
</glyph>
<glyph name="uni040C" format="2">
  <advance width="505"/>
  <unicode hex="040C"/>
  <anchor x="255" y="1026" name="Yerok"/>
  <anchor x="255" y="1026" name="Diacritic"/>
  <outline>
    <contour>
      <point x="257" y="951" type="line"/>
      <point x="264.103" y="961.657"/>
      <point x="278.201" y="964.329"/>
      <point x="293" y="967.5" type="curve" smooth="yes"/>
      <point x="307" y="970.5" type="line" smooth="yes"/>
      <point x="311.667" y="971.5"/>
      <point x="315.333" y="972"/>
      <point x="318" y="972" type="curve" smooth="yes"/>
      <point x="323.333" y="972"/>
      <point x="326" y="969.333"/>
      <point x="326" y="964" type="curve"/>
      <point x="202" y="713" type="line" smooth="yes"/>
      <point x="200" y="709.667"/>
      <point x="196.667" y="708"/>
      <point x="192" y="708" type="curve" smooth="yes"/>
      <point x="180.228" y="709.178"/>
      <point x="163.8" y="710.198"/>
      <point x="161" y="720" type="curve"/>
    </contour>
    <contour>
      <point x="235" y="374" type="line"/>
      <point x="280.126" y="380.447"/>
      <point x="309" y="423.448"/>
      <point x="309" y="474" type="curve" smooth="yes"/>
      <point x="309" y="645" type="line"/>
      <point x="265" y="645" type="line"/>
      <point x="265" y="663" type="line"/>
      <point x="449" y="663" type="line"/>
      <point x="449" y="645" type="line"/>
      <point x="409" y="645" type="line"/>
      <point x="409" y="533" type="line" smooth="yes"/>
      <point x="409" y="444.197"/>
      <point x="353.278" y="388.413"/>
      <point x="284" y="367" type="curve"/>
      <point x="362.855" y="349.194"/>
      <point x="425" y="289.042"/>
      <point x="425" y="194" type="curve" smooth="yes"/>
      <point x="425" y="18" type="line"/>
      <point x="475" y="18" type="line"/>
      <point x="475" y="0" type="line"/>
      <point x="275" y="0" type="line"/>
      <point x="275" y="18" type="line"/>
      <point x="325" y="18" type="line"/>
      <point x="325" y="253" type="line" smooth="yes"/>
      <point x="325" y="296.64"/>
      <point x="303.209" y="331.757"/>
      <point x="274.5" y="347.5" type="curve" smooth="yes"/>
      <point x="264.167" y="353.167"/>
      <point x="252.667" y="356"/>
      <point x="240" y="356" type="curve" smooth="yes"/>
      <point x="180" y="356" type="line"/>
      <point x="180" y="18" type="line"/>
      <point x="230" y="18" type="line"/>
      <point x="230" y="0" type="line"/>
      <point x="30" y="0" type="line"/>
      <point x="30" y="18" type="line"/>
      <point x="80" y="18" type="line"/>
      <point x="80" y="645" type="line"/>
      <point x="30" y="645" type="line"/>
      <point x="30" y="663" type="line"/>
      <point x="230" y="663" type="line"/>
      <point x="230" y="645" type="line"/>
      <point x="180" y="645" type="line"/>
      <point x="180" y="374" type="line"/>
    </contour>
  </outline>
</glyph>
<glyph name="uni040D" format="2">
  <advance width="505"/>
  <unicode hex="040D"/>
  <anchor x="255" y="877" name="Yerok"/>
  <anchor x="255" y="876" name="Diacritic"/>
  <outline>
    <contour>
      <point x="369" y="713" type="curve" smooth="yes"/>
      <point x="369" y="707.667"/>
      <point x="366.333" y="705"/>
      <point x="361" y="705" type="curve"/>
      <point x="138" y="792" type="line"/>
      <point x="134.624" y="804.38"/>
      <point x="133" y="820.493"/>
      <point x="133" y="835" type="curve" smooth="yes"/>
      <point x="133" y="839.667"/>
      <point x="135.333" y="842"/>
      <point x="140" y="842" type="curve"/>
      <point x="366" y="754" type="line"/>
      <point x="368.218" y="741.801"/>
      <point x="369" y="726.199"/>
    </contour>
    <contour>
      <point x="475" y="0" type="line"/>
      <point x="275" y="0" type="line"/>
      <point x="275" y="18" type="line"/>
      <point x="325" y="18" type="line"/>
      <point x="325" y="405" type="line"/>
      <point x="180" y="269" type="line"/>
      <point x="180" y="18" type="line"/>
      <point x="230" y="18" type="line"/>
      <point x="230" y="0" type="line"/>
      <point x="30" y="0" type="line"/>
      <point x="30" y="18" type="line"/>
      <point x="80" y="18" type="line"/>
      <point x="80" y="645" type="line"/>
      <point x="30" y="645" type="line"/>
      <point x="30" y="663" type="line"/>
      <point x="230" y="663" type="line"/>
      <point x="230" y="645" type="line"/>
      <point x="180" y="645" type="line"/>
      <point x="180" y="294" type="line"/>
      <point x="325" y="430" type="line"/>
      <point x="325" y="645" type="line"/>
      <point x="275" y="645" type="line"/>
      <point x="275" y="663" type="line"/>
      <point x="475" y="663" type="line"/>
      <point x="475" y="645" type="line"/>
      <point x="425" y="645" type="line"/>
      <point x="425" y="18" type="line"/>
      <point x="475" y="18" type="line"/>
    </contour>
  </outline>
</glyph>
<glyph name="uni040E" format="2">
  <advance width="501"/>
  <unicode hex="040E"/>
  <anchor x="265" y="936" name="Yerok"/>
  <anchor x="264" y="936" name="Diacritic"/>
  <outline>
    <contour>
      <point x="303" y="878" type="curve"/>
      <point x="321" y="863"/>
      <point x="340" y="838"/>
      <point x="340" y="806" type="curve" smooth="yes"/>
      <point x="340" y="766"/>
      <point x="320" y="738"/>
      <point x="292" y="724" type="curve" smooth="yes"/>
      <point x="282" y="719"/>
      <point x="270" y="716"/>
      <point x="257" y="716" type="curve" smooth="yes"/>
      <point x="219" y="716"/>
      <point x="191" y="753"/>
      <point x="191" y="791" type="curve" smooth="yes"/>
      <point x="191" y="822"/>
      <point x="207" y="848"/>
      <point x="222" y="864" type="curve" smooth="yes"/>
      <point x="227" y="870"/>
      <point x="233" y="874"/>
      <point x="238" y="876" type="curve"/>
      <point x="243" y="874"/>
      <point x="247" y="871"/>
      <point x="250" y="866" type="curve"/>
      <point x="243" y="850"/>
      <point x="232" y="833"/>
      <point x="232" y="810" type="curve" smooth="yes"/>
      <point x="232" y="788"/>
      <point x="244" y="768"/>
      <point x="267" y="768" type="curve" smooth="yes"/>
      <point x="287" y="768"/>
      <point x="301" y="787"/>
      <point x="301" y="807" type="curve" smooth="yes"/>
      <point x="301" y="832"/>
      <point x="294" y="849"/>
      <point x="285" y="866" type="curve"/>
      <point x="289" y="872"/>
      <point x="295" y="876"/>
    </contour>
    <contour>
      <point x="484" y="659" type="curve"/>
      <point x="463" y="638"/>
      <point x="439" y="609"/>
      <point x="439" y="567" type="curve" smooth="yes"/>
      <point x="439" y="552"/>
      <point x="442" y="537"/>
      <point x="445" y="526" type="curve" smooth="yes"/>
      <point x="445" y="522"/>
      <point x="442" y="520"/>
      <point x="437" y="520" type="curve"/>
      <point x="422" y="533"/>
      <point x="409" y="545"/>
      <point x="398" y="556" type="curve" smooth="yes"/>
      <point x="386" y="568"/>
      <point x="374" y="574"/>
      <point x="361" y="574" type="curve" smooth="yes"/>
      <point x="343" y="574"/>
      <point x="330" y="566"/>
      <point x="321" y="550" type="curve" smooth="yes"/>
      <point x="312" y="534"/>
      <point x="305" y="516"/>
      <point x="298" y="495" type="curve" smooth="yes"/>
      <point x="280" y="437"/>
      <point x="265" y="366"/>
      <point x="262" y="293" type="curve" smooth="yes"/>
      <point x="257" y="169" type="line"/>
      <point x="253" y="82" type="line"/>
      <point x="253" y="54"/>
      <point x="278" y="19"/>
      <point x="303" y="19" type="curve" smooth="yes"/>
      <point x="325" y="19" type="line"/>
      <point x="325" y="1" type="line"/>
      <point x="160" y="1" type="line"/>
      <point x="160" y="19" type="line"/>
      <point x="182" y="19" type="line" smooth="yes"/>
      <point x="188" y="19"/>
      <point x="194" y="21"/>
      <point x="200" y="24" type="curve" smooth="yes"/>
      <point x="215" y="33"/>
      <point x="235" y="52"/>
      <point x="235" y="73" type="curve" smooth="yes"/>
      <point x="238" y="140"/>
      <point x="240" y="207"/>
      <point x="243" y="274" type="curve"/>
      <point x="85" y="274" type="line"/>
      <point x="85" y="292" type="line"/>
      <point x="116" y="292" type="line"/>
      <point x="76" y="645" type="line"/>
      <point x="33" y="645" type="line"/>
      <point x="33" y="663" type="line"/>
      <point x="221" y="663" type="line"/>
      <point x="221" y="645" type="line"/>
      <point x="176" y="645" type="line"/>
      <point x="216" y="292" type="line"/>
      <point x="244" y="292" type="line"/>
      <point x="244" y="293" type="line"/>
      <point x="245" y="334"/>
      <point x="250" y="378"/>
      <point x="256" y="416" type="curve" smooth="yes"/>
      <point x="268" y="502"/>
      <point x="284" y="588"/>
      <point x="330" y="640" type="curve" smooth="yes"/>
      <point x="348" y="661"/>
      <point x="384" y="671"/>
      <point x="416" y="671" type="curve" smooth="yes"/>
      <point x="438" y="671"/>
      <point x="458" y="672"/>
      <point x="479" y="673" type="curve" smooth="yes"/>
      <point x="483" y="671"/>
      <point x="484" y="665"/>
    </contour>
  </outline>
</glyph>
<glyph name="afii10017" format="2">
  <advance width="460"/>
  <unicode hex="0410"/>
  <anchor x="332" y="716" name="Yerok"/>
  <anchor x="333" y="716" name="Diacritic"/>
  <outline>
    <contour>
      <point x="196" y="623" type="curve" smooth="yes"/>
      <point x="237.567" y="623"/>
      <point x="264.809" y="596.344"/>
      <point x="280" y="569" type="curve"/>
      <point x="280" y="645" type="line"/>
      <point x="230" y="645" type="line"/>
      <point x="230" y="663" type="line"/>
      <point x="430" y="663" type="line"/>
      <point x="430" y="645" type="line"/>
      <point x="380" y="645" type="line"/>
      <point x="380" y="18" type="line"/>
      <point x="430" y="18" type="line"/>
      <point x="430" y="0" type="line"/>
      <point x="230" y="0" type="line"/>
      <point x="230" y="18" type="line"/>
      <point x="280" y="18" type="line"/>
      <point x="280" y="436" type="line"/>
      <point x="277.689" y="432.534"/>
      <point x="276.728" y="429.456"/>
      <point x="275" y="426" type="curve" smooth="yes"/>
      <point x="252.53" y="379.455"/>
      <point x="219.253" y="329.368"/>
      <point x="186" y="297.5" type="curve" smooth="yes"/>
      <point x="178" y="289.833"/>
      <point x="168.667" y="284.333"/>
      <point x="158" y="281" type="curve"/>
      <point x="181.901" y="271.44"/>
      <point x="203" y="251.881"/>
      <point x="203" y="220" type="curve" smooth="yes"/>
      <point x="203" y="181.94"/>
      <point x="171.828" y="156.679"/>
      <point x="137" y="154" type="curve"/>
      <point x="137" y="130" type="line" smooth="yes"/>
      <point x="137" y="83.7193"/>
      <point x="158.407" y="41.5931"/>
      <point x="182" y="18" type="curve"/>
      <point x="209" y="18" type="line"/>
      <point x="209" y="0" type="line"/>
      <point x="20" y="0" type="line"/>
      <point x="20" y="18" type="line"/>
      <point x="55" y="18" type="line"/>
      <point x="73.1629" y="29.1771"/>
      <point x="78.8969" y="44.193"/>
      <point x="88" y="65" type="curve" smooth="yes"/>
      <point x="96.3276" y="84.7781"/>
      <point x="102.147" y="112.81"/>
      <point x="106" y="134" type="curve" smooth="yes"/>
      <point x="107.333" y="140.667"/>
      <point x="108" y="148"/>
      <point x="108" y="156" type="curve"/>
      <point x="81.1335" y="163.327"/>
      <point x="59" y="188.118"/>
      <point x="59" y="221" type="curve" smooth="yes"/>
      <point x="59" y="253.856"/>
      <point x="82.9468" y="277.901"/>
      <point x="111" y="284" type="curve"/>
      <point x="89.8869" y="295.26"/>
      <point x="75" y="313.56"/>
      <point x="75" y="347" type="curve" smooth="yes"/>
      <point x="75" y="375.961"/>
      <point x="95.6888" y="404.473"/>
      <point x="111" y="417" type="curve" smooth="yes"/>
      <point x="138.559" y="439.549"/>
      <point x="172.496" y="455.047"/>
      <point x="201" y="475" type="curve" smooth="yes"/>
      <point x="221.518" y="490.388"/>
      <point x="255" y="521.388"/>
      <point x="255" y="554" type="curve" smooth="yes"/>
      <point x="255" y="586.678"/>
      <point x="225.219" y="605"/>
      <point x="196" y="605" type="curve"/>
      <point x="208.667" y="596.333"/>
      <point x="215" y="584.667"/>
      <point x="215" y="570" type="curve" smooth="yes"/>
      <point x="215" y="547.542"/>
      <point x="194.431" y="528"/>
      <point x="172" y="528" type="curve" smooth="yes"/>
      <point x="147.634" y="528"/>
      <point x="130" y="546.33"/>
      <point x="130" y="571" type="curve" smooth="yes"/>
      <point x="130" y="603.984"/>
      <point x="160.392" y="623"/>
    </contour>
    <contour>
      <point x="129" y="337" type="curve" smooth="yes"/>
      <point x="129" y="322.229"/>
      <point x="136.773" y="310"/>
      <point x="151" y="310" type="curve" smooth="yes"/>
      <point x="174.392" y="310"/>
      <point x="186.12" y="326.046"/>
      <point x="199" y="340" type="curve" smooth="yes"/>
      <point x="227.001" y="370.547"/>
      <point x="256.288" y="421.864"/>
      <point x="271.5" y="467.5" type="curve" smooth="yes"/>
      <point x="275.833" y="480.5"/>
      <point x="278" y="493"/>
      <point x="278" y="505" type="curve" smooth="yes"/>
      <point x="278" y="517"/>
      <point x="276" y="529"/>
      <point x="272" y="541" type="curve"/>
      <point x="266.394" y="503.629"/>
      <point x="241.149" y="476.149"/>
      <point x="219" y="454" type="curve" smooth="yes"/>
      <point x="193.217" y="428.217"/>
      <point x="175.462" y="413.462"/>
      <point x="149" y="387" type="curve" smooth="yes"/>
      <point x="138.833" y="376.833"/>
      <point x="129" y="357.219"/>
    </contour>
  </outline>
</glyph>
<glyph name="afii10018" format="2">
  <advance width="472"/>
  <unicode hex="0411"/>
  <anchor x="345" y="716" name="Yerok"/>
  <anchor x="233" y="716" name="Diacritic"/>
  <outline>
    <contour>
      <point x="346" y="513" type="line" smooth="yes"/>
      <point x="346" y="507.745"/>
      <point x="344.359" y="502"/>
      <point x="339" y="502" type="curve" smooth="yes"/>
      <point x="331.609" y="502"/>
      <point x="326.236" y="509.41"/>
      <point x="324" y="515" type="curve" smooth="yes"/>
      <point x="303.218" y="560.231"/>
      <point x="287.268" y="595.929"/>
      <point x="275" y="645" type="curve"/>
      <point x="180" y="645" type="line"/>
      <point x="180" y="445" type="line"/>
      <point x="208.56" y="414.853"/>
      <point x="228.474" y="398.333"/>
      <point x="269" y="375" type="curve" smooth="yes"/>
      <point x="310.601" y="349.787"/>
      <point x="339.522" y="337.974"/>
      <point x="399" y="335" type="curve"/>
      <point x="430" y="335" type="line"/>
      <point x="430" y="317" type="line"/>
      <point x="392" y="317" type="line"/>
      <point x="392" y="18" type="line"/>
      <point x="442" y="18" type="line"/>
      <point x="442" y="0" type="line"/>
      <point x="30" y="0" type="line"/>
      <point x="30" y="18" type="line"/>
      <point x="80" y="18" type="line"/>
      <point x="80" y="645" type="line"/>
      <point x="30" y="645" type="line"/>
      <point x="30" y="663" type="line"/>
      <point x="405" y="663" type="line" smooth="yes"/>
      <point x="408.333" y="663"/>
      <point x="410" y="659.667"/>
      <point x="410" y="653" type="curve" smooth="yes"/>
      <point x="410" y="648.713"/>
      <point x="406.196" y="642.196"/>
      <point x="404" y="640" type="curve" smooth="yes"/>
      <point x="371.615" y="620.569"/>
      <point x="354.873" y="584.988"/>
      <point x="348" y="541" type="curve" smooth="yes"/>
      <point x="346.667" y="535.667"/>
      <point x="346" y="530.5"/>
      <point x="346" y="525.5" type="curve" smooth="yes"/>
    </contour>
    <contour>
      <point x="292" y="341" type="line"/>
      <point x="265.649" y="351.851"/>
      <point x="231.65" y="375.494"/>
      <point x="213" y="390" type="curve" smooth="yes"/>
      <point x="201" y="399.333"/>
      <point x="190" y="409"/>
      <point x="180" y="419" type="curve"/>
      <point x="180" y="18" type="line"/>
      <point x="292" y="18" type="line"/>
    </contour>
  </outline>
</glyph>
<glyph name="afii10019" format="2">
  <advance width="472"/>
  <unicode hex="0412"/>
  <anchor x="385" y="716" name="Yerok"/>
  <anchor x="269" y="716" name="Diacritic"/>
  <outline>
    <contour>
      <point x="273" y="673" type="curve" smooth="yes"/>
      <point x="364.314" y="673"/>
      <point x="433" y="641.077"/>
      <point x="433" y="548" type="curve" smooth="yes"/>
      <point x="433" y="499.244"/>
      <point x="413.292" y="468.277"/>
      <point x="383" y="449" type="curve" smooth="yes"/>
      <point x="368.333" y="439.667"/>
      <point x="351" y="435"/>
      <point x="331" y="435" type="curve" smooth="yes"/>
      <point x="301.807" y="435"/>
      <point x="277.592" y="451.114"/>
      <point x="262.5" y="467" type="curve" smooth="yes"/>
      <point x="256.167" y="473.667"/>
      <point x="251.667" y="481.333"/>
      <point x="249" y="490" type="curve"/>
      <point x="188" y="415" type="line"/>
      <point x="222.563" y="371.796"/>
      <point x="262.5" y="333.286"/>
      <point x="323" y="316" type="curve" smooth="yes"/>
      <point x="346.333" y="309.333"/>
      <point x="372" y="305.333"/>
      <point x="400" y="304" type="curve"/>
      <point x="430" y="304" type="line"/>
      <point x="430" y="286" type="line"/>
      <point x="392" y="286" type="line"/>
      <point x="392" y="18" type="line"/>
      <point x="442" y="18" type="line"/>
      <point x="442" y="0" type="line"/>
      <point x="30" y="0" type="line"/>
      <point x="30" y="18" type="line"/>
      <point x="80" y="18" type="line"/>
      <point x="80" y="571" type="line" smooth="yes"/>
      <point x="80" y="581.214"/>
      <point x="94.8067" y="593.504"/>
      <point x="102" y="598" type="curve" smooth="yes"/>
      <point x="135.699" y="624.959"/>
      <point x="174.388" y="651.078"/>
      <point x="221.5" y="665.5" type="curve" smooth="yes"/>
      <point x="237.833" y="670.5"/>
      <point x="255" y="673"/>
    </contour>
    <contour>
      <point x="292" y="308" type="line"/>
      <point x="262.381" y="319.848"/>
      <point x="237.707" y="339.683"/>
      <point x="215" y="360" type="curve" smooth="yes"/>
      <point x="202.333" y="371.333"/>
      <point x="190.667" y="383.333"/>
      <point x="180" y="396" type="curve"/>
      <point x="180" y="18" type="line"/>
      <point x="292" y="18" type="line"/>
    </contour>
    <contour>
      <point x="267" y="657" type="curve" smooth="yes"/>
      <point x="190.037" y="657"/>
      <point x="180" y="581.86"/>
      <point x="180" y="505" type="curve" smooth="yes"/>
      <point x="180" y="434" type="line"/>
      <point x="242" y="511" type="line" smooth="yes"/>
      <point x="245.872" y="516.808"/>
      <point x="250.117" y="532"/>
      <point x="258" y="532" type="curve" smooth="yes"/>
      <point x="263.333" y="532"/>
      <point x="266" y="528.667"/>
      <point x="266" y="522" type="curve" smooth="yes"/>
      <point x="266" y="507" type="line" smooth="yes"/>
      <point x="266" y="484.756"/>
      <point x="281.145" y="470"/>
      <point x="302" y="470" type="curve" smooth="yes"/>
      <point x="325.285" y="470"/>
      <point x="331.472" y="481.026"/>
      <point x="338" y="498" type="curve" smooth="yes"/>
      <point x="343.854" y="509.708"/>
      <point x="347" y="534.45"/>
      <point x="347" y="553" type="curve" smooth="yes"/>
      <point x="347" y="591.07"/>
      <point x="331.55" y="626.19"/>
      <point x="311" y="644" type="curve" smooth="yes"/>
      <point x="301" y="652.667"/>
      <point x="286.333" y="657"/>
    </contour>
  </outline>
</glyph>
<glyph name="afii10021" format="2">
  <advance width="518"/>
  <unicode hex="0414"/>
  <anchor x="385" y="716" name="Yerok"/>
  <anchor x="308" y="716" name="Diacritic"/>
  <outline>
    <contour>
      <point x="190" y="471" type="curve" smooth="yes"/>
      <point x="225.093" y="471"/>
      <point x="249.274" y="449.218"/>
      <point x="260" y="423" type="curve"/>
      <point x="260" y="645" type="line"/>
      <point x="210" y="645" type="line"/>
      <point x="210" y="663" type="line"/>
      <point x="410" y="663" type="line"/>
      <point x="410" y="645" type="line"/>
      <point x="360" y="645" type="line"/>
      <point x="360" y="18" type="line"/>
      <point x="483" y="18" type="line" smooth="yes"/>
      <point x="490.333" y="18"/>
      <point x="494" y="14.6667"/>
      <point x="494" y="8" type="curve" smooth="yes"/>
      <point x="494" y="-4.52412"/>
      <point x="483.397" y="-15.6721"/>
      <point x="479" y="-23" type="curve" smooth="yes"/>
      <point x="435.836" y="-82.1961"/>
      <point x="408.281" y="-136.589"/>
      <point x="369" y="-194" type="curve" smooth="yes"/>
      <point x="367" y="-197.333"/>
      <point x="364.333" y="-199"/>
      <point x="361" y="-199" type="curve" smooth="yes"/>
      <point x="357.667" y="-199"/>
      <point x="356" y="-196.333"/>
      <point x="356" y="-191" type="curve" smooth="yes"/>
      <point x="356" y="0" type="line"/>
      <point x="164" y="0" type="line"/>
      <point x="164" y="-191" type="line" smooth="yes"/>
      <point x="164" y="-196.333"/>
      <point x="162.333" y="-199"/>
      <point x="159" y="-199" type="curve" smooth="yes"/>
      <point x="155" y="-199"/>
      <point x="152.333" y="-197.333"/>
      <point x="151" y="-194" type="curve" smooth="yes"/>
      <point x="109.321" y="-133.085"/>
      <point x="76.4586" y="-71.9448"/>
      <point x="30" y="-10" type="curve" smooth="yes"/>
      <point x="26" y="-4.66667"/>
      <point x="24" y="1.33333"/>
      <point x="24" y="8" type="curve" smooth="yes"/>
      <point x="24" y="14.6667"/>
      <point x="27.6667" y="18"/>
      <point x="35" y="18" type="curve" smooth="yes"/>
      <point x="140" y="18" type="line"/>
      <point x="118.795" y="35.4629"/>
      <point x="95" y="70.7832"/>
      <point x="95" y="109" type="curve" smooth="yes"/>
      <point x="95" y="136.333"/>
      <point x="100.333" y="160.167"/>
      <point x="111" y="180.5" type="curve" smooth="yes"/>
      <point x="126.755" y="210.534"/>
      <point x="155.113" y="248.113"/>
      <point x="180" y="273" type="curve" smooth="yes"/>
      <point x="199.647" y="292.647"/>
      <point x="219.622" y="316.814"/>
      <point x="234.5" y="343" type="curve" smooth="yes"/>
      <point x="242.833" y="357.667"/>
      <point x="247" y="372.667"/>
      <point x="247" y="388" type="curve" smooth="yes"/>
      <point x="247" y="421.759"/>
      <point x="223.644" y="453"/>
      <point x="190" y="453" type="curve" smooth="yes"/>
      <point x="180" y="453"/>
      <point x="171.333" y="450.333"/>
      <point x="164" y="445" type="curve"/>
      <point x="190.432" y="445"/>
      <point x="213" y="423.458"/>
      <point x="213" y="397" type="curve" smooth="yes"/>
      <point x="213" y="370.542"/>
      <point x="190.431" y="349"/>
      <point x="164" y="349" type="curve" smooth="yes"/>
      <point x="137.542" y="349"/>
      <point x="116" y="370.542"/>
      <point x="116" y="397" type="curve" smooth="yes"/>
      <point x="116" y="440.472"/>
      <point x="148.504" y="471"/>
    </contour>
    <contour>
      <point x="260" y="327" type="line"/>
      <point x="253.16" y="299.64"/>
      <point x="237.336" y="270.539"/>
      <point x="226" y="249" type="curve" smooth="yes"/>
      <point x="196.438" y="192.832"/>
      <point x="146" y="148.277"/>
      <point x="146" y="67" type="curve" smooth="yes"/>
      <point x="146" y="48.4668"/>
      <point x="157.246" y="24.0726"/>
      <point x="171.5" y="20" type="curve" smooth="yes"/>
      <point x="173.833" y="19.3333"/>
      <point x="176.333" y="18.6667"/>
      <point x="179" y="18" type="curve" smooth="yes"/>
      <point x="260" y="18" type="line"/>
    </contour>
  </outline>
</glyph>
<glyph name="afii10024" format="2">
  <advance width="750"/>
  <unicode hex="0416"/>
  <anchor x="625" y="716" name="Yerok"/>
  <anchor x="374" y="716" name="Diacritic"/>
  <outline>
    <contour>
      <point x="183" y="63" type="curve" smooth="yes"/>
      <point x="183" y="48.7354"/>
      <point x="184.371" y="29.405"/>
      <point x="186" y="18" type="curve"/>
      <point x="235" y="18" type="line"/>
      <point x="235" y="0" type="line"/>
      <point x="30" y="0" type="line"/>
      <point x="30" y="18" type="line"/>
      <point x="78" y="18" type="line"/>
      <point x="78" y="35.5" type="line" smooth="yes"/>
      <point x="78" y="165.723"/>
      <point x="119.338" y="261.801"/>
      <point x="192" y="332" type="curve" smooth="yes"/>
      <point x="216.841" y="355.461"/>
      <point x="244.122" y="375.71"/>
      <point x="270" y="399" type="curve" smooth="yes"/>
      <point x="283.088" y="410.898"/>
      <point x="296.11" y="428.183"/>
      <point x="305" y="443" type="curve"/>
      <point x="286" y="478" type="line" smooth="yes"/>
      <point x="268.221" y="509.607"/>
      <point x="246.412" y="546.035"/>
      <point x="216" y="564.5" type="curve" smooth="yes"/>
      <point x="206.667" y="570.167"/>
      <point x="197" y="573"/>
      <point x="187" y="573" type="curve" smooth="yes"/>
      <point x="163.667" y="573"/>
      <point x="144.167" y="567.667"/>
      <point x="128.5" y="557" type="curve" smooth="yes"/>
      <point x="112.833" y="546.333"/>
      <point x="97.3333" y="533.667"/>
      <point x="82" y="519" type="curve"/>
      <point x="76" y="519"/>
      <point x="73" y="522.333"/>
      <point x="73" y="529" type="curve" smooth="yes"/>
      <point x="79.3457" y="544.23"/>
      <point x="86" y="561.062"/>
      <point x="86" y="582" type="curve" smooth="yes"/>
      <point x="86" y="612.597"/>
      <point x="70.3068" y="639.973"/>
      <point x="49" y="650" type="curve" smooth="yes"/>
      <point x="45.9721" y="653.028"/>
      <point x="45" y="658.829"/>
      <point x="45" y="664" type="curve"/>
      <point x="55.0231" y="666.864"/>
      <point x="77.1962" y="673"/>
      <point x="91" y="673" type="curve" smooth="yes"/>
      <point x="151.114" y="673"/>
      <point x="187.51" y="652.181"/>
      <point x="218" y="617" type="curve" smooth="yes"/>
      <point x="258.487" y="568.727"/>
      <point x="282.143" y="523.405"/>
      <point x="314" y="465" type="curve" smooth="yes"/>
      <point x="318" y="457.667"/>
      <point x="321.667" y="450.667"/>
      <point x="325" y="444" type="curve"/>
      <point x="325" y="645" type="line"/>
      <point x="275" y="645" type="line"/>
      <point x="275" y="663" type="line"/>
      <point x="475" y="663" type="line"/>
      <point x="475" y="645" type="line"/>
      <point x="425" y="645" type="line"/>
      <point x="425" y="444" type="line"/>
      <point x="435.5" y="465" type="line" smooth="yes"/>
      <point x="464.792" y="523.583"/>
      <point x="492.217" y="569.567"/>
      <point x="532" y="617" type="curve" smooth="yes"/>
      <point x="562.518" y="652.213"/>
      <point x="598.838" y="673"/>
      <point x="659" y="673" type="curve" smooth="yes"/>
      <point x="667" y="673"/>
      <point x="675.667" y="671.667"/>
      <point x="685" y="669" type="curve" smooth="yes"/>
      <point x="706" y="663" type="line"/>
      <point x="706" y="657.765"/>
      <point x="705.501" y="653.334"/>
      <point x="702" y="651" type="curve" smooth="yes"/>
      <point x="680.743" y="640.996"/>
      <point x="664" y="612.557"/>
      <point x="664" y="582" type="curve" smooth="yes"/>
      <point x="664" y="561.071"/>
      <point x="670.658" y="544.22"/>
      <point x="677" y="529" type="curve" smooth="yes"/>
      <point x="677" y="522.507"/>
      <point x="675.256" y="518"/>
      <point x="668" y="518" type="curve"/>
      <point x="651.333" y="533.333"/>
      <point x="635.5" y="546.333"/>
      <point x="620.5" y="557" type="curve" smooth="yes"/>
      <point x="605.5" y="567.667"/>
      <point x="586.333" y="573"/>
      <point x="563" y="573" type="curve" smooth="yes"/>
      <point x="538.617" y="573"/>
      <point x="520.475" y="555.511"/>
      <point x="507" y="541" type="curve" smooth="yes"/>
      <point x="490.275" y="522.989"/>
      <point x="476.306" y="499.877"/>
      <point x="464" y="478" type="curve" smooth="yes"/>
      <point x="446" y="443" type="line"/>
      <point x="462.137" y="410.725"/>
      <point x="493.189" y="386.449"/>
      <point x="520" y="365" type="curve" smooth="yes"/>
      <point x="533.333" y="354.333"/>
      <point x="546" y="343.333"/>
      <point x="558" y="332" type="curve" smooth="yes"/>
      <point x="630.663" y="261.8"/>
      <point x="672" y="166.891"/>
      <point x="672" y="36.5" type="curve" smooth="yes"/>
      <point x="672" y="18" type="line"/>
      <point x="720" y="18" type="line"/>
      <point x="720" y="0" type="line"/>
      <point x="515" y="0" type="line"/>
      <point x="515" y="18" type="line"/>
      <point x="564" y="18" type="line"/>
      <point x="566.936" y="29.7444"/>
      <point x="567" y="47.6096"/>
      <point x="567" y="63" type="curve" smooth="yes"/>
      <point x="567" y="136.695"/>
      <point x="552.892" y="202.323"/>
      <point x="533.5" y="260.5" type="curve" smooth="yes"/>
      <point x="515.212" y="315.364"/>
      <point x="483.954" y="349.121"/>
      <point x="453" y="391" type="curve" smooth="yes"/>
      <point x="443.667" y="402.333"/>
      <point x="437.333" y="412.667"/>
      <point x="434" y="422" type="curve"/>
      <point x="425" y="403" type="line"/>
      <point x="425" y="18" type="line"/>
      <point x="475" y="18" type="line"/>
      <point x="475" y="0" type="line"/>
      <point x="275" y="0" type="line"/>
      <point x="275" y="18" type="line"/>
      <point x="325" y="18" type="line"/>
      <point x="325" y="403" type="line"/>
      <point x="316" y="422" type="line"/>
      <point x="293.83" y="377.659"/>
      <point x="262.254" y="350.579"/>
      <point x="238" y="309" type="curve" smooth="yes"/>
      <point x="202.594" y="246.359"/>
      <point x="183" y="156.362"/>
    </contour>
  </outline>
</glyph>
<glyph name="afii10025" format="2">
  <advance width="624"/>
  <unicode hex="0417"/>
  <anchor x="475" y="716" name="Yerok"/>
  <anchor x="345" y="716" name="Diacritic"/>
  <outline>
    <contour>
      <point x="584" y="171" type="curve" smooth="yes"/>
      <point x="584" y="50.805"/>
      <point x="511.478" y="-9"/>
      <point x="389" y="-9" type="curve" smooth="yes"/>
      <point x="318.26" y="-9"/>
      <point x="277.521" y="24.2771"/>
      <point x="230.5" y="51.5" type="curve" smooth="yes"/>
      <point x="212.319" y="62.0256"/>
      <point x="194.968" y="66"/>
      <point x="166" y="66" type="curve" smooth="yes"/>
      <point x="138.123" y="66"/>
      <point x="115.585" y="56.3342"/>
      <point x="100" y="45" type="curve"/>
      <point x="90.518" y="30.0998"/>
      <point x="85.1882" y="10.4558"/>
      <point x="80" y="-9" type="curve"/>
      <point x="62" y="-9" type="line"/>
      <point x="47.9667" y="12.6878"/>
      <point x="40" y="32.7374"/>
      <point x="40" y="67" type="curve" smooth="yes"/>
      <point x="40" y="116.966"/>
      <point x="77.3529" y="141"/>
      <point x="128" y="141" type="curve" smooth="yes"/>
      <point x="166.53" y="141"/>
      <point x="192.465" y="131.69"/>
      <point x="216" y="116" type="curve" smooth="yes"/>
      <point x="237.051" y="98.2725"/>
      <point x="256.403" y="77.0636"/>
      <point x="272" y="58" type="curve"/>
      <point x="293.979" y="41.8051"/>
      <point x="318.101" y="26"/>
      <point x="353" y="26" type="curve" smooth="yes"/>
      <point x="379.504" y="26"/>
      <point x="404.779" y="26.7273"/>
      <point x="422" y="36" type="curve"/>
      <point x="439.184" y="50.5405"/>
      <point x="453.799" y="89.9576"/>
      <point x="460" y="116" type="curve" smooth="yes"/>
      <point x="466.667" y="145.333"/>
      <point x="470" y="174"/>
      <point x="470" y="202" type="curve" smooth="yes"/>
      <point x="470" y="259.249"/>
      <point x="458.082" y="318.517"/>
      <point x="433" y="355" type="curve"/>
      <point x="407.134" y="321.374"/>
      <point x="366.73" y="298"/>
      <point x="308" y="298" type="curve" smooth="yes"/>
      <point x="271.248" y="298"/>
      <point x="240.077" y="309.022"/>
      <point x="223.5" y="329.5" type="curve" smooth="yes"/>
      <point x="217.833" y="336.5"/>
      <point x="215" y="344.667"/>
      <point x="215" y="354" type="curve" smooth="yes"/>
      <point x="215" y="395.766"/>
      <point x="264.539" y="414"/>
      <point x="309" y="414" type="curve" smooth="yes"/>
      <point x="356.24" y="414"/>
      <point x="401.407" y="402.013"/>
      <point x="431" y="384" type="curve"/>
      <point x="432.333" y="388"/>
      <point x="434" y="393.5"/>
      <point x="436" y="400.5" type="curve" smooth="yes"/>
      <point x="443" y="425" type="line"/>
      <point x="446.345" y="441.727"/>
      <point x="448" y="466.899"/>
      <point x="448" y="489" type="curve" smooth="yes"/>
      <point x="448" y="514.985"/>
      <point x="447.298" y="545.485"/>
      <point x="440" y="563" type="curve" smooth="yes"/>
      <point x="422.326" y="609.395"/>
      <point x="394.667" y="635"/>
      <point x="339" y="635" type="curve" smooth="yes"/>
      <point x="299.493" y="635"/>
      <point x="261.842" y="615.033"/>
      <point x="239" y="597" type="curve" smooth="yes"/>
      <point x="207.009" y="565.009"/>
      <point x="193.294" y="539.557"/>
      <point x="174" y="498" type="curve"/>
      <point x="173" y="487" type="line"/>
      <point x="157" y="486" type="line"/>
      <point x="147" y="668" type="line"/>
      <point x="163" y="669" type="line"/>
      <point x="166" y="646" type="line"/>
      <point x="176.052" y="631.48"/>
      <point x="189.461" y="615"/>
      <point x="212" y="615" type="curve" smooth="yes"/>
      <point x="223.231" y="615"/>
      <point x="226.2" y="615.229"/>
      <point x="235" y="619" type="curve" smooth="yes"/>
      <point x="279.81" y="644.606"/>
      <point x="325.621" y="669"/>
      <point x="394" y="669" type="curve" smooth="yes"/>
      <point x="458.987" y="669"/>
      <point x="520.949" y="631.423"/>
      <point x="537.5" y="586.5" type="curve" smooth="yes"/>
      <point x="544.5" y="567.5"/>
      <point x="548" y="544.667"/>
      <point x="548" y="518" type="curve" smooth="yes"/>
      <point x="548" y="495.228"/>
      <point x="544.361" y="469.539"/>
      <point x="538" y="453" type="curve"/>
      <point x="511.606" y="420.321"/>
      <point x="484.404" y="396.237"/>
      <point x="451" y="373" type="curve"/>
      <point x="494.13" y="350.087"/>
      <point x="536.854" y="320.526"/>
      <point x="563" y="280" type="curve"/>
      <point x="579.53" y="243.126"/>
      <point x="584" y="220.707"/>
    </contour>
    <contour>
      <point x="319" y="396" type="curve" smooth="yes"/>
      <point x="290.493" y="396"/>
      <point x="266" y="382.454"/>
      <point x="266" y="354" type="curve" smooth="yes"/>
      <point x="266" y="340.667"/>
      <point x="272" y="331"/>
      <point x="284" y="325" type="curve" smooth="yes"/>
      <point x="296" y="319"/>
      <point x="307" y="316"/>
      <point x="317" y="316" type="curve" smooth="yes"/>
      <point x="363.424" y="316"/>
      <point x="401.954" y="343.659"/>
      <point x="422" y="368" type="curve"/>
      <point x="398.487" y="384.088"/>
      <point x="357.791" y="396"/>
    </contour>
  </outline>
</glyph>
<glyph name="afii10026" format="2">
  <advance width="505"/>
  <unicode hex="0418"/>
  <anchor x="381" y="716" name="Yerok"/>
  <anchor x="252" y="716" name="Diacritic"/>
  <outline>
    <contour>
      <point x="475" y="0" type="line"/>
      <point x="275" y="0" type="line"/>
      <point x="275" y="18" type="line"/>
      <point x="325" y="18" type="line"/>
      <point x="325" y="405" type="line"/>
      <point x="180" y="269" type="line"/>
      <point x="180" y="18" type="line"/>
      <point x="230" y="18" type="line"/>
      <point x="230" y="0" type="line"/>
      <point x="30" y="0" type="line"/>
      <point x="30" y="18" type="line"/>
      <point x="80" y="18" type="line"/>
      <point x="80" y="645" type="line"/>
      <point x="30" y="645" type="line"/>
      <point x="30" y="663" type="line"/>
      <point x="230" y="663" type="line"/>
      <point x="230" y="645" type="line"/>
      <point x="180" y="645" type="line"/>
      <point x="180" y="294" type="line"/>
      <point x="325" y="430" type="line"/>
      <point x="325" y="645" type="line"/>
      <point x="275" y="645" type="line"/>
      <point x="275" y="663" type="line"/>
      <point x="475" y="663" type="line"/>
      <point x="475" y="645" type="line"/>
      <point x="425" y="645" type="line"/>
      <point x="425" y="18" type="line"/>
      <point x="475" y="18" type="line"/>
    </contour>
  </outline>
</glyph>
<glyph name="afii10027" format="2">
  <advance width="505"/>
  <unicode hex="0419"/>
  <anchor x="258" y="941" name="Yerok"/>
  <anchor x="258" y="939" name="Diacritic"/>
  <outline>
    <contour>
      <point x="299" y="878" type="curve"/>
      <point x="317.415" y="863.268"/>
      <point x="336" y="838.218"/>
      <point x="336" y="806" type="curve" smooth="yes"/>
      <point x="336" y="765.941"/>
      <point x="315.67" y="738.023"/>
      <point x="288.5" y="724" type="curve" smooth="yes"/>
      <point x="278.167" y="718.667"/>
      <point x="266.333" y="716"/>
      <point x="253" y="716" type="curve" smooth="yes"/>
      <point x="214.542" y="716"/>
      <point x="187" y="752.778"/>
      <point x="187" y="791" type="curve" smooth="yes"/>
      <point x="187" y="822.262"/>
      <point x="202.55" y="848.084"/>
      <point x="218" y="864.5" type="curve" smooth="yes"/>
      <point x="223.333" y="870.167"/>
      <point x="228.667" y="874"/>
      <point x="234" y="876" type="curve"/>
      <point x="238.667" y="874"/>
      <point x="242.667" y="870.667"/>
      <point x="246" y="866" type="curve"/>
      <point x="239.33" y="849.993"/>
      <point x="228" y="832.725"/>
      <point x="228" y="810" type="curve" smooth="yes"/>
      <point x="228" y="787.542"/>
      <point x="240.359" y="768"/>
      <point x="263" y="768" type="curve" smooth="yes"/>
      <point x="282.504" y="768"/>
      <point x="297" y="786.99"/>
      <point x="297" y="807" type="curve" smooth="yes"/>
      <point x="297" y="832.094"/>
      <point x="290.024" y="849.242"/>
      <point x="281" y="866" type="curve"/>
      <point x="285" y="872"/>
      <point x="291" y="876"/>
    </contour>
    <contour>
      <point x="475" y="0" type="line"/>
      <point x="275" y="0" type="line"/>
      <point x="275" y="18" type="line"/>
      <point x="325" y="18" type="line"/>
      <point x="325" y="405" type="line"/>
      <point x="180" y="269" type="line"/>
      <point x="180" y="18" type="line"/>
      <point x="230" y="18" type="line"/>
      <point x="230" y="0" type="line"/>
      <point x="30" y="0" type="line"/>
      <point x="30" y="18" type="line"/>
      <point x="80" y="18" type="line"/>
      <point x="80" y="645" type="line"/>
      <point x="30" y="645" type="line"/>
      <point x="30" y="663" type="line"/>
      <point x="230" y="663" type="line"/>
      <point x="230" y="645" type="line"/>
      <point x="180" y="645" type="line"/>
      <point x="180" y="294" type="line"/>
      <point x="325" y="430" type="line"/>
      <point x="325" y="645" type="line"/>
      <point x="275" y="645" type="line"/>
      <point x="275" y="663" type="line"/>
      <point x="475" y="663" type="line"/>
      <point x="475" y="645" type="line"/>
      <point x="425" y="645" type="line"/>
      <point x="425" y="18" type="line"/>
      <point x="475" y="18" type="line"/>
    </contour>
  </outline>
</glyph>
<glyph name="afii10028" format="2">
  <advance width="505"/>
  <unicode hex="041A"/>
  <anchor x="364" y="716" name="Yerok"/>
  <anchor x="242" y="716" name="Diacritic"/>
  <outline>
    <contour>
      <point x="235" y="374" type="line"/>
      <point x="280.126" y="380.447"/>
      <point x="309" y="423.448"/>
      <point x="309" y="474" type="curve" smooth="yes"/>
      <point x="309" y="645" type="line"/>
      <point x="265" y="645" type="line"/>
      <point x="265" y="663" type="line"/>
      <point x="449" y="663" type="line"/>
      <point x="449" y="645" type="line"/>
      <point x="409" y="645" type="line"/>
      <point x="409" y="533" type="line" smooth="yes"/>
      <point x="409" y="444.197"/>
      <point x="353.278" y="388.413"/>
      <point x="284" y="367" type="curve"/>
      <point x="362.855" y="349.194"/>
      <point x="425" y="289.042"/>
      <point x="425" y="194" type="curve" smooth="yes"/>
      <point x="425" y="18" type="line"/>
      <point x="475" y="18" type="line"/>
      <point x="475" y="0" type="line"/>
      <point x="275" y="0" type="line"/>
      <point x="275" y="18" type="line"/>
      <point x="325" y="18" type="line"/>
      <point x="325" y="253" type="line" smooth="yes"/>
      <point x="325" y="296.64"/>
      <point x="303.209" y="331.757"/>
      <point x="274.5" y="347.5" type="curve" smooth="yes"/>
      <point x="264.167" y="353.167"/>
      <point x="252.667" y="356"/>
      <point x="240" y="356" type="curve" smooth="yes"/>
      <point x="180" y="356" type="line"/>
      <point x="180" y="18" type="line"/>
      <point x="230" y="18" type="line"/>
      <point x="230" y="0" type="line"/>
      <point x="30" y="0" type="line"/>
      <point x="30" y="18" type="line"/>
      <point x="80" y="18" type="line"/>
      <point x="80" y="645" type="line"/>
      <point x="30" y="645" type="line"/>
      <point x="30" y="663" type="line"/>
      <point x="230" y="663" type="line"/>
      <point x="230" y="645" type="line"/>
      <point x="180" y="645" type="line"/>
      <point x="180" y="374" type="line"/>
    </contour>
  </outline>
</glyph>
<glyph name="afii10029" format="2">
  <advance width="469"/>
  <unicode hex="041B"/>
  <anchor x="335" y="716" name="Yerok"/>
  <anchor x="336" y="716" name="Diacritic"/>
  <outline>
    <contour>
      <point x="159" y="113" type="curve" smooth="yes"/>
      <point x="159" y="70.834"/>
      <point x="172.111" y="34.8278"/>
      <point x="198" y="18" type="curve"/>
      <point x="218" y="18" type="line"/>
      <point x="218" y="0" type="line"/>
      <point x="24" y="0" type="line"/>
      <point x="24" y="18" type="line"/>
      <point x="63" y="18" type="line"/>
      <point x="58.3333" y="30"/>
      <point x="56" y="46"/>
      <point x="56" y="66" type="curve" smooth="yes"/>
      <point x="56" y="162.663"/>
      <point x="77.5452" y="226.062"/>
      <point x="118.5" y="282" type="curve" smooth="yes"/>
      <point x="145.302" y="318.607"/>
      <point x="185.506" y="365.659"/>
      <point x="215" y="399" type="curve" smooth="yes"/>
      <point x="238.13" y="425.147"/>
      <point x="269.316" y="463.706"/>
      <point x="280.5" y="505" type="curve" smooth="yes"/>
      <point x="284.833" y="521"/>
      <point x="287.667" y="536.333"/>
      <point x="289" y="551" type="curve"/>
      <point x="289" y="645" type="line"/>
      <point x="239" y="645" type="line"/>
      <point x="239" y="663" type="line"/>
      <point x="439" y="663" type="line"/>
      <point x="439" y="645" type="line"/>
      <point x="389" y="645" type="line"/>
      <point x="389" y="18" type="line"/>
      <point x="439" y="18" type="line"/>
      <point x="439" y="0" type="line"/>
      <point x="239" y="0" type="line"/>
      <point x="239" y="18" type="line"/>
      <point x="289" y="18" type="line"/>
      <point x="289" y="482" type="line"/>
      <point x="264.392" y="420.481"/>
      <point x="236.946" y="354.574"/>
      <point x="210" y="295.5" type="curve" smooth="yes"/>
      <point x="191.882" y="255.78"/>
      <point x="176.613" y="225.867"/>
      <point x="167.5" y="179" type="curve" smooth="yes"/>
      <point x="163.635" y="159.124"/>
      <point x="159" y="134.304"/>
    </contour>
  </outline>
</glyph>
<glyph name="afii10030" format="2">
  <advance width="732"/>
  <unicode hex="041C"/>
  <anchor x="605" y="716" name="Yerok"/>
  <anchor x="481" y="716" name="Diacritic"/>
  <outline>
    <contour>
      <point x="244" y="612" type="curve" smooth="yes"/>
      <point x="273.174" y="612"/>
      <point x="293.972" y="595.766"/>
      <point x="307" y="578" type="curve"/>
      <point x="307" y="645" type="line"/>
      <point x="257" y="645" type="line"/>
      <point x="257" y="663" type="line"/>
      <point x="457" y="663" type="line"/>
      <point x="457" y="645" type="line"/>
      <point x="407" y="645" type="line"/>
      <point x="407" y="276" type="line"/>
      <point x="552" y="465" type="line"/>
      <point x="552" y="645" type="line"/>
      <point x="502" y="645" type="line"/>
      <point x="502" y="663" type="line"/>
      <point x="702" y="663" type="line"/>
      <point x="702" y="645" type="line"/>
      <point x="652" y="645" type="line"/>
      <point x="652" y="18" type="line"/>
      <point x="702" y="18" type="line"/>
      <point x="702" y="0" type="line"/>
      <point x="502" y="0" type="line"/>
      <point x="502" y="18" type="line"/>
      <point x="552" y="18" type="line"/>
      <point x="552" y="437" type="line"/>
      <point x="407" y="247" type="line"/>
      <point x="407" y="18" type="line"/>
      <point x="457" y="18" type="line"/>
      <point x="457" y="0" type="line"/>
      <point x="257" y="0" type="line"/>
      <point x="257" y="18" type="line"/>
      <point x="307" y="18" type="line"/>
      <point x="307" y="454" type="line"/>
      <point x="287.531" y="410.568"/>
      <point x="259.464" y="367.405"/>
      <point x="232" y="328" type="curve" smooth="yes"/>
      <point x="194.564" y="273.926"/>
      <point x="157" y="219.785"/>
      <point x="157" y="132" type="curve" smooth="yes"/>
      <point x="157" y="84.3461"/>
      <point x="171.377" y="35.5047"/>
      <point x="201" y="18" type="curve"/>
      <point x="219" y="18" type="line"/>
      <point x="219" y="0" type="line"/>
      <point x="27" y="0" type="line"/>
      <point x="27" y="18" type="line"/>
      <point x="67" y="18" type="line"/>
      <point x="59.8216" y="30.9212"/>
      <point x="53" y="68.6804"/>
      <point x="53" y="90" type="curve" smooth="yes"/>
      <point x="53" y="138"/>
      <point x="64.8333" y="185.5"/>
      <point x="88.5" y="232.5" type="curve" smooth="yes"/>
      <point x="118.729" y="292.532"/>
      <point x="171.073" y="355.521"/>
      <point x="226.5" y="401" type="curve" smooth="yes"/>
      <point x="250.437" y="420.641"/>
      <point x="273.491" y="441.425"/>
      <point x="291" y="465.5" type="curve" smooth="yes"/>
      <point x="299" y="476.5"/>
      <point x="304.333" y="488.667"/>
      <point x="307" y="502" type="curve"/>
      <point x="307" y="539" type="line"/>
      <point x="300.664" y="565.61"/>
      <point x="276.702" y="594"/>
      <point x="244" y="594" type="curve" smooth="yes"/>
      <point x="230" y="594"/>
      <point x="218.333" y="590.333"/>
      <point x="209" y="583" type="curve"/>
      <point x="211" y="583.667"/>
      <point x="214" y="584"/>
      <point x="218" y="584" type="curve" smooth="yes"/>
      <point x="247.099" y="584"/>
      <point x="271" y="561.124"/>
      <point x="271" y="532" type="curve" smooth="yes"/>
      <point x="271" y="502.875"/>
      <point x="247.098" y="480"/>
      <point x="218" y="480" type="curve" smooth="yes"/>
      <point x="190.261" y="480"/>
      <point x="166" y="504.261"/>
      <point x="166" y="532" type="curve" smooth="yes"/>
      <point x="166" y="567.398"/>
      <point x="186.813" y="593.082"/>
      <point x="211.5" y="605" type="curve" smooth="yes"/>
      <point x="221.167" y="609.667"/>
      <point x="232" y="612"/>
    </contour>
  </outline>
</glyph>
<glyph name="afii10032" format="2">
  <advance width="487"/>
  <unicode hex="041E"/>
  <anchor x="265" y="716" name="Yerok"/>
  <anchor x="264" y="716" name="Diacritic"/>
  <outline>
    <contour>
      <point x="304" y="674" type="curve" smooth="yes"/>
      <point x="308" y="672.667"/>
      <point x="310.667" y="669.667"/>
      <point x="312" y="665" type="curve" smooth="yes"/>
      <point x="321.732" y="590.387"/>
      <point x="344.029" y="542.45"/>
      <point x="379" y="483" type="curve" smooth="yes"/>
      <point x="396.333" y="453.667"/>
      <point x="412" y="423.333"/>
      <point x="426" y="392" type="curve" smooth="yes"/>
      <point x="440" y="360.667"/>
      <point x="447" y="324.333"/>
      <point x="447" y="283" type="curve" smooth="yes"/>
      <point x="447" y="200.09"/>
      <point x="410.025" y="137.421"/>
      <point x="367.5" y="92.5" type="curve" smooth="yes"/>
      <point x="323.947" y="46.4933"/>
      <point x="262.384" y="7.63819"/>
      <point x="195" y="-11" type="curve"/>
      <point x="189.667" y="-7"/>
      <point x="186.333" y="-3.66667"/>
      <point x="185" y="-1" type="curve"/>
      <point x="185" y="15" type="line"/>
      <point x="174.848" y="79.716"/>
      <point x="142.738" y="123.203"/>
      <point x="115" y="167" type="curve" smooth="yes"/>
      <point x="77.3474" y="229.016"/>
      <point x="40" y="280.862"/>
      <point x="40" y="379" type="curve" smooth="yes"/>
      <point x="40" y="464.151"/>
      <point x="81.1225" y="529.032"/>
      <point x="126" y="574.5" type="curve" smooth="yes"/>
      <point x="170.265" y="619.347"/>
      <point x="234.317" y="660.366"/>
    </contour>
    <contour>
      <point x="244" y="27" type="line"/>
      <point x="250" y="29" type="line"/>
      <point x="300.6" y="76.9369"/>
      <point x="339" y="166.471"/>
      <point x="339" y="266" type="curve" smooth="yes"/>
      <point x="339" y="331.71"/>
      <point x="314.277" y="374.638"/>
      <point x="297" y="424" type="curve" smooth="yes"/>
      <point x="279.125" y="473.155"/>
      <point x="264" y="515.536"/>
      <point x="264" y="582" type="curve" smooth="yes"/>
      <point x="264" y="606.493"/>
      <point x="264.772" y="626.267"/>
      <point x="269" y="646" type="curve"/>
      <point x="264" y="645" type="line"/>
      <point x="208.227" y="612.466"/>
      <point x="172.717" y="541.491"/>
      <point x="155.5" y="469" type="curve" smooth="yes"/>
      <point x="149.167" y="442.333"/>
      <point x="146" y="415.667"/>
      <point x="146" y="389" type="curve" smooth="yes"/>
      <point x="146" y="353"/>
      <point x="150.667" y="321.833"/>
      <point x="160" y="295.5" type="curve" smooth="yes"/>
      <point x="169.333" y="269.167"/>
      <point x="181" y="241.333"/>
      <point x="195" y="212" type="curve" smooth="yes"/>
      <point x="226.333" y="144.667"/>
      <point x="242.667" y="83.3333"/>
      <point x="244" y="28" type="curve"/>
    </contour>
  </outline>
</glyph>
<glyph name="afii10033" format="2">
  <advance width="505"/>
  <unicode hex="041F"/>
  <anchor x="385" y="716" name="Yerok"/>
  <anchor x="258" y="716" name="Diacritic"/>
  <outline>
    <contour>
      <point x="475" y="0" type="line"/>
      <point x="275" y="0" type="line"/>
      <point x="275" y="18" type="line"/>
      <point x="325" y="18" type="line"/>
      <point x="325" y="645" type="line"/>
      <point x="180" y="645" type="line"/>
      <point x="180" y="18" type="line"/>
      <point x="230" y="18" type="line"/>
      <point x="230" y="0" type="line"/>
      <point x="30" y="0" type="line"/>
      <point x="30" y="18" type="line"/>
      <point x="80" y="18" type="line"/>
      <point x="80" y="645" type="line"/>
      <point x="30" y="645" type="line"/>
      <point x="30" y="663" type="line"/>
      <point x="475" y="663" type="line"/>
      <point x="475" y="645" type="line"/>
      <point x="425" y="645" type="line"/>
      <point x="425" y="18" type="line"/>
      <point x="475" y="18" type="line"/>
    </contour>
  </outline>
</glyph>
<glyph name="afii10034" format="2">
  <advance width="475"/>
  <unicode hex="0420"/>
  <anchor x="385" y="716" name="Yerok"/>
  <anchor x="276" y="716" name="Diacritic"/>
  <outline>
    <contour>
      <point x="235" y="0" type="line"/>
      <point x="30" y="0" type="line"/>
      <point x="30" y="18" type="line"/>
      <point x="80" y="18" type="line"/>
      <point x="80" y="582" type="line" smooth="yes"/>
      <point x="80" y="593.333"/>
      <point x="84.6667" y="601.667"/>
      <point x="94" y="607" type="curve" smooth="yes"/>
      <point x="146.534" y="631.884"/>
      <point x="194.792" y="659.741"/>
      <point x="261.5" y="670.5" type="curve" smooth="yes"/>
      <point x="271.833" y="672.167"/>
      <point x="283.667" y="673"/>
      <point x="297" y="673" type="curve" smooth="yes"/>
      <point x="356.029" y="671.595"/>
      <point x="401.786" y="657.024"/>
      <point x="431" y="624" type="curve" smooth="yes"/>
      <point x="452.249" y="600.39"/>
      <point x="460" y="570.176"/>
      <point x="460" y="529" type="curve" smooth="yes"/>
      <point x="458.616" y="484.719"/>
      <point x="449.384" y="438.158"/>
      <point x="428" y="413" type="curve" smooth="yes"/>
      <point x="410.197" y="391.382"/>
      <point x="373.169" y="371"/>
      <point x="334" y="371" type="curve" smooth="yes"/>
      <point x="291.019" y="371"/>
      <point x="260.219" y="392.87"/>
      <point x="241.5" y="417.5" type="curve" smooth="yes"/>
      <point x="235.167" y="425.833"/>
      <point x="231" y="433.667"/>
      <point x="229" y="441" type="curve"/>
      <point x="180" y="344" type="line"/>
      <point x="180" y="18" type="line"/>
      <point x="235" y="18" type="line"/>
    </contour>
    <contour>
      <point x="298" y="419" type="curve" smooth="yes"/>
      <point x="350.26" y="419"/>
      <point x="360" y="479.844"/>
      <point x="360" y="533" type="curve" smooth="yes"/>
      <point x="360" y="581.608"/>
      <point x="347.924" y="623.411"/>
      <point x="319.5" y="644.5" type="curve" smooth="yes"/>
      <point x="309.167" y="652.167"/>
      <point x="296.333" y="656"/>
      <point x="281" y="656" type="curve" smooth="yes"/>
      <point x="211.801" y="656"/>
      <point x="180" y="599.857"/>
      <point x="180" y="531" type="curve" smooth="yes"/>
      <point x="180" y="386" type="line"/>
      <point x="227" y="479" type="line"/>
      <point x="236.054" y="479"/>
      <point x="242" y="475.076"/>
      <point x="242" y="467" type="curve" smooth="yes"/>
      <point x="242" y="435.933"/>
      <point x="265.373" y="419"/>
    </contour>
  </outline>
</glyph>
<glyph name="afii10035" format="2">
  <advance width="549"/>
  <unicode hex="0421"/>
  <anchor x="415" y="716" name="Yerok"/>
  <anchor x="275" y="716" name="Diacritic"/>
  <outline>
    <contour>
      <point x="514" y="343" type="line"/>
      <point x="485" y="343" type="line"/>
      <point x="480.927" y="273.762"/>
      <point x="472.657" y="211.313"/>
      <point x="448" y="162" type="curve" smooth="yes"/>
      <point x="426" y="119.333"/>
      <point x="397.5" y="83.6667"/>
      <point x="362.5" y="55" type="curve" smooth="yes"/>
      <point x="327.5" y="26.3333"/>
      <point x="293" y="4.33333"/>
      <point x="259" y="-11" type="curve"/>
      <point x="240" y="-11" type="line"/>
      <point x="240" y="27.978"/>
      <point x="228.734" y="49.2652"/>
      <point x="211" y="81" type="curve" smooth="yes"/>
      <point x="185.75" y="126.183"/>
      <point x="143.126" y="163.283"/>
      <point x="114" y="203" type="curve" smooth="yes"/>
      <point x="74.192" y="257.284"/>
      <point x="50" y="322.865"/>
      <point x="50" y="415" type="curve" smooth="yes"/>
      <point x="50" y="539.881"/>
      <point x="109.517" y="617.306"/>
      <point x="199" y="655.5" type="curve" smooth="yes"/>
      <point x="226.333" y="667.167"/>
      <point x="256" y="673"/>
      <point x="288" y="673" type="curve" smooth="yes"/>
      <point x="363.374" y="673"/>
      <point x="415.375" y="634.634"/>
      <point x="449" y="589" type="curve" smooth="yes"/>
      <point x="471.002" y="559.233"/>
      <point x="476.495" y="516.415"/>
      <point x="482" y="471" type="curve"/>
      <point x="514" y="471" type="line"/>
      <point x="514" y="453" type="line"/>
      <point x="343" y="453" type="line"/>
      <point x="343" y="471" type="line"/>
      <point x="377" y="471" type="line"/>
      <point x="373.567" y="546.525"/>
      <point x="364.252" y="622.374"/>
      <point x="311" y="649" type="curve" smooth="yes"/>
      <point x="301.667" y="653.667"/>
      <point x="291.333" y="656"/>
      <point x="280" y="656" type="curve" smooth="yes"/>
      <point x="215.988" y="656"/>
      <point x="194.148" y="597.445"/>
      <point x="178" y="549" type="curve" smooth="yes"/>
      <point x="165.81" y="510.905"/>
      <point x="158" y="459.647"/>
      <point x="158" y="406" type="curve" smooth="yes"/>
      <point x="158" y="270.286"/>
      <point x="231.667" y="181.999"/>
      <point x="266" y="79" type="curve" smooth="yes"/>
      <point x="269.333" y="69"/>
      <point x="272" y="57.3333"/>
      <point x="274" y="44" type="curve"/>
      <point x="329.064" y="87.2646"/>
      <point x="366.236" y="151.265"/>
      <point x="374.5" y="238.5" type="curve" smooth="yes"/>
      <point x="377.5" y="270.167"/>
      <point x="379.333" y="305"/>
      <point x="380" y="343" type="curve"/>
      <point x="343" y="343" type="line"/>
      <point x="343" y="361" type="line"/>
      <point x="514" y="361" type="line"/>
    </contour>
  </outline>
</glyph>
<glyph name="afii10036" format="2">
  <advance width="600"/>
  <unicode hex="0422"/>
  <anchor x="485" y="716" name="Yerok"/>
  <anchor x="303" y="716" name="Diacritic"/>
  <outline>
    <contour>
      <point x="580" y="663" type="line" smooth="yes"/>
      <point x="583.333" y="663"/>
      <point x="585" y="660"/>
      <point x="585" y="654" type="curve" smooth="yes"/>
      <point x="585" y="650"/>
      <point x="583" y="647.333"/>
      <point x="579" y="646" type="curve" smooth="yes"/>
      <point x="553.72" y="639.68"/>
      <point x="534.752" y="611.317"/>
      <point x="522" y="589" type="curve" smooth="yes"/>
      <point x="505.576" y="560.258"/>
      <point x="490.45" y="524.841"/>
      <point x="480.5" y="493" type="curve" smooth="yes"/>
      <point x="477.893" y="484.659"/>
      <point x="477.417" y="469"/>
      <point x="468" y="469" type="curve" smooth="yes"/>
      <point x="461.291" y="469"/>
      <point x="459.32" y="474.721"/>
      <point x="458" y="480" type="curve" smooth="yes"/>
      <point x="449.452" y="534.14"/>
      <point x="441.904" y="594.113"/>
      <point x="431" y="645" type="curve"/>
      <point x="350" y="645" type="line"/>
      <point x="350" y="18" type="line"/>
      <point x="400" y="18" type="line"/>
      <point x="400" y="0" type="line"/>
      <point x="200" y="0" type="line"/>
      <point x="200" y="18" type="line"/>
      <point x="250" y="18" type="line"/>
      <point x="250" y="645" type="line"/>
      <point x="169" y="645" type="line"/>
      <point x="158.101" y="594.137"/>
      <point x="150.503" y="533.851"/>
      <point x="142" y="480" type="curve" smooth="yes"/>
      <point x="140.68" y="474.721"/>
      <point x="138.709" y="469"/>
      <point x="132" y="469" type="curve" smooth="yes"/>
      <point x="122.684" y="469"/>
      <point x="122.076" y="484.756"/>
      <point x="119.5" y="493" type="curve" smooth="yes"/>
      <point x="104.939" y="539.594"/>
      <point x="81.526" y="592.868"/>
      <point x="51.5" y="626" type="curve" smooth="yes"/>
      <point x="41.8333" y="636.667"/>
      <point x="31.6667" y="643.333"/>
      <point x="21" y="646" type="curve" smooth="yes"/>
      <point x="17" y="647.333"/>
      <point x="15" y="650"/>
      <point x="15" y="654" type="curve" smooth="yes"/>
      <point x="15" y="660"/>
      <point x="16.6667" y="663"/>
      <point x="20" y="663" type="curve" smooth="yes"/>
    </contour>
  </outline>
</glyph>
<glyph name="afii10038" format="2">
  <advance width="714"/>
  <unicode hex="0424"/>
  <anchor x="603" y="716" name="Yerok"/>
  <anchor x="355" y="716" name="Diacritic"/>
  <outline>
    <contour>
      <point x="378" y="481" type="curve"/>
      <point x="407.253" y="512.691"/>
      <point x="452.856" y="533"/>
      <point x="511" y="533" type="curve" smooth="yes"/>
      <point x="564.881" y="533"/>
      <point x="606.989" y="503.74"/>
      <point x="633" y="473" type="curve" smooth="yes"/>
      <point x="661.501" y="438.561"/>
      <point x="677" y="388.067"/>
      <point x="677" y="329" type="curve" smooth="yes"/>
      <point x="677" y="236.014"/>
      <point x="641.336" y="174.372"/>
      <point x="579.5" y="141" type="curve" smooth="yes"/>
      <point x="558.5" y="129.667"/>
      <point x="535.667" y="124"/>
      <point x="511" y="124" type="curve" smooth="yes"/>
      <point x="452.266" y="124"/>
      <point x="407.127" y="143.232"/>
      <point x="378" y="176" type="curve"/>
      <point x="385.738" y="114.093"/>
      <point x="403.081" y="58.613"/>
      <point x="444.5" y="31" type="curve" smooth="yes"/>
      <point x="457.5" y="22.3333"/>
      <point x="473.333" y="18"/>
      <point x="492" y="18" type="curve"/>
      <point x="492" y="0" type="line"/>
      <point x="222" y="0" type="line"/>
      <point x="222" y="18" type="line"/>
      <point x="302.868" y="18"/>
      <point x="325.924" y="103.391"/>
      <point x="335" y="176" type="curve"/>
      <point x="306.183" y="143.581"/>
      <point x="258.91" y="124"/>
      <point x="201" y="124" type="curve" smooth="yes"/>
      <point x="147.119" y="124"/>
      <point x="105.011" y="153.26"/>
      <point x="79" y="184" type="curve" smooth="yes"/>
      <point x="50.2181" y="218.778"/>
      <point x="35" y="269.075"/>
      <point x="35" y="329" type="curve" smooth="yes"/>
      <point x="35" y="421.179"/>
      <point x="71.0987" y="482.863"/>
      <point x="132.5" y="516" type="curve" smooth="yes"/>
      <point x="153.5" y="527.333"/>
      <point x="176.333" y="533"/>
      <point x="201" y="533" type="curve" smooth="yes"/>
      <point x="258.218" y="533"/>
      <point x="306.12" y="512.287"/>
      <point x="335" y="481" type="curve"/>
      <point x="327.133" y="543.938"/>
      <point x="309.973" y="602.788"/>
      <point x="268.5" y="631.5" type="curve" smooth="yes"/>
      <point x="255.5" y="640.5"/>
      <point x="240" y="645"/>
      <point x="222" y="645" type="curve"/>
      <point x="222" y="663" type="line"/>
      <point x="492" y="663" type="line"/>
      <point x="492" y="645" type="line"/>
      <point x="409.11" y="645"/>
      <point x="387.282" y="555.258"/>
    </contour>
    <contour>
      <point x="342" y="270" type="curve"/>
      <point x="310.155" y="273.821"/>
      <point x="278" y="292.511"/>
      <point x="278" y="328" type="curve" smooth="yes"/>
      <point x="278" y="363.486"/>
      <point x="310.162" y="382.179"/>
      <point x="342" y="386" type="curve"/>
      <point x="338.667" y="426"/>
      <point x="328.333" y="456"/>
      <point x="311" y="476" type="curve" smooth="yes"/>
      <point x="293.667" y="496"/>
      <point x="273.667" y="506"/>
      <point x="251" y="506" type="curve" smooth="yes"/>
      <point x="214.953" y="506"/>
      <point x="183.936" y="475.538"/>
      <point x="169" y="451" type="curve" smooth="yes"/>
      <point x="151.12" y="423.492"/>
      <point x="141" y="375.611"/>
      <point x="141" y="329" type="curve" smooth="yes"/>
      <point x="141" y="253.444"/>
      <point x="161.925" y="197.987"/>
      <point x="205.5" y="167" type="curve" smooth="yes"/>
      <point x="220.5" y="156.333"/>
      <point x="235.667" y="151"/>
      <point x="251" y="151" type="curve" smooth="yes"/>
      <point x="273.667" y="151"/>
      <point x="293.5" y="160.833"/>
      <point x="310.5" y="180.5" type="curve" smooth="yes"/>
      <point x="327.5" y="200.167"/>
      <point x="338" y="230"/>
    </contour>
    <contour>
      <point x="436" y="328" type="curve" smooth="yes"/>
      <point x="436" y="292.089"/>
      <point x="403.627" y="273.765"/>
      <point x="371" y="270" type="curve"/>
      <point x="375" y="230"/>
      <point x="385.333" y="200.167"/>
      <point x="402" y="180.5" type="curve" smooth="yes"/>
      <point x="418.667" y="160.833"/>
      <point x="438.333" y="151"/>
      <point x="461" y="151" type="curve" smooth="yes"/>
      <point x="497.047" y="151"/>
      <point x="528.064" y="181.462"/>
      <point x="543" y="206" type="curve" smooth="yes"/>
      <point x="560.846" y="233.456"/>
      <point x="571" y="282.468"/>
      <point x="571" y="329" type="curve" smooth="yes"/>
      <point x="571" y="404.26"/>
      <point x="549.936" y="459.112"/>
      <point x="506.5" y="490" type="curve" smooth="yes"/>
      <point x="491.5" y="500.667"/>
      <point x="476.333" y="506"/>
      <point x="461" y="506" type="curve" smooth="yes"/>
      <point x="401.985" y="506"/>
      <point x="377.227" y="448.274"/>
      <point x="371" y="386" type="curve"/>
      <point x="403.096" y="381.062"/>
      <point x="436" y="364.295"/>
    </contour>
  </outline>
</glyph>
<glyph name="afii10039" format="2">
  <advance width="539"/>
  <unicode hex="0425"/>
  <anchor x="425" y="716" name="Yerok"/>
  <anchor x="275" y="716" name="Diacritic"/>
  <outline>
    <contour>
      <point x="170" y="244" type="curve"/>
      <point x="184.254" y="290.325"/>
      <point x="199.904" y="334.411"/>
      <point x="217" y="380" type="curve"/>
      <point x="119" y="645" type="line"/>
      <point x="72" y="645" type="line"/>
      <point x="72" y="663" type="line"/>
      <point x="276" y="663" type="line"/>
      <point x="276" y="645" type="line"/>
      <point x="223" y="645" type="line"/>
      <point x="273" y="508" type="line"/>
      <point x="294.238" y="550.476"/>
      <point x="319.727" y="595.494"/>
      <point x="345" y="632" type="curve" smooth="yes"/>
      <point x="350.78" y="641.249"/>
      <point x="361.501" y="654.125"/>
      <point x="373" y="657" type="curve" smooth="yes"/>
      <point x="404.338" y="662.223"/>
      <point x="463.215" y="668"/>
      <point x="497" y="668" type="curve"/>
      <point x="497" y="660.5" type="line" smooth="yes"/>
      <point x="497" y="657.5"/>
      <point x="496.333" y="655"/>
      <point x="495" y="653" type="curve" smooth="yes"/>
      <point x="473.216" y="636.662"/>
      <point x="457" y="594.623"/>
      <point x="457" y="558" type="curve" smooth="yes"/>
      <point x="457" y="541" type="line" smooth="yes"/>
      <point x="457" y="535"/>
      <point x="457.667" y="529"/>
      <point x="459" y="523" type="curve" smooth="yes"/>
      <point x="458.333" y="518.333"/>
      <point x="454.667" y="516"/>
      <point x="448" y="516" type="curve"/>
      <point x="414.761" y="538.602"/>
      <point x="390.729" y="566.208"/>
      <point x="365" y="596" type="curve"/>
      <point x="357.218" y="596"/>
      <point x="350.694" y="593.633"/>
      <point x="346" y="588" type="curve" smooth="yes"/>
      <point x="324.368" y="560.468"/>
      <point x="302.599" y="518.135"/>
      <point x="283" y="481" type="curve"/>
      <point x="455" y="18" type="line"/>
      <point x="504" y="18" type="line"/>
      <point x="504" y="0" type="line"/>
      <point x="300" y="0" type="line"/>
      <point x="300" y="18" type="line"/>
      <point x="351" y="18" type="line"/>
      <point x="226" y="355" type="line"/>
      <point x="212.33" y="315.234"/>
      <point x="199.676" y="277.405"/>
      <point x="188" y="238" type="curve"/>
      <point x="207.02" y="229.049"/>
      <point x="227" y="211.847"/>
      <point x="227" y="186" type="curve" smooth="yes"/>
      <point x="227" y="154.591"/>
      <point x="198.901" y="134"/>
      <point x="168" y="134" type="curve" smooth="yes"/>
      <point x="162" y="134" type="line"/>
      <point x="162" y="83.3405"/>
      <point x="180.243" y="18"/>
      <point x="226" y="18" type="curve" smooth="yes"/>
      <point x="243" y="18" type="line"/>
      <point x="243" y="0" type="line"/>
      <point x="32" y="0" type="line"/>
      <point x="32" y="18" type="line"/>
      <point x="51" y="18" type="line" smooth="yes"/>
      <point x="75.5358" y="18"/>
      <point x="92.0376" y="41.0599"/>
      <point x="103" y="58.5" type="curve" smooth="yes"/>
      <point x="117.306" y="81.259"/>
      <point x="130.439" y="112.598"/>
      <point x="141" y="139" type="curve"/>
      <point x="118.303" y="146.944"/>
      <point x="95" y="164.454"/>
      <point x="95" y="193" type="curve" smooth="yes"/>
      <point x="95" y="225.317"/>
      <point x="122.524" y="245"/>
      <point x="154" y="245" type="curve" smooth="yes"/>
      <point x="162" y="245" type="line" smooth="yes"/>
      <point x="164.667" y="245"/>
      <point x="167.333" y="244.667"/>
    </contour>
  </outline>
</glyph>
<glyph name="afii10040" format="2">
  <advance width="529"/>
  <unicode hex="0426"/>
  <anchor x="381" y="716" name="Yerok"/>
  <anchor x="250" y="716" name="Diacritic"/>
  <outline>
    <contour>
      <point x="246" y="-212" type="curve" smooth="yes"/>
      <point x="232.521" y="-212"/>
      <point x="224.332" y="-210.832"/>
      <point x="215" y="-205" type="curve" smooth="yes"/>
      <point x="87" y="-111" type="line"/>
      <point x="36" y="-156" type="line"/>
      <point x="24" y="-142" type="line"/>
      <point x="118" y="-58" type="line" smooth="yes"/>
      <point x="124.667" y="-52"/>
      <point x="132.667" y="-49"/>
      <point x="142" y="-49" type="curve" smooth="yes"/>
      <point x="151.929" y="-49"/>
      <point x="156.534" y="-52.1204"/>
      <point x="163" y="-56" type="curve" smooth="yes"/>
      <point x="316" y="-168" type="line"/>
      <point x="349" y="-154" type="line" smooth="yes"/>
      <point x="373.758" y="-144.097"/>
      <point x="375" y="-135.192"/>
      <point x="375" y="-104" type="curve" smooth="yes"/>
      <point x="375" y="0" type="line"/>
      <point x="30" y="0" type="line"/>
      <point x="30" y="18" type="line"/>
      <point x="80" y="18" type="line"/>
      <point x="80" y="645" type="line"/>
      <point x="30" y="645" type="line"/>
      <point x="30" y="663" type="line"/>
      <point x="230" y="663" type="line"/>
      <point x="230" y="645" type="line"/>
      <point x="180" y="645" type="line"/>
      <point x="180" y="18" type="line"/>
      <point x="325" y="18" type="line"/>
      <point x="325" y="645" type="line"/>
      <point x="275" y="645" type="line"/>
      <point x="275" y="663" type="line"/>
      <point x="475" y="663" type="line"/>
      <point x="475" y="645" type="line"/>
      <point x="425" y="645" type="line"/>
      <point x="425" y="18" type="line"/>
      <point x="475" y="18" type="line"/>
      <point x="475" y="-123" type="line"/>
      <point x="273" y="-203" type="line" smooth="yes"/>
      <point x="266.055" y="-205.778"/>
      <point x="256.139" y="-212"/>
    </contour>
  </outline>
</glyph>
<glyph name="afii10041" format="2">
  <advance width="480"/>
  <unicode hex="0427"/>
  <anchor x="335" y="716" name="Yerok"/>
  <anchor x="231" y="716" name="Diacritic"/>
  <outline>
    <contour>
      <point x="387" y="291" type="line"/>
      <point x="414.34" y="281.491"/>
      <point x="438" y="263.908"/>
      <point x="438" y="229" type="curve" smooth="yes"/>
      <point x="438" y="196.173"/>
      <point x="415.039" y="180.095"/>
      <point x="387" y="174" type="curve"/>
      <point x="387" y="18" type="line"/>
      <point x="437" y="18" type="line"/>
      <point x="437" y="0" type="line"/>
      <point x="237" y="0" type="line"/>
      <point x="237" y="18" type="line"/>
      <point x="287" y="18" type="line"/>
      <point x="287" y="172" type="line"/>
      <point x="255.17" y="178.121"/>
      <point x="227" y="192.239"/>
      <point x="227" y="229" type="curve" smooth="yes"/>
      <point x="227" y="267.478"/>
      <point x="255.514" y="285.523"/>
      <point x="287" y="294" type="curve"/>
      <point x="287" y="344" type="line"/>
      <point x="161" y="400" type="line" smooth="yes"/>
      <point x="116.031" y="420.118"/>
      <point x="77" y="457.476"/>
      <point x="77" y="519" type="curve" smooth="yes"/>
      <point x="77" y="645" type="line"/>
      <point x="27" y="645" type="line"/>
      <point x="27" y="663" type="line"/>
      <point x="217" y="663" type="line"/>
      <point x="217" y="645" type="line"/>
      <point x="177" y="645" type="line"/>
      <point x="177" y="498" type="line" smooth="yes"/>
      <point x="177" y="440.96"/>
      <point x="194.298" y="404.301"/>
      <point x="237" y="386" type="curve" smooth="yes"/>
      <point x="287" y="364" type="line"/>
      <point x="287" y="645" type="line"/>
      <point x="247" y="645" type="line"/>
      <point x="247" y="663" type="line"/>
      <point x="437" y="663" type="line"/>
      <point x="437" y="645" type="line"/>
      <point x="387" y="645" type="line"/>
    </contour>
  </outline>
</glyph>
<glyph name="afii10042" format="2">
  <advance width="750"/>
  <unicode hex="0428"/>
  <anchor x="615" y="716" name="Yerok"/>
  <anchor x="375" y="716" name="Diacritic"/>
  <outline>
    <contour>
      <point x="475" y="645" type="line"/>
      <point x="425" y="645" type="line"/>
      <point x="425" y="18" type="line"/>
      <point x="570" y="18" type="line"/>
      <point x="570" y="645" type="line"/>
      <point x="520" y="645" type="line"/>
      <point x="520" y="663" type="line"/>
      <point x="720" y="663" type="line"/>
      <point x="720" y="645" type="line"/>
      <point x="670" y="645" type="line"/>
      <point x="670" y="18" type="line"/>
      <point x="720" y="18" type="line"/>
      <point x="720" y="0" type="line"/>
      <point x="30" y="0" type="line"/>
      <point x="30" y="18" type="line"/>
      <point x="80" y="18" type="line"/>
      <point x="80" y="645" type="line"/>
      <point x="30" y="645" type="line"/>
      <point x="30" y="663" type="line"/>
      <point x="230" y="663" type="line"/>
      <point x="230" y="645" type="line"/>
      <point x="180" y="645" type="line"/>
      <point x="180" y="18" type="line"/>
      <point x="325" y="18" type="line"/>
      <point x="325" y="645" type="line"/>
      <point x="275" y="645" type="line"/>
      <point x="275" y="663" type="line"/>
      <point x="475" y="663" type="line"/>
    </contour>
  </outline>
</glyph>
<glyph name="afii10043" format="2">
  <advance width="750"/>
  <unicode hex="0429"/>
  <anchor x="621" y="716" name="Yerok"/>
  <anchor x="372" y="716" name="Diacritic"/>
  <outline>
    <contour>
      <point x="475" y="645" type="line"/>
      <point x="425" y="645" type="line"/>
      <point x="425" y="18" type="line"/>
      <point x="570" y="18" type="line"/>
      <point x="570" y="645" type="line"/>
      <point x="520" y="645" type="line"/>
      <point x="520" y="663" type="line"/>
      <point x="720" y="663" type="line"/>
      <point x="720" y="645" type="line"/>
      <point x="670" y="645" type="line"/>
      <point x="670" y="18" type="line"/>
      <point x="720" y="18" type="line"/>
      <point x="720" y="0" type="line"/>
      <point x="389" y="0" type="line"/>
      <point x="389" y="-14" type="line" smooth="yes"/>
      <point x="389" y="-78.87"/>
      <point x="421.713" y="-119.59"/>
      <point x="472" y="-133" type="curve" smooth="yes"/>
      <point x="479.333" y="-135"/>
      <point x="483" y="-138.333"/>
      <point x="483" y="-143" type="curve" smooth="yes"/>
      <point x="483" y="-148.333"/>
      <point x="479.333" y="-151.667"/>
      <point x="472" y="-153" type="curve" smooth="yes"/>
      <point x="438.067" y="-159.787"/>
      <point x="414.151" y="-190.221"/>
      <point x="398.5" y="-216" type="curve" smooth="yes"/>
      <point x="392.833" y="-225.333"/>
      <point x="389" y="-234"/>
      <point x="387" y="-242" type="curve" smooth="yes"/>
      <point x="384.448" y="-249.656"/>
      <point x="383.46" y="-253.59"/>
      <point x="375" y="-255" type="curve" smooth="yes"/>
      <point x="366.541" y="-253.59"/>
      <point x="365.552" y="-249.655"/>
      <point x="363" y="-242" type="curve" smooth="yes"/>
      <point x="355.393" y="-211.571"/>
      <point x="330.061" y="-182.472"/>
      <point x="307" y="-166" type="curve" smooth="yes"/>
      <point x="297.667" y="-159.333"/>
      <point x="288" y="-155"/>
      <point x="278" y="-153" type="curve" smooth="yes"/>
      <point x="271.993" y="-151.999"/>
      <point x="267" y="-148.765"/>
      <point x="267" y="-143" type="curve" smooth="yes"/>
      <point x="267" y="-138.333"/>
      <point x="270.667" y="-135"/>
      <point x="278" y="-133" type="curve" smooth="yes"/>
      <point x="328.075" y="-119.647"/>
      <point x="361" y="-78.4237"/>
      <point x="361" y="-14" type="curve" smooth="yes"/>
      <point x="361" y="0" type="line"/>
      <point x="30" y="0" type="line"/>
      <point x="30" y="18" type="line"/>
      <point x="80" y="18" type="line"/>
      <point x="80" y="645" type="line"/>
      <point x="30" y="645" type="line"/>
      <point x="30" y="663" type="line"/>
      <point x="230" y="663" type="line"/>
      <point x="230" y="645" type="line"/>
      <point x="180" y="645" type="line"/>
      <point x="180" y="18" type="line"/>
      <point x="325" y="18" type="line"/>
      <point x="325" y="645" type="line"/>
      <point x="275" y="645" type="line"/>
      <point x="275" y="663" type="line"/>
      <point x="475" y="663" type="line"/>
    </contour>
  </outline>
</glyph>
<glyph name="afii10044" format="2">
  <advance width="512"/>
  <unicode hex="042A"/>
  <anchor x="345" y="716" name="Yerok"/>
  <anchor x="265" y="716" name="Diacritic"/>
  <outline>
    <contour>
      <point x="92" y="488" type="curve" smooth="yes"/>
      <point x="84.6519" y="559.031"/>
      <point x="75.4209" y="619.941"/>
      <point x="27" y="647" type="curve"/>
      <point x="27" y="663" type="line"/>
      <point x="417" y="663" type="line"/>
      <point x="417" y="645" type="line"/>
      <point x="378" y="645" type="line"/>
      <point x="279" y="308" type="line"/>
      <point x="432" y="308" type="line"/>
      <point x="432" y="290" type="line"/>
      <point x="378" y="290" type="line"/>
      <point x="450" y="18" type="line"/>
      <point x="487" y="18" type="line"/>
      <point x="487" y="0" type="line"/>
      <point x="47" y="0" type="line"/>
      <point x="47" y="18" type="line"/>
      <point x="86" y="18" type="line"/>
      <point x="271" y="645" type="line"/>
      <point x="182" y="645" type="line"/>
      <point x="103" y="487" type="line" smooth="yes"/>
      <point x="101.019" y="484.029"/>
      <point x="92" y="483.041"/>
    </contour>
    <contour>
      <point x="193" y="18" type="line"/>
      <point x="347" y="18" type="line"/>
      <point x="275" y="290" type="line"/>
      <point x="273" y="290" type="line"/>
    </contour>
  </outline>
</glyph>
<glyph name="afii10045" format="2">
  <advance width="680"/>
  <unicode hex="042B"/>
  <anchor x="345" y="716" name="Yerok"/>
  <anchor x="345" y="716" name="Diacritic"/>
  <outline>
    <contour>
      <point x="427" y="333" type="line"/>
      <point x="400" y="333" type="line"/>
      <point x="400" y="18" type="line"/>
      <point x="430" y="18" type="line"/>
      <point x="430" y="0" type="line"/>
      <point x="30" y="0" type="line"/>
      <point x="30" y="18" type="line"/>
      <point x="80" y="18" type="line"/>
      <point x="80" y="645" type="line"/>
      <point x="30" y="645" type="line"/>
      <point x="30" y="663" type="line"/>
      <point x="230" y="663" type="line"/>
      <point x="230" y="645" type="line"/>
      <point x="180" y="645" type="line"/>
      <point x="180" y="451" type="line"/>
      <point x="205.025" y="423.194"/>
      <point x="229.92" y="403.661"/>
      <point x="264" y="384" type="curve" smooth="yes"/>
      <point x="304.122" y="360.703"/>
      <point x="341.588" y="353.849"/>
      <point x="400" y="351" type="curve"/>
      <point x="427" y="351" type="line"/>
    </contour>
    <contour>
      <point x="650" y="0" type="line"/>
      <point x="450" y="0" type="line"/>
      <point x="450" y="18" type="line"/>
      <point x="500" y="18" type="line"/>
      <point x="500" y="645" type="line"/>
      <point x="450" y="645" type="line"/>
      <point x="450" y="663" type="line"/>
      <point x="650" y="663" type="line"/>
      <point x="650" y="645" type="line"/>
      <point x="600" y="645" type="line"/>
      <point x="600" y="18" type="line"/>
      <point x="650" y="18" type="line"/>
    </contour>
    <contour>
      <point x="300" y="348" type="line"/>
      <point x="252.933" y="365.115"/>
      <point x="209.583" y="393.431"/>
      <point x="180" y="424" type="curve"/>
      <point x="180" y="18" type="line"/>
      <point x="300" y="18" type="line"/>
    </contour>
  </outline>
</glyph>
<glyph name="uni042D" format="2">
  <advance width="487"/>
  <unicode hex="042D"/>
  <anchor x="365" y="716" name="Yerok"/>
  <anchor x="235" y="716" name="Diacritic"/>
  <outline>
    <contour>
      <point x="355.5" y="-1" type="curve"/>
      <point x="353.016" y="-4.72627"/>
      <point x="351.454" y="-8.04639"/>
      <point x="348.5" y="-11" type="curve" smooth="yes"/>
      <point x="332.5" y="-9.66699"/>
      <point x="313.833" y="-5.83301"/>
      <point x="292.5" y="0.5" type="curve" smooth="yes"/>
      <point x="243.375" y="15.0835"/>
      <point x="185.053" y="37.2051"/>
      <point x="150.5" y="66" type="curve" smooth="yes"/>
      <point x="113.031" y="97.2244"/>
      <point x="81.6521" y="137.035"/>
      <point x="72.5" y="195" type="curve"/>
      <point x="52.5" y="192" type="line"/>
      <point x="50.6556" y="193.844"/>
      <point x="44.5105" y="206.011"/>
      <point x="48.5" y="210" type="curve"/>
      <point x="196.5" y="237" type="line"/>
      <point x="201.308" y="234.115"/>
      <point x="205.774" y="224.274"/>
      <point x="200.5" y="219" type="curve"/>
      <point x="177.5" y="215" type="line"/>
      <point x="176.833" y="211"/>
      <point x="176.5" y="206.833"/>
      <point x="176.5" y="202.5" type="curve" smooth="yes"/>
      <point x="176.5" y="188" type="line"/>
      <point x="178.5" y="160.667"/>
      <point x="187.833" y="136.667"/>
      <point x="204.5" y="116" type="curve" smooth="yes"/>
      <point x="229.62" y="83.344"/>
      <point x="260.523" y="59.7041"/>
      <point x="300.5" y="44" type="curve"/>
      <point x="289.833" y="70.667"/>
      <point x="284.5" y="97.333"/>
      <point x="284.5" y="124" type="curve" smooth="yes"/>
      <point x="284.5" y="177.559"/>
      <point x="299.222" y="208.346"/>
      <point x="311.5" y="255" type="curve" smooth="yes"/>
      <point x="317.315" y="273.897"/>
      <point x="320.601" y="296.182"/>
      <point x="325.5" y="317" type="curve"/>
      <point x="319.819" y="351.081"/>
      <point x="302.682" y="386.969"/>
      <point x="284.5" y="410" type="curve" smooth="yes"/>
      <point x="272.062" y="425.831"/>
      <point x="248.147" y="445"/>
      <point x="221.5" y="445" type="curve" smooth="yes"/>
      <point x="190.462" y="445"/>
      <point x="165.5" y="414.554"/>
      <point x="165.5" y="381" type="curve" smooth="yes"/>
      <point x="165.5" y="361.667"/>
      <point x="166.833" y="346.667"/>
      <point x="169.5" y="336" type="curve"/>
      <point x="195.5" y="336" type="line"/>
      <point x="198.833" y="333.333"/>
      <point x="200.5" y="330.167"/>
      <point x="200.5" y="326.5" type="curve" smooth="yes"/>
      <point x="200.5" y="322.833"/>
      <point x="198.833" y="320"/>
      <point x="195.5" y="318" type="curve"/>
      <point x="37.5" y="318" type="line"/>
      <point x="33.4515" y="322.049"/>
      <point x="32.3376" y="332.129"/>
      <point x="37.5" y="336" type="curve"/>
      <point x="62.5" y="336" type="line"/>
      <point x="64.5" y="356" type="line" smooth="yes"/>
      <point x="71.4075" y="425.045"/>
      <point x="127.732" y="468"/>
      <point x="201.5" y="468" type="curve" smooth="yes"/>
      <point x="242.833" y="468"/>
      <point x="275.5" y="452.333"/>
      <point x="299.5" y="421" type="curve" smooth="yes"/>
      <point x="312.833" y="403"/>
      <point x="323.833" y="382.667"/>
      <point x="332.5" y="360" type="curve"/>
      <point x="337.353" y="391.542"/>
      <point x="340.5" y="423.694"/>
      <point x="340.5" y="458" type="curve" smooth="yes"/>
      <point x="340.5" y="543.754"/>
      <point x="327.941" y="657"/>
      <point x="242.5" y="657" type="curve" smooth="yes"/>
      <point x="227.167" y="657"/>
      <point x="214.333" y="654"/>
      <point x="204" y="648" type="curve" smooth="yes"/>
      <point x="177.292" y="632.492"/>
      <point x="169.5" y="584.201"/>
      <point x="169.5" y="542" type="curve"/>
      <point x="199.5" y="542" type="line"/>
      <point x="205.076" y="536.424"/>
      <point x="206.285" y="527.114"/>
      <point x="198.5" y="524" type="curve"/>
      <point x="41.5" y="524" type="line"/>
      <point x="36.9681" y="528.532"/>
      <point x="36.4319" y="538.359"/>
      <point x="42.5" y="542" type="curve"/>
      <point x="62.5" y="542" type="line"/>
      <point x="65.5975" y="571.434"/>
      <point x="71.6891" y="589.541"/>
      <point x="87.5" y="609" type="curve" smooth="yes"/>
      <point x="118.838" y="646.866"/>
      <point x="170.699" y="673"/>
      <point x="239.5" y="673" type="curve" smooth="yes"/>
      <point x="272.167" y="673"/>
      <point x="301.5" y="667.5"/>
      <point x="327.5" y="656.5" type="curve" smooth="yes"/>
      <point x="401.223" y="625.31"/>
      <point x="449.5" y="554.576"/>
      <point x="449.5" y="451" type="curve" smooth="yes"/>
      <point x="449.5" y="422.333"/>
      <point x="447.833" y="396.833"/>
      <point x="444.5" y="374.5" type="curve" smooth="yes"/>
      <point x="429.957" y="277.053"/>
      <point x="387.488" y="216.789"/>
      <point x="354" y="138" type="curve" smooth="yes"/>
      <point x="345.712" y="118.5"/>
      <point x="333.5" y="90.8453"/>
      <point x="333.5" y="68" type="curve" smooth="yes"/>
      <point x="333.5" y="37.0589"/>
      <point x="343.377" y="17.8567"/>
    </contour>
  </outline>
</glyph>
<glyph name="afii10048" format="2">
  <advance width="727"/>
  <unicode hex="042E"/>
  <anchor x="355" y="716" name="Yerok"/>
  <anchor x="357" y="716" name="Diacritic"/>
  <outline>
    <contour>
      <point x="180" y="645" type="line"/>
      <point x="180" y="328" type="line"/>
      <point x="286" y="367" type="line"/>
      <point x="287.495" y="447.749"/>
      <point x="323.363" y="515.119"/>
      <point x="363" y="563.5" type="curve" smooth="yes"/>
      <point x="403.091" y="612.435"/>
      <point x="459.78" y="657.569"/>
      <point x="527" y="674" type="curve" smooth="yes"/>
      <point x="531" y="672.667"/>
      <point x="533.667" y="669.667"/>
      <point x="535" y="665" type="curve" smooth="yes"/>
      <point x="547.106" y="595.39"/>
      <point x="584.163" y="556.181"/>
      <point x="619" y="507" type="curve" smooth="yes"/>
      <point x="639" y="478.333"/>
      <point x="655.333" y="449.167"/>
      <point x="668" y="419.5" type="curve" smooth="yes"/>
      <point x="680.667" y="389.833"/>
      <point x="687" y="354.333"/>
      <point x="687" y="313" type="curve" smooth="yes"/>
      <point x="687" y="227.865"/>
      <point x="648.657" y="157.031"/>
      <point x="608" y="106.5" type="curve" smooth="yes"/>
      <point x="566.718" y="55.192"/>
      <point x="507.496" y="8.49871"/>
      <point x="440" y="-11" type="curve"/>
      <point x="434.667" y="-7"/>
      <point x="431" y="-3.66667"/>
      <point x="429" y="-1" type="curve" smooth="yes"/>
      <point x="426.188" y="6.03084"/>
      <point x="423.813" y="7.96729"/>
      <point x="421" y="15" type="curve" smooth="yes"/>
      <point x="406.337" y="50.8432"/>
      <point x="388.804" y="74.3509"/>
      <point x="367" y="101" type="curve" smooth="yes"/>
      <point x="338.598" y="135.714"/>
      <point x="315.115" y="187.956"/>
      <point x="302.5" y="231.5" type="curve" smooth="yes"/>
      <point x="292.167" y="267.167"/>
      <point x="286.667" y="306"/>
      <point x="286" y="348" type="curve"/>
      <point x="180" y="309" type="line"/>
      <point x="180" y="18" type="line"/>
      <point x="230" y="18" type="line"/>
      <point x="230" y="0" type="line"/>
      <point x="30" y="0" type="line"/>
      <point x="30" y="18" type="line"/>
      <point x="80" y="18" type="line"/>
      <point x="80" y="645" type="line"/>
      <point x="30" y="645" type="line"/>
      <point x="30" y="663" type="line"/>
      <point x="230" y="663" type="line"/>
      <point x="230" y="645" type="line"/>
    </contour>
    <contour>
      <point x="576" y="260" type="curve" smooth="yes"/>
      <point x="576" y="325.067"/>
      <point x="555.763" y="393.063"/>
      <point x="536" y="440" type="curve" smooth="yes"/>
      <point x="516.286" y="486"/>
      <point x="504.496" y="525.021"/>
      <point x="495" y="582" type="curve" smooth="yes"/>
      <point x="493.759" y="589.445"/>
      <point x="493" y="598.574"/>
      <point x="493" y="607" type="curve" smooth="yes"/>
      <point x="493" y="622.599"/>
      <point x="495.218" y="635.482"/>
      <point x="498" y="648" type="curve"/>
      <point x="493" y="647" type="line"/>
      <point x="439.71" y="613.694"/>
      <point x="409.437" y="539.904"/>
      <point x="395.5" y="466.5" type="curve" smooth="yes"/>
      <point x="390.5" y="440.167"/>
      <point x="388" y="414.333"/>
      <point x="388" y="389" type="curve" smooth="yes"/>
      <point x="388" y="310.272"/>
      <point x="404.543" y="251.44"/>
      <point x="433" y="197" type="curve" smooth="yes"/>
      <point x="462.865" y="140.716"/>
      <point x="474.573" y="96.9715"/>
      <point x="478" y="25" type="curve"/>
      <point x="484" y="26" type="line"/>
      <point x="542.435" y="70.4611"/>
      <point x="576" y="159.147"/>
    </contour>
  </outline>
</glyph>
<glyph name="afii10065" format="2">
  <advance width="349"/>
  <unicode hex="0430"/>
  <anchor x="266" y="557" name="Yerok"/>
  <anchor x="227" y="556" name="Diacritic"/>
  <outline>
    <contour>
      <point x="286" y="435" type="curve" smooth="yes"/>
      <point x="281.675" y="403.286"/>
      <point x="278" y="369.552"/>
      <point x="278" y="332" type="curve" smooth="yes"/>
      <point x="278" y="217.174"/>
      <point x="289.287" y="97.4236"/>
      <point x="307" y="0" type="curve"/>
      <point x="289" y="-2"/>
      <point x="271" y="-3"/>
      <point x="253" y="-3" type="curve" smooth="yes"/>
      <point x="237" y="-3"/>
      <point x="222.667" y="-2"/>
      <point x="210" y="0" type="curve"/>
      <point x="203.618" y="45.9539"/>
      <point x="200.328" y="83.8352"/>
      <point x="196" y="130" type="curve"/>
      <point x="171.303" y="97.0711"/>
      <point x="146.217" y="46.5634"/>
      <point x="138" y="0" type="curve"/>
      <point x="124.029" y="-6.35028"/>
      <point x="106.775" y="-7"/>
      <point x="87" y="-7" type="curve" smooth="yes"/>
      <point x="71.6993" y="-7"/>
      <point x="60.7512" y="-3.91707"/>
      <point x="49" y="0" type="curve"/>
      <point x="47.6667" y="3.33333"/>
      <point x="47" y="6"/>
      <point x="47" y="8" type="curve" smooth="yes"/>
      <point x="47" y="17" type="line"/>
      <point x="51.4864" y="61.8639"/>
      <point x="65.2639" y="110.16"/>
      <point x="80" y="147" type="curve" smooth="yes"/>
      <point x="107.009" y="218.574"/>
      <point x="143.709" y="299.417"/>
      <point x="177" y="366" type="curve"/>
      <point x="176" y="432" type="line"/>
      <point x="206.251" y="434.327"/>
      <point x="253.619" y="438.162"/>
      <point x="282" y="441" type="curve" smooth="yes"/>
      <point x="284.667" y="441"/>
      <point x="286" y="439"/>
    </contour>
    <contour>
      <point x="91" y="108" type="curve" smooth="yes"/>
      <point x="94.8226" y="97.8063"/>
      <point x="107.255" y="91"/>
      <point x="121" y="91" type="curve" smooth="yes"/>
      <point x="145.947" y="91"/>
      <point x="153.215" y="101.863"/>
      <point x="164" y="116.5" type="curve" smooth="yes"/>
      <point x="175.733" y="132.424"/>
      <point x="188.568" y="152.839"/>
      <point x="193" y="175" type="curve"/>
      <point x="190.149" y="199.236"/>
      <point x="190.534" y="222.663"/>
      <point x="188" y="248" type="curve"/>
      <point x="183" y="338" type="line"/>
      <point x="152.057" y="276.115"/>
      <point x="120.564" y="207.868"/>
      <point x="96" y="141" type="curve" smooth="yes"/>
      <point x="93.0025" y="131.008"/>
      <point x="91" y="118.838"/>
    </contour>
  </outline>
</glyph>
<glyph name="afii10066" format="2">
  <advance width="386"/>
  <unicode hex="0431"/>
  <anchor x="285" y="557" name="Yerok"/>
  <anchor x="201" y="556" name="Diacritic"/>
  <outline>
    <contour>
      <point x="226" y="219" type="line" smooth="yes"/>
      <point x="228" y="221.667"/>
      <point x="231" y="223"/>
      <point x="235" y="223" type="curve" smooth="yes"/>
      <point x="237.667" y="223"/>
      <point x="240" y="222"/>
      <point x="242" y="220" type="curve" smooth="yes"/>
      <point x="279.936" y="170.683"/>
      <point x="313.608" y="101.336"/>
      <point x="338" y="39" type="curve" smooth="yes"/>
      <point x="342.608" y="28.633"/>
      <point x="345" y="13.9875"/>
      <point x="345" y="0" type="curve"/>
      <point x="46" y="0" type="line"/>
      <point x="46" y="127.594"/>
      <point x="55.9709" y="264.098"/>
      <point x="60" y="389" type="curve" smooth="yes"/>
      <point x="60.6667" y="409.667"/>
      <point x="61.3333" y="425.667"/>
      <point x="62" y="437" type="curve"/>
      <point x="332" y="437" type="line" smooth="yes"/>
      <point x="337.333" y="437"/>
      <point x="340" y="435"/>
      <point x="340" y="431" type="curve" smooth="yes"/>
      <point x="340" y="427"/>
      <point x="338.667" y="423.667"/>
      <point x="336" y="421" type="curve" smooth="yes"/>
      <point x="314.752" y="395.279"/>
      <point x="290.161" y="346.117"/>
      <point x="281" y="311" type="curve" smooth="yes"/>
      <point x="280.333" y="307.667"/>
      <point x="277.667" y="306"/>
      <point x="273" y="306" type="curve" smooth="yes"/>
      <point x="256.99" y="306"/>
      <point x="251.827" y="330.573"/>
      <point x="249" y="344" type="curve" smooth="yes"/>
      <point x="243.872" y="368.613"/>
      <point x="241.644" y="399.889"/>
      <point x="234" y="419" type="curve"/>
      <point x="159" y="419" type="line"/>
      <point x="154.167" y="394.837"/>
      <point x="153.963" y="359.176"/>
      <point x="152.5" y="326.5" type="curve" smooth="yes"/>
      <point x="150.408" y="279.789"/>
      <point x="148.255" y="225.937"/>
      <point x="147" y="177" type="curve"/>
      <point x="171.171" y="183.043"/>
      <point x="179.294" y="188.353"/>
      <point x="200" y="200" type="curve"/>
    </contour>
    <contour>
      <point x="249" y="18" type="line"/>
      <point x="232.003" y="68.9922"/>
      <point x="202.521" y="123.226"/>
      <point x="170" y="159" type="curve" smooth="yes"/>
      <point x="168" y="161.667"/>
      <point x="165" y="163"/>
      <point x="161" y="163" type="curve" smooth="yes"/>
      <point x="155" y="159.667"/>
      <point x="150" y="157.667"/>
      <point x="146" y="157" type="curve"/>
      <point x="145.333" y="140.333"/>
      <point x="145" y="124.5"/>
      <point x="145" y="109.5" type="curve" smooth="yes"/>
      <point x="145" y="40.5" type="line" smooth="yes"/>
      <point x="145" y="32.1667"/>
      <point x="145.333" y="24.6667"/>
      <point x="146" y="18" type="curve"/>
    </contour>
  </outline>
</glyph>
<glyph name="afii10067" format="2">
  <advance width="380"/>
  <unicode hex="0432"/>
  <anchor x="296" y="557" name="Yerok"/>
  <anchor x="201" y="556" name="Diacritic"/>
  <outline>
    <contour>
      <point x="189" y="260" type="line"/>
      <point x="208.766" y="265.271"/>
      <point x="238.497" y="269.205"/>
      <point x="260" y="273" type="curve"/>
      <point x="276.331" y="251.226"/>
      <point x="289.385" y="215.877"/>
      <point x="300" y="183.5" type="curve" smooth="yes"/>
      <point x="313.633" y="141.919"/>
      <point x="327.78" y="91.9904"/>
      <point x="338" y="46" type="curve" smooth="yes"/>
      <point x="341.396" y="32.4158"/>
      <point x="342.41" y="14.3137"/>
      <point x="344" y="0" type="curve"/>
      <point x="41" y="0" type="line"/>
      <point x="43.1643" y="116.87"/>
      <point x="50.904" y="249.473"/>
      <point x="62.5" y="357" type="curve" smooth="yes"/>
      <point x="66.1667" y="391"/>
      <point x="70" y="417.667"/>
      <point x="74" y="437" type="curve"/>
      <point x="312" y="437" type="line" smooth="yes"/>
      <point x="318.667" y="437"/>
      <point x="322" y="434.333"/>
      <point x="322" y="429" type="curve" smooth="yes"/>
      <point x="322" y="426.333"/>
      <point x="321" y="423.667"/>
      <point x="319" y="421" type="curve" smooth="yes"/>
    </contour>
    <contour>
      <point x="242" y="18" type="line"/>
      <point x="239.566" y="76.4155"/>
      <point x="222.999" y="132.001"/>
      <point x="205" y="177" type="curve" smooth="yes"/>
      <point x="198.333" y="193.667"/>
      <point x="191.333" y="208"/>
      <point x="184" y="220" type="curve" smooth="yes"/>
      <point x="176.72" y="224.854"/>
      <point x="174.762" y="230.895"/>
      <point x="167" y="234" type="curve"/>
      <point x="144" y="210" type="line"/>
      <point x="139.71" y="146.721"/>
      <point x="137" y="77.2846"/>
      <point x="137" y="18" type="curve"/>
    </contour>
    <contour>
      <point x="165" y="248" type="line"/>
      <point x="203.533" y="299.378"/>
      <point x="236.402" y="361.883"/>
      <point x="270" y="419" type="curve"/>
      <point x="171" y="419" type="line"/>
      <point x="157.716" y="369.185"/>
      <point x="151.466" y="291.404"/>
      <point x="146" y="228" type="curve"/>
    </contour>
  </outline>
</glyph>
<glyph name="afii10069" format="2">
  <advance width="425"/>
  <unicode hex="0434"/>
  <anchor x="303" y="557" name="Yerok"/>
  <anchor x="211" y="556" name="Diacritic"/>
  <outline>
    <contour>
      <point x="380" y="18" type="line" smooth="yes"/>
      <point x="389.164" y="18"/>
      <point x="394" y="14.1325"/>
      <point x="394" y="6" type="curve" smooth="yes"/>
      <point x="394" y="3.33333"/>
      <point x="392.667" y="-0.666667"/>
      <point x="390" y="-6" type="curve" smooth="yes"/>
      <point x="373.958" y="-29.3345"/>
      <point x="359.97" y="-63.1741"/>
      <point x="348" y="-92.5" type="curve" smooth="yes"/>
      <point x="336.429" y="-120.848"/>
      <point x="325.752" y="-155.541"/>
      <point x="318" y="-185" type="curve" smooth="yes"/>
      <point x="316.667" y="-188.333"/>
      <point x="314.333" y="-190"/>
      <point x="311" y="-190" type="curve" smooth="yes"/>
      <point x="307" y="-190"/>
      <point x="305" y="-188.333"/>
      <point x="305" y="-185" type="curve" smooth="yes"/>
      <point x="295.985" y="-127.907"/>
      <point x="304.241" y="-48.6421"/>
      <point x="286" y="0" type="curve"/>
      <point x="130" y="0" type="line"/>
      <point x="118.572" y="-39.9971"/>
      <point x="112.345" y="-98.0689"/>
      <point x="107" y="-143.5" type="curve" smooth="yes"/>
      <point x="105.052" y="-160.055"/>
      <point x="106.884" y="-189"/>
      <point x="96" y="-189" type="curve" smooth="yes"/>
      <point x="92" y="-189"/>
      <point x="90" y="-187.333"/>
      <point x="90" y="-184" type="curve" smooth="yes"/>
      <point x="76.7332" y="-122.088"/>
      <point x="61.0997" y="-51.1995"/>
      <point x="36" y="-1" type="curve" smooth="yes"/>
      <point x="34.7097" y="1.58066"/>
      <point x="33" y="6.0913"/>
      <point x="33" y="10" type="curve" smooth="yes"/>
      <point x="33" y="15.3333"/>
      <point x="35.3333" y="18"/>
      <point x="40" y="18" type="curve" smooth="yes"/>
      <point x="109" y="18" type="line"/>
      <point x="124.367" y="75.627"/>
      <point x="143.806" y="123.118"/>
      <point x="163" y="177.5" type="curve" smooth="yes"/>
      <point x="169" y="194.5"/>
      <point x="174" y="213.667"/>
      <point x="178" y="235" type="curve"/>
      <point x="173.813" y="295.717"/>
      <point x="177.934" y="368.495"/>
      <point x="170" y="428" type="curve"/>
      <point x="208.536" y="432.129"/>
      <point x="242.607" y="435.135"/>
      <point x="278" y="443" type="curve" smooth="yes"/>
      <point x="280.667" y="443"/>
      <point x="282" y="441"/>
      <point x="282" y="437" type="curve" smooth="yes"/>
      <point x="282" y="435"/>
      <point x="281.333" y="432"/>
      <point x="280" y="428" type="curve" smooth="yes"/>
      <point x="271.241" y="406.727"/>
      <point x="270" y="376.375"/>
      <point x="270" y="347" type="curve" smooth="yes"/>
      <point x="270" y="220.392"/>
      <point x="287.201" y="115.068"/>
      <point x="322" y="25" type="curve" smooth="yes"/>
      <point x="322.667" y="23"/>
      <point x="323.667" y="20.6667"/>
      <point x="325" y="18" type="curve"/>
    </contour>
    <contour>
      <point x="186" y="178" type="line"/>
      <point x="160.352" y="130.367"/>
      <point x="142.324" y="75.7377"/>
      <point x="129" y="18" type="curve"/>
      <point x="234" y="18" type="line"/>
    </contour>
  </outline>
</glyph>
<glyph name="afii10070" format="2">
  <advance width="274"/>
  <unicode hex="0435"/>
  <anchor x="192" y="557" name="Yerok"/>
  <anchor x="141" y="556" name="Diacritic"/>
  <outline>
    <contour>
      <point x="58" y="7" type="curve" smooth="yes"/>
      <point x="62.0353" y="36.5925"/>
      <point x="65" y="58.7946"/>
      <point x="65" y="92" type="curve" smooth="yes"/>
      <point x="65" y="152.112"/>
      <point x="55" y="203.91"/>
      <point x="55" y="266" type="curve" smooth="yes"/>
      <point x="55" y="323.333"/>
      <point x="70" y="368"/>
      <point x="100" y="400" type="curve" smooth="yes"/>
      <point x="120.62" y="421.995"/>
      <point x="164.583" y="443.49"/>
      <point x="206" y="446" type="curve" smooth="yes"/>
      <point x="220.258" y="446"/>
      <point x="230" y="444.354"/>
      <point x="230" y="429" type="curve" smooth="yes"/>
      <point x="230" y="420" type="line" smooth="yes"/>
      <point x="230" y="416.51"/>
      <point x="230.044" y="412.833"/>
      <point x="230.044" y="409.107" type="curve" smooth="yes"/>
      <point x="230.044" y="390.596"/>
      <point x="228.958" y="370.888"/>
      <point x="216" y="367" type="curve" smooth="yes"/>
      <point x="207.333" y="364.333"/>
      <point x="200.167" y="363"/>
      <point x="194.5" y="363" type="curve" smooth="yes"/>
      <point x="166.633" y="363"/>
      <point x="139" y="336.729"/>
      <point x="139" y="310" type="curve" smooth="yes"/>
      <point x="139" y="257" type="line"/>
      <point x="151.644" y="269.644"/>
      <point x="177.638" y="285.011"/>
      <point x="198" y="291" type="curve" smooth="yes"/>
      <point x="201.333" y="292.333"/>
      <point x="204.333" y="293"/>
      <point x="207" y="293" type="curve" smooth="yes"/>
      <point x="216" y="293" type="line" smooth="yes"/>
      <point x="219.333" y="293"/>
      <point x="221" y="291.333"/>
      <point x="221" y="288" type="curve" smooth="yes"/>
      <point x="221" y="270.122"/>
      <point x="219.254" y="233.301"/>
      <point x="218" y="217" type="curve" smooth="yes"/>
      <point x="218" y="212.333"/>
      <point x="215.333" y="209"/>
      <point x="210" y="207" type="curve" smooth="yes"/>
      <point x="166.695" y="192.114"/>
      <point x="147.299" y="165.154"/>
      <point x="138" y="116" type="curve" smooth="yes"/>
      <point x="138" y="104.034"/>
      <point x="139" y="90.4989"/>
      <point x="139" y="80" type="curve"/>
      <point x="140.333" y="80.6667"/>
      <point x="141.667" y="81"/>
      <point x="143" y="81" type="curve" smooth="yes"/>
      <point x="159.235" y="81"/>
      <point x="173.926" y="92.0968"/>
      <point x="181.5" y="100" type="curve" smooth="yes"/>
      <point x="189.167" y="108"/>
      <point x="196.667" y="115.333"/>
      <point x="204" y="122" type="curve"/>
      <point x="208" y="122"/>
      <point x="210.667" y="121"/>
      <point x="212" y="119" type="curve"/>
      <point x="212" y="104" type="line" smooth="yes"/>
      <point x="212" y="89.3333"/>
      <point x="211" y="76.6667"/>
      <point x="209" y="66" type="curve"/>
      <point x="184.536" y="29.9485"/>
      <point x="136.082" y="-7.65722"/>
      <point x="77" y="-9" type="curve" smooth="yes"/>
      <point x="68.579" y="-9"/>
      <point x="58" y="-1.79936"/>
    </contour>
  </outline>
</glyph>
<glyph name="afii10072" format="2">
  <advance width="635"/>
  <unicode hex="0436"/>
  <anchor x="534" y="557" name="Yerok"/>
  <anchor x="330" y="556" name="Diacritic"/>
  <outline>
    <contour>
      <point x="487" y="369" type="curve"/>
      <point x="436.264" y="366.694"/>
      <point x="398.503" y="341.503"/>
      <point x="370" y="313" type="curve"/>
      <point x="370" y="312" type="line"/>
      <point x="470.228" y="245.181"/>
      <point x="553.149" y="161.375"/>
      <point x="591" y="31" type="curve" smooth="yes"/>
      <point x="593.577" y="23.268"/>
      <point x="596" y="10.3852"/>
      <point x="596" y="0" type="curve"/>
      <point x="589.132" y="-2.74735"/>
      <point x="573.212" y="-3.01585"/>
      <point x="560.511" y="-3.01585" type="curve" smooth="yes"/>
      <point x="557.426" y="-3.01585"/>
      <point x="554.53" y="-3"/>
      <point x="552" y="-3" type="curve" smooth="yes"/>
      <point x="531.404" y="-3"/>
      <point x="503.489" y="-2.99809"/>
      <point x="487" y="0" type="curve"/>
      <point x="485.486" y="4.54126"/>
      <point x="485" y="7.63682"/>
      <point x="485" y="14" type="curve" smooth="yes"/>
      <point x="485" y="18"/>
      <point x="486" y="22"/>
      <point x="486" y="26" type="curve" smooth="yes"/>
      <point x="471.237" y="118.606"/>
      <point x="425.828" y="191.057"/>
      <point x="368" y="241" type="curve"/>
      <point x="368" y="196" type="line" smooth="yes"/>
      <point x="368" y="127.785"/>
      <point x="370.792" y="59.347"/>
      <point x="374" y="0" type="curve"/>
      <point x="354.667" y="-2"/>
      <point x="335.333" y="-3"/>
      <point x="316" y="-3" type="curve" smooth="yes"/>
      <point x="298" y="-3"/>
      <point x="281" y="-2"/>
      <point x="265" y="0" type="curve"/>
      <point x="268.141" y="80.0849"/>
      <point x="271.66" y="167.26"/>
      <point x="274" y="255" type="curve"/>
      <point x="218.073" y="195.345"/>
      <point x="170.537" y="127.449"/>
      <point x="162" y="25" type="curve"/>
      <point x="162" y="12.5" type="line" smooth="yes"/>
      <point x="162" y="8.83333"/>
      <point x="161.667" y="4.66667"/>
      <point x="161" y="0" type="curve"/>
      <point x="145.045" y="-2.9009"/>
      <point x="117.762" y="-3"/>
      <point x="98" y="-3" type="curve" smooth="yes"/>
      <point x="81.2402" y="-3"/>
      <point x="62.1231" y="-2.91625"/>
      <point x="49" y="0" type="curve"/>
      <point x="49" y="7.47916"/>
      <point x="49.5591" y="22.1183"/>
      <point x="52" y="27" type="curve" smooth="yes"/>
      <point x="88.4673" y="118.168"/>
      <point x="131.352" y="177.548"/>
      <point x="203" y="232" type="curve" smooth="yes"/>
      <point x="224.723" y="248.51"/>
      <point x="249.115" y="270.528"/>
      <point x="275" y="287" type="curve"/>
      <point x="275" y="289" type="line"/>
      <point x="253" y="302.333"/>
      <point x="232.333" y="315"/>
      <point x="213" y="327" type="curve" smooth="yes"/>
      <point x="193.667" y="339"/>
      <point x="179.333" y="346.667"/>
      <point x="170" y="350" type="curve" smooth="yes"/>
      <point x="167.333" y="351.333"/>
      <point x="165" y="352"/>
      <point x="163" y="352" type="curve" smooth="yes"/>
      <point x="161" y="352"/>
      <point x="158" y="351.333"/>
      <point x="154" y="350" type="curve"/>
      <point x="154" y="325.5" type="line" smooth="yes"/>
      <point x="154" y="304.942"/>
      <point x="155" y="279.697"/>
      <point x="155" y="259" type="curve" smooth="yes"/>
      <point x="155" y="234" type="line"/>
      <point x="138.988" y="231.537"/>
      <point x="122.585" y="230"/>
      <point x="105" y="230" type="curve" smooth="yes"/>
      <point x="89" y="230" type="line" smooth="yes"/>
      <point x="83.6667" y="230"/>
      <point x="78.6667" y="230.667"/>
      <point x="74" y="232" type="curve"/>
      <point x="71.0412" y="267.506"/>
      <point x="71" y="313.503"/>
      <point x="71" y="354" type="curve" smooth="yes"/>
      <point x="71" y="427" type="line"/>
      <point x="72.3333" y="433.667"/>
      <point x="75.3333" y="437"/>
      <point x="80" y="437" type="curve" smooth="yes"/>
      <point x="84" y="437.667"/>
      <point x="90.3333" y="438"/>
      <point x="99" y="438" type="curve" smooth="yes"/>
      <point x="148" y="438" type="line" smooth="yes"/>
      <point x="154.667" y="438"/>
      <point x="160.333" y="437.667"/>
      <point x="165" y="437" type="curve" smooth="yes"/>
      <point x="200.162" y="414.068"/>
      <point x="240.829" y="385.964"/>
      <point x="276" y="359" type="curve"/>
      <point x="276.667" y="372.333"/>
      <point x="277" y="385.333"/>
      <point x="277" y="398" type="curve" smooth="yes"/>
      <point x="277" y="434" type="line"/>
      <point x="298.439" y="439.044"/>
      <point x="326.961" y="441"/>
      <point x="353" y="441" type="curve" smooth="yes"/>
      <point x="368.5" y="441" type="line" smooth="yes"/>
      <point x="373.5" y="441"/>
      <point x="378.333" y="440.667"/>
      <point x="383" y="440" type="curve"/>
      <point x="379.909" y="409.094"/>
      <point x="375.544" y="376.077"/>
      <point x="372" y="343" type="curve"/>
      <point x="401.712" y="372.712"/>
      <point x="435.65" y="402.931"/>
      <point x="472" y="428" type="curve"/>
      <point x="507.351" y="440.152"/>
      <point x="547.948" y="441.215"/>
      <point x="589" y="443" type="curve" smooth="yes"/>
      <point x="593.667" y="443"/>
      <point x="596" y="440.333"/>
      <point x="596" y="435" type="curve" smooth="yes"/>
      <point x="596" y="433.424"/>
      <point x="592.813" y="428.813"/>
      <point x="592" y="428" type="curve" smooth="yes"/>
      <point x="571.474" y="406.008"/>
      <point x="557.094" y="386.355"/>
      <point x="555.5" y="346.5" type="curve" smooth="yes"/>
      <point x="555.167" y="338.167"/>
      <point x="555" y="330.333"/>
      <point x="555" y="323" type="curve" smooth="yes"/>
      <point x="555" y="316.228"/>
      <point x="556" y="310.773"/>
      <point x="556" y="304" type="curve" smooth="yes"/>
      <point x="556" y="300.667"/>
      <point x="554.333" y="299"/>
      <point x="551" y="299" type="curve" smooth="yes"/>
      <point x="549.667" y="299"/>
      <point x="548" y="300"/>
      <point x="546" y="302" type="curve" smooth="yes"/>
      <point x="528.211" y="324.871"/>
      <point x="507.606" y="349.768"/>
    </contour>
  </outline>
</glyph>
<glyph name="afii10073" format="2">
  <advance width="518"/>
  <unicode hex="0437"/>
  <anchor x="416" y="557" name="Yerok"/>
  <anchor x="267" y="556" name="Diacritic"/>
  <outline>
    <contour>
      <point x="13" y="-71" type="curve" smooth="yes"/>
      <point x="51.5494" y="-65.6828"/>
      <point x="108.939" y="-57.4123"/>
      <point x="146" y="-50" type="curve"/>
      <point x="168.683" y="-87.2647"/>
      <point x="182.121" y="-118.541"/>
      <point x="216" y="-150" type="curve"/>
      <point x="240.965" y="-163.731"/>
      <point x="261.603" y="-175"/>
      <point x="298" y="-175" type="curve" smooth="yes"/>
      <point x="346.69" y="-175"/>
      <point x="382.725" y="-143.955"/>
      <point x="399" y="-110.5" type="curve" smooth="yes"/>
      <point x="405" y="-98.1667"/>
      <point x="408" y="-85.3333"/>
      <point x="408" y="-72" type="curve" smooth="yes"/>
      <point x="408" y="-49.7487"/>
      <point x="407.231" y="-40.3097"/>
      <point x="402" y="-22" type="curve"/>
      <point x="376.468" y="21.2084"/>
      <point x="339.042" y="64.2554"/>
      <point x="299.5" y="92.5" type="curve" smooth="yes"/>
      <point x="287.833" y="100.833"/>
      <point x="278" y="106.333"/>
      <point x="270" y="109" type="curve"/>
      <point x="263.118" y="102.118"/>
      <point x="253.367" y="90.4514"/>
      <point x="246.5" y="82" type="curve" smooth="yes"/>
      <point x="233.5" y="66" type="line" smooth="yes"/>
      <point x="229.167" y="60.6667"/>
      <point x="225.667" y="56.6667"/>
      <point x="223" y="54" type="curve"/>
      <point x="194.145" y="54"/>
      <point x="168.3" y="65.6697"/>
      <point x="148.5" y="76" type="curve" smooth="yes"/>
      <point x="140.727" y="80.0555"/>
      <point x="126" y="86.6666"/>
      <point x="126" y="95" type="curve" smooth="yes"/>
      <point x="126" y="97.6667"/>
      <point x="127" y="100"/>
      <point x="129" y="102" type="curve" smooth="yes"/>
      <point x="153.573" y="145.973"/>
      <point x="205.001" y="189.863"/>
      <point x="243" y="220" type="curve" smooth="yes"/>
      <point x="247" y="222.667"/>
      <point x="249.667" y="224"/>
      <point x="251" y="224" type="curve" smooth="yes"/>
      <point x="253.067" y="224"/>
      <point x="258.405" y="221.798"/>
      <point x="260" y="221" type="curve" smooth="yes"/>
      <point x="281.229" y="211.093"/>
      <point x="295.109" y="203.935"/>
      <point x="315" y="192" type="curve"/>
      <point x="334.161" y="213.556"/>
      <point x="357.866" y="242.273"/>
      <point x="371" y="270" type="curve" smooth="yes"/>
      <point x="377" y="282.667"/>
      <point x="380" y="297.667"/>
      <point x="380" y="315" type="curve" smooth="yes"/>
      <point x="380" y="369.006"/>
      <point x="345.233" y="403.95"/>
      <point x="306" y="420" type="curve" smooth="yes"/>
      <point x="291.333" y="426"/>
      <point x="275.667" y="429"/>
      <point x="259" y="429" type="curve" smooth="yes"/>
      <point x="188.952" y="429"/>
      <point x="155.933" y="376.956"/>
      <point x="145" y="315" type="curve" smooth="yes"/>
      <point x="142.482" y="303.669"/>
      <point x="142" y="298.631"/>
      <point x="142" y="286" type="curve"/>
      <point x="125.763" y="280.096"/>
      <point x="97.3226" y="279"/>
      <point x="74" y="279" type="curve" smooth="yes"/>
      <point x="60.3673" y="279"/>
      <point x="47.6164" y="279.548"/>
      <point x="36" y="281" type="curve"/>
      <point x="36" y="291" type="line" smooth="yes"/>
      <point x="36" y="293"/>
      <point x="36.3333" y="295.667"/>
      <point x="37" y="299" type="curve" smooth="yes"/>
      <point x="46.7956" y="344.305"/>
      <point x="79.1445" y="389.001"/>
      <point x="112" y="409" type="curve" smooth="yes"/>
      <point x="152.36" y="429.18"/>
      <point x="208.712" y="445"/>
      <point x="270" y="445" type="curve" smooth="yes"/>
      <point x="366.864" y="445"/>
      <point x="443.144" y="430.953"/>
      <point x="467" y="357" type="curve" smooth="yes"/>
      <point x="468.333" y="353.667"/>
      <point x="469" y="350.5"/>
      <point x="469" y="347.5" type="curve" smooth="yes"/>
      <point x="469" y="338" type="line" smooth="yes"/>
      <point x="469" y="301.938"/>
      <point x="459.915" y="270.304"/>
      <point x="442" y="250" type="curve"/>
      <point x="415.203" y="229.158"/>
      <point x="380.129" y="208.839"/>
      <point x="344" y="198" type="curve" smooth="yes"/>
      <point x="338.869" y="192.869"/>
      <point x="335.268" y="187.69"/>
      <point x="331" y="182" type="curve"/>
      <point x="372.322" y="155.436"/>
      <point x="407.982" y="124.407"/>
      <point x="440" y="85" type="curve" smooth="yes"/>
      <point x="467.114" y="51.9914"/>
      <point x="484" y="24.2549"/>
      <point x="484" y="-30" type="curve" smooth="yes"/>
      <point x="484" y="-152.194"/>
      <point x="379.822" y="-193"/>
      <point x="258" y="-193" type="curve" smooth="yes"/>
      <point x="188" y="-193"/>
      <point x="133" y="-179"/>
      <point x="93" y="-151" type="curve"/>
      <point x="75.6685" y="-133.669"/>
      <point x="54.92" y="-105.86"/>
      <point x="43" y="-85" type="curve"/>
      <point x="35.4755" y="-86.0749"/>
      <point x="22.8725" y="-88"/>
      <point x="15" y="-88" type="curve" smooth="yes"/>
      <point x="11" y="-88"/>
      <point x="9" y="-84.6667"/>
      <point x="9" y="-78" type="curve" smooth="yes"/>
      <point x="9" y="-73.3333"/>
      <point x="10.3333" y="-71"/>
    </contour>
  </outline>
</glyph>
<glyph name="afii10076" format="2">
  <advance width="447"/>
  <unicode hex="043A"/>
  <anchor x="376" y="557" name="Yerok"/>
  <anchor x="241" y="556" name="Diacritic"/>
  <outline>
    <contour>
      <point x="149" y="135" type="curve" smooth="yes"/>
      <point x="149" y="88"/>
      <point x="151" y="41"/>
      <point x="153" y="0" type="curve"/>
      <point x="136" y="-2"/>
      <point x="118" y="-3"/>
      <point x="101" y="-3" type="curve" smooth="yes"/>
      <point x="83" y="-3"/>
      <point x="65" y="-2"/>
      <point x="47" y="0" type="curve"/>
      <point x="47" y="107"/>
      <point x="56" y="221"/>
      <point x="64" y="322" type="curve" smooth="yes"/>
      <point x="68" y="362"/>
      <point x="71" y="407"/>
      <point x="81" y="437" type="curve"/>
      <point x="96" y="440"/>
      <point x="115" y="440"/>
      <point x="133" y="440" type="curve" smooth="yes"/>
      <point x="136" y="440"/>
      <point x="141" y="440"/>
      <point x="146" y="440" type="curve" smooth="yes"/>
      <point x="163" y="440"/>
      <point x="185" y="439"/>
      <point x="185" y="432" type="curve" smooth="yes"/>
      <point x="185" y="428"/>
      <point x="183" y="427"/>
      <point x="183" y="424" type="curve" smooth="yes"/>
      <point x="176" y="400"/>
      <point x="170" y="382"/>
      <point x="166" y="354" type="curve" smooth="yes"/>
      <point x="156" y="283"/>
      <point x="149" y="215"/>
    </contour>
    <contour>
      <point x="215" y="241" type="curve" smooth="yes"/>
      <point x="242" y="241"/>
      <point x="277" y="252"/>
      <point x="300" y="260" type="curve"/>
      <point x="322" y="240"/>
      <point x="338" y="197"/>
      <point x="350" y="161" type="curve" smooth="yes"/>
      <point x="364" y="117"/>
      <point x="377" y="64"/>
      <point x="388" y="17" type="curve"/>
      <point x="388" y="10" type="line" smooth="yes"/>
      <point x="388" y="7"/>
      <point x="388" y="3"/>
      <point x="387" y="0" type="curve"/>
      <point x="373" y="-3"/>
      <point x="354" y="-3"/>
      <point x="336" y="-3" type="curve" smooth="yes"/>
      <point x="314" y="-3"/>
      <point x="288" y="-3"/>
      <point x="269" y="0" type="curve"/>
      <point x="270" y="4"/>
      <point x="270" y="8"/>
      <point x="270" y="14" type="curve" smooth="yes"/>
      <point x="270" y="42" type="line" smooth="yes"/>
      <point x="270" y="81"/>
      <point x="263" y="129"/>
      <point x="250" y="158" type="curve" smooth="yes"/>
      <point x="237" y="185"/>
      <point x="219" y="215"/>
      <point x="199" y="230" type="curve" smooth="yes"/>
      <point x="196" y="235"/>
      <point x="194" y="242"/>
      <point x="194" y="249" type="curve" smooth="yes"/>
      <point x="194" y="253"/>
      <point x="194" y="256"/>
      <point x="195" y="258" type="curve" smooth="yes"/>
      <point x="217" y="306"/>
      <point x="242" y="359"/>
      <point x="270" y="402" type="curve" smooth="yes"/>
      <point x="280" y="417"/>
      <point x="290" y="430"/>
      <point x="300" y="440" type="curve" smooth="yes"/>
      <point x="303" y="440"/>
      <point x="306" y="441"/>
      <point x="309" y="441" type="curve" smooth="yes"/>
      <point x="319" y="441"/>
      <point x="330" y="439"/>
      <point x="338" y="438" type="curve" smooth="yes"/>
      <point x="365" y="443"/>
      <point x="405" y="444"/>
      <point x="435" y="444" type="curve" smooth="yes"/>
      <point x="438" y="444"/>
      <point x="439" y="442"/>
      <point x="439" y="439" type="curve" smooth="yes"/>
      <point x="439" y="436"/>
      <point x="438" y="433"/>
      <point x="436" y="431" type="curve" smooth="yes"/>
      <point x="408" y="403"/>
      <point x="392" y="357"/>
      <point x="380" y="315" type="curve" smooth="yes"/>
      <point x="380" y="313"/>
      <point x="378" y="312"/>
      <point x="375" y="312" type="curve" smooth="yes"/>
      <point x="359" y="312"/>
      <point x="351" y="349"/>
      <point x="350" y="365" type="curve" smooth="yes"/>
      <point x="346" y="381"/>
      <point x="339" y="392"/>
      <point x="329" y="399" type="curve" smooth="yes"/>
      <point x="327" y="400"/>
      <point x="325" y="400"/>
      <point x="323" y="399" type="curve" smooth="yes"/>
      <point x="277" y="366"/>
      <point x="241" y="309"/>
      <point x="213" y="259" type="curve" smooth="yes"/>
      <point x="212" y="257"/>
      <point x="212" y="254"/>
      <point x="212" y="251" type="curve" smooth="yes"/>
      <point x="212" y="246"/>
      <point x="213" y="243"/>
    </contour>
  </outline>
</glyph>
<glyph name="afii10077" format="2">
  <advance width="383"/>
  <unicode hex="043B"/>
  <anchor x="296" y="557" name="Yerok"/>
  <anchor x="247" y="556" name="Diacritic"/>
  <outline>
    <contour>
      <point x="146" y="55" type="curve" smooth="yes"/>
      <point x="146" y="32.8094"/>
      <point x="147.654" y="16.731"/>
      <point x="151" y="0" type="curve"/>
      <point x="137.667" y="-2"/>
      <point x="122.333" y="-3"/>
      <point x="105" y="-3" type="curve" smooth="yes"/>
      <point x="85.4473" y="-3"/>
      <point x="64.9064" y="-2.89208"/>
      <point x="49" y="0" type="curve"/>
      <point x="47.5442" y="7.27923"/>
      <point x="47" y="12.97"/>
      <point x="47" y="22" type="curve" smooth="yes"/>
      <point x="47" y="69.4352"/>
      <point x="71.9677" y="114.383"/>
      <point x="91" y="146.5" type="curve" smooth="yes"/>
      <point x="107.978" y="175.151"/>
      <point x="126.869" y="197.173"/>
      <point x="146" y="225" type="curve" smooth="yes"/>
      <point x="173.688" y="266.533"/>
      <point x="195.8" y="298.627"/>
      <point x="206" y="354" type="curve"/>
      <point x="204.75" y="373.994"/>
      <point x="203" y="392.708"/>
      <point x="203" y="413" type="curve" smooth="yes"/>
      <point x="203" y="419.561"/>
      <point x="204" y="427.439"/>
      <point x="204" y="434" type="curve"/>
      <point x="232.465" y="440.469"/>
      <point x="270.235" y="441"/>
      <point x="305" y="441" type="curve"/>
      <point x="303.627" y="420.41"/>
      <point x="303" y="400.252"/>
      <point x="303" y="378" type="curve" smooth="yes"/>
      <point x="303" y="281.218"/>
      <point x="310.814" y="180.114"/>
      <point x="325" y="95" type="curve" smooth="yes"/>
      <point x="331" y="59"/>
      <point x="335" y="27.3333"/>
      <point x="337" y="0" type="curve"/>
      <point x="321.667" y="-2"/>
      <point x="305.333" y="-3"/>
      <point x="288" y="-3" type="curve" smooth="yes"/>
      <point x="270.667" y="-3"/>
      <point x="255" y="-2"/>
      <point x="241" y="0" type="curve"/>
      <point x="230.272" y="57.2136"/>
      <point x="227.484" y="127.124"/>
      <point x="220" y="187" type="curve" smooth="yes"/>
      <point x="215.492" y="230.952"/>
      <point x="213.561" y="264.824"/>
      <point x="210" y="304" type="curve"/>
      <point x="190.061" y="221.395"/>
      <point x="146" y="161.304"/>
    </contour>
  </outline>
</glyph>
<glyph name="afii10078" format="2">
  <advance width="628"/>
  <unicode hex="043C"/>
  <anchor x="506" y="557" name="Yerok"/>
  <anchor x="382" y="556" name="Diacritic"/>
  <outline>
    <contour>
      <point x="352" y="53" type="curve"/>
      <point x="354.52" y="35.3571"/>
      <point x="359.207" y="16.7603"/>
      <point x="362" y="0" type="curve"/>
      <point x="346.667" y="-2"/>
      <point x="330.667" y="-3"/>
      <point x="314" y="-3" type="curve" smooth="yes"/>
      <point x="293.333" y="-3"/>
      <point x="274" y="-2"/>
      <point x="256" y="0" type="curve"/>
      <point x="248.221" y="73.1204"/>
      <point x="244.522" y="156.655"/>
      <point x="241" y="240" type="curve" smooth="yes"/>
      <point x="238.53" y="273.343"/>
      <point x="238.438" y="308.934"/>
      <point x="237" y="342" type="curve"/>
      <point x="214.986" y="271.557"/>
      <point x="179.565" y="209.034"/>
      <point x="159" y="135" type="curve" smooth="yes"/>
      <point x="152.397" y="111.229"/>
      <point x="149" y="87.0302"/>
      <point x="149" y="57" type="curve" smooth="yes"/>
      <point x="149" y="40.6399"/>
      <point x="153.821" y="15.1193"/>
      <point x="163" y="9" type="curve"/>
      <point x="163" y="0" type="line"/>
      <point x="145" y="-2"/>
      <point x="125.667" y="-3"/>
      <point x="105" y="-3" type="curve" smooth="yes"/>
      <point x="83.4933" y="-3"/>
      <point x="62.1773" y="-2.7965"/>
      <point x="44" y="0" type="curve"/>
      <point x="43.3333" y="3.33333"/>
      <point x="43" y="7.33333"/>
      <point x="43" y="12" type="curve" smooth="yes"/>
      <point x="43" y="24" type="line"/>
      <point x="44.8794" y="61.5872"/>
      <point x="63.8388" y="98.7155"/>
      <point x="81" y="129" type="curve" smooth="yes"/>
      <point x="96.3333" y="157"/>
      <point x="114.5" y="183.833"/>
      <point x="135.5" y="209.5" type="curve" smooth="yes"/>
      <point x="177.388" y="260.697"/>
      <point x="224.313" y="334.684"/>
      <point x="236" y="410" type="curve" smooth="yes"/>
      <point x="235.333" y="413.333"/>
      <point x="235" y="416.667"/>
      <point x="235" y="420" type="curve" smooth="yes"/>
      <point x="235" y="430" type="line"/>
      <point x="256.96" y="436.274"/>
      <point x="303.517" y="440"/>
      <point x="334" y="440" type="curve"/>
      <point x="334" y="409.461"/>
      <point x="333" y="376.489"/>
      <point x="333" y="343" type="curve" smooth="yes"/>
      <point x="333" y="254.887"/>
      <point x="337.274" y="167.228"/>
      <point x="348" y="90" type="curve"/>
      <point x="380.731" y="179.266"/>
      <point x="417.915" y="280.198"/>
      <point x="449" y="370" type="curve"/>
      <point x="447.861" y="391.647"/>
      <point x="447" y="410.657"/>
      <point x="447" y="431" type="curve"/>
      <point x="475.6" y="437.356"/>
      <point x="513.409" y="440"/>
      <point x="548" y="440" type="curve"/>
      <point x="548.667" y="426.667"/>
      <point x="549" y="410.667"/>
      <point x="549" y="392" type="curve" smooth="yes"/>
      <point x="549" y="284.265"/>
      <point x="555.552" y="176.202"/>
      <point x="572.5" y="87" type="curve" smooth="yes"/>
      <point x="578.833" y="53.6667"/>
      <point x="584.333" y="24.6667"/>
      <point x="589" y="0" type="curve"/>
      <point x="575" y="-2"/>
      <point x="557.333" y="-3"/>
      <point x="536" y="-3" type="curve" smooth="yes"/>
      <point x="514.667" y="-3"/>
      <point x="496" y="-2"/>
      <point x="480" y="0" type="curve"/>
      <point x="467.021" y="98.6423"/>
      <point x="459.818" y="222.461"/>
      <point x="452" y="328" type="curve"/>
      <point x="418.945" y="239.853"/>
      <point x="384.767" y="140.378"/>
    </contour>
  </outline>
</glyph>
<glyph name="afii10079" format="2">
  <advance width="434"/>
  <unicode hex="043D"/>
  <anchor x="336" y="557" name="Yerok"/>
  <anchor x="232" y="556" name="Diacritic"/>
  <outline>
    <contour>
      <point x="156" y="0" type="curve"/>
      <point x="137.001" y="-2.53319"/>
      <point x="121.566" y="-3"/>
      <point x="101" y="-3" type="curve" smooth="yes"/>
      <point x="84.4929" y="-3"/>
      <point x="64.0999" y="-2.32306"/>
      <point x="49" y="0" type="curve"/>
      <point x="48.3333" y="15.3333"/>
      <point x="48" y="31.6667"/>
      <point x="48" y="49" type="curve" smooth="yes"/>
      <point x="48" y="104" type="line" smooth="yes"/>
      <point x="48" y="188.334"/>
      <point x="55.1296" y="283.876"/>
      <point x="63.5" y="362" type="curve" smooth="yes"/>
      <point x="66.5" y="390"/>
      <point x="70" y="413.333"/>
      <point x="74" y="432" type="curve"/>
      <point x="103.925" y="434.394"/>
      <point x="144.811" y="439.181"/>
      <point x="173" y="442" type="curve" smooth="yes"/>
      <point x="175" y="442"/>
      <point x="176" y="439.333"/>
      <point x="176" y="434" type="curve" smooth="yes"/>
      <point x="158.207" y="399.685"/>
      <point x="155.535" y="350.667"/>
      <point x="150" y="305" type="curve"/>
      <point x="192.23" y="279.012"/>
      <point x="237.409" y="249.554"/>
      <point x="280" y="224" type="curve"/>
      <point x="280" y="279.5" type="line" smooth="yes"/>
      <point x="280" y="329.963"/>
      <point x="280.412" y="386.295"/>
      <point x="286" y="431" type="curve"/>
      <point x="316.114" y="433.619"/>
      <point x="351.865" y="435.466"/>
      <point x="378" y="442" type="curve" smooth="yes"/>
      <point x="381.333" y="442"/>
      <point x="383" y="439"/>
      <point x="383" y="433" type="curve" smooth="yes"/>
      <point x="376.583" y="388.078"/>
      <point x="373" y="329.913"/>
      <point x="373" y="279" type="curve" smooth="yes"/>
      <point x="373" y="204.817"/>
      <point x="377.504" y="122.965"/>
      <point x="384.5" y="55" type="curve" smooth="yes"/>
      <point x="386.833" y="32.3333"/>
      <point x="389.667" y="14"/>
      <point x="393" y="0" type="curve"/>
      <point x="379.097" y="-2.52786"/>
      <point x="365.832" y="-3"/>
      <point x="350" y="-3" type="curve" smooth="yes"/>
      <point x="328.667" y="-3"/>
      <point x="307.667" y="-2"/>
      <point x="287" y="0" type="curve"/>
      <point x="281.886" y="54.5529"/>
      <point x="280" y="135.922"/>
      <point x="280" y="202" type="curve"/>
      <point x="236.565" y="226.82"/>
      <point x="190.965" y="257.221"/>
      <point x="148" y="283" type="curve"/>
      <point x="146" y="253.667"/>
      <point x="145" y="222.667"/>
      <point x="145" y="190" type="curve" smooth="yes"/>
      <point x="145" y="131.591"/>
      <point x="153.291" y="54.1854"/>
    </contour>
  </outline>
</glyph>
<glyph name="afii10080" format="2">
  <advance width="427"/>
  <unicode hex="043E"/>
  <anchor x="336" y="557" name="Yerok"/>
  <anchor x="214" y="556" name="Diacritic"/>
  <outline>
    <contour>
      <point x="223" y="445" type="curve" smooth="yes"/>
      <point x="229.386" y="445"/>
      <point x="226.963" y="446"/>
      <point x="234" y="446" type="curve" smooth="yes"/>
      <point x="303.832" y="424.839"/>
      <point x="357.376" y="369.548"/>
      <point x="381.5" y="302" type="curve" smooth="yes"/>
      <point x="389.833" y="278.667"/>
      <point x="394" y="254.333"/>
      <point x="394" y="229" type="curve" smooth="yes"/>
      <point x="394" y="159.689"/>
      <point x="365.681" y="109.158"/>
      <point x="331" y="72" type="curve" smooth="yes"/>
      <point x="297.466" y="36.0709"/>
      <point x="250.715" y="6.91627"/>
      <point x="200" y="-8" type="curve" smooth="yes"/>
      <point x="198.667" y="-8.66667"/>
      <point x="196.667" y="-9"/>
      <point x="194" y="-9" type="curve" smooth="yes"/>
      <point x="192.667" y="-9"/>
      <point x="190.667" y="-8.33333"/>
      <point x="188" y="-7" type="curve" smooth="yes"/>
      <point x="123.069" y="19.3784"/>
      <point x="71.2869" y="70.2761"/>
      <point x="47.5" y="137.5" type="curve" smooth="yes"/>
      <point x="39.8333" y="159.167"/>
      <point x="36" y="181.667"/>
      <point x="36" y="205" type="curve" smooth="yes"/>
      <point x="36" y="302.41"/>
      <point x="90.1819" y="375.535"/>
      <point x="150" y="416" type="curve" smooth="yes"/>
      <point x="172.667" y="431.333"/>
      <point x="197" y="441"/>
    </contour>
    <contour>
      <point x="142" y="372" type="curve"/>
      <point x="129.397" y="365.698"/>
      <point x="114.015" y="349.721"/>
      <point x="110" y="335" type="curve" smooth="yes"/>
      <point x="110" y="328.063"/>
      <point x="109" y="314.688"/>
      <point x="109" y="308" type="curve" smooth="yes"/>
      <point x="109" y="244.794"/>
      <point x="130.616" y="196.052"/>
      <point x="161" y="151" type="curve" smooth="yes"/>
      <point x="187.792" y="110.229"/>
      <point x="228.949" y="74.0053"/>
      <point x="286" y="68" type="curve"/>
      <point x="302" y="77.3333"/>
      <point x="313.667" y="90"/>
      <point x="321" y="106" type="curve"/>
      <point x="317.567" y="167.8"/>
      <point x="304.879" y="228.681"/>
      <point x="276" y="272" type="curve" smooth="yes"/>
      <point x="258" y="299.333"/>
      <point x="238.167" y="322.833"/>
      <point x="216.5" y="342.5" type="curve" smooth="yes"/>
      <point x="194.833" y="362.167"/>
      <point x="170" y="372"/>
    </contour>
  </outline>
</glyph>
<glyph name="afii10081" format="2">
  <advance width="435"/>
  <unicode hex="043F"/>
  <anchor x="346" y="557" name="Yerok"/>
  <anchor x="228" y="556" name="Diacritic"/>
  <outline>
    <contour>
      <point x="152" y="220" type="curve" smooth="yes"/>
      <point x="152" y="148.263"/>
      <point x="153.879" y="59.7418"/>
      <point x="159" y="0" type="curve"/>
      <point x="141.667" y="-2"/>
      <point x="125.333" y="-3"/>
      <point x="110" y="-3" type="curve" smooth="yes"/>
      <point x="93.3333" y="-3"/>
      <point x="76" y="-2"/>
      <point x="58" y="0" type="curve"/>
      <point x="55.1783" y="40.9152"/>
      <point x="54" y="80.0908"/>
      <point x="54" y="125" type="curve" smooth="yes"/>
      <point x="54" y="228.43"/>
      <point x="60.0336" y="346.235"/>
      <point x="73" y="437" type="curve"/>
      <point x="390" y="437" type="line" smooth="yes"/>
      <point x="392.667" y="437"/>
      <point x="394" y="435"/>
      <point x="394" y="431" type="curve" smooth="yes"/>
      <point x="383.912" y="357.861"/>
      <point x="372" y="290.831"/>
      <point x="372" y="207" type="curve" smooth="yes"/>
      <point x="372" y="137.896"/>
      <point x="375.037" y="57.9067"/>
      <point x="380" y="0" type="curve"/>
      <point x="364" y="-2"/>
      <point x="347.333" y="-3"/>
      <point x="330" y="-3" type="curve" smooth="yes"/>
      <point x="314" y="-3"/>
      <point x="297.667" y="-2"/>
      <point x="281" y="0" type="curve"/>
      <point x="278.197" y="53.2595"/>
      <point x="277.994" y="120.288"/>
      <point x="277.994" y="183.41" type="curve" smooth="yes"/>
      <point x="277.994" y="194.08"/>
      <point x="278" y="204.639"/>
      <point x="278" y="215" type="curve" smooth="yes"/>
      <point x="278" y="283.48"/>
      <point x="283.795" y="359.702"/>
      <point x="287" y="419" type="curve"/>
      <point x="173" y="419" type="line"/>
      <point x="160.9" y="366.061"/>
      <point x="152" y="289.406"/>
    </contour>
  </outline>
</glyph>
<glyph name="afii10082" format="2">
  <advance width="308"/>
  <unicode hex="0440"/>
  <anchor x="215" y="556" name="Yerok"/>
  <anchor x="161" y="556" name="Diacritic"/>
  <outline>
    <contour>
      <point x="80" y="-582" type="curve" smooth="yes"/>
      <point x="77" y="-582"/>
      <point x="74" y="-582"/>
      <point x="72" y="-582" type="curve" smooth="yes"/>
      <point x="61" y="-582"/>
      <point x="52" y="-581"/>
      <point x="52" y="-570" type="curve" smooth="yes"/>
      <point x="52" y="-566"/>
      <point x="53" y="-562"/>
      <point x="56" y="-558" type="curve" smooth="yes"/>
      <point x="61" y="-556"/>
      <point x="67" y="-555"/>
      <point x="72" y="-553" type="curve" smooth="yes"/>
      <point x="82" y="-544"/>
      <point x="82" y="-514"/>
      <point x="82" y="-494" type="curve" smooth="yes"/>
      <point x="82" y="-363"/>
      <point x="68" y="-228"/>
      <point x="56" y="-111" type="curve" smooth="yes"/>
      <point x="51" y="-64"/>
      <point x="49" y="-14"/>
      <point x="49" y="38" type="curve" smooth="yes"/>
      <point x="51" y="147"/>
      <point x="63" y="251"/>
      <point x="91" y="334" type="curve" smooth="yes"/>
      <point x="100" y="360"/>
      <point x="112" y="384"/>
      <point x="126" y="404" type="curve"/>
      <point x="157" y="429"/>
      <point x="188" y="443"/>
      <point x="221" y="448" type="curve"/>
      <point x="240" y="433"/>
      <point x="240" y="388"/>
      <point x="242" y="358" type="curve" smooth="yes"/>
      <point x="246" y="310" type="line" smooth="yes"/>
      <point x="249" y="274"/>
      <point x="250" y="241"/>
      <point x="250" y="202" type="curve" smooth="yes"/>
      <point x="250" y="136"/>
      <point x="245" y="92"/>
      <point x="237" y="35" type="curve" smooth="yes"/>
      <point x="234" y="16"/>
      <point x="220" y="6"/>
      <point x="207" y="-3" type="curve"/>
      <point x="186" y="-10"/>
      <point x="164" y="-13"/>
      <point x="141" y="-17" type="curve"/>
      <point x="148" y="-87"/>
      <point x="155" y="-151"/>
      <point x="155" y="-229" type="curve" smooth="yes"/>
      <point x="155" y="-351"/>
      <point x="144" y="-445"/>
      <point x="117" y="-539" type="curve" smooth="yes"/>
      <point x="112" y="-558"/>
      <point x="104" y="-581"/>
    </contour>
    <contour>
      <point x="133" y="76" type="curve"/>
      <point x="177" y="85"/>
      <point x="198" y="98"/>
      <point x="204" y="144" type="curve"/>
      <point x="204" y="169" type="line" smooth="yes"/>
      <point x="204" y="219"/>
      <point x="203" y="280"/>
      <point x="186" y="312" type="curve" smooth="yes"/>
      <point x="179" y="324"/>
      <point x="171" y="330"/>
      <point x="161" y="330" type="curve"/>
      <point x="154" y="325"/>
      <point x="146" y="311"/>
      <point x="140" y="288" type="curve" smooth="yes"/>
      <point x="132" y="266"/>
      <point x="129" y="231"/>
      <point x="129" y="183" type="curve" smooth="yes"/>
      <point x="129" y="152" type="line" smooth="yes"/>
      <point x="129" y="143"/>
      <point x="129" y="135"/>
      <point x="130" y="127" type="curve" smooth="yes"/>
      <point x="130" y="103" type="line" smooth="yes"/>
      <point x="131" y="95"/>
      <point x="132" y="86"/>
    </contour>
  </outline>
</glyph>
<glyph name="afii10083" format="2">
  <advance width="276"/>
  <unicode hex="0441"/>
  <anchor x="192" y="557" name="Yerok"/>
  <anchor x="144" y="556" name="Diacritic"/>
  <outline>
    <contour>
      <point x="67" y="94" type="curve" smooth="yes"/>
      <point x="64.3832" y="155.495"/>
      <point x="62" y="195.996"/>
      <point x="62" y="258" type="curve" smooth="yes"/>
      <point x="62" y="337.644"/>
      <point x="93.6489" y="391.366"/>
      <point x="147" y="425" type="curve" smooth="yes"/>
      <point x="163.947" y="434.684"/>
      <point x="194.646" y="444.253"/>
      <point x="218" y="447" type="curve" smooth="yes"/>
      <point x="226.934" y="447"/>
      <point x="228.195" y="437.555"/>
      <point x="228.195" y="423.837" type="curve" smooth="yes"/>
      <point x="228.195" y="418.447"/>
      <point x="228" y="412.396"/>
      <point x="228" y="406" type="curve" smooth="yes"/>
      <point x="228" y="380.759"/>
      <point x="225.476" y="353.118"/>
      <point x="222" y="334" type="curve"/>
      <point x="218.667" y="332"/>
      <point x="213.333" y="329.333"/>
      <point x="206" y="326" type="curve" smooth="yes"/>
      <point x="184" y="316" type="line" smooth="yes"/>
      <point x="149.989" y="299.804"/>
      <point x="141" y="263.043"/>
      <point x="141" y="214" type="curve" smooth="yes"/>
      <point x="141" y="159" type="line" smooth="yes"/>
      <point x="141" y="151.667"/>
      <point x="141.333" y="144.333"/>
      <point x="142" y="137" type="curve" smooth="yes"/>
      <point x="142" y="133.667"/>
      <point x="143" y="132"/>
      <point x="145" y="132" type="curve" smooth="yes"/>
      <point x="146.333" y="132"/>
      <point x="147.667" y="132.667"/>
      <point x="149" y="134" type="curve" smooth="yes"/>
      <point x="164.4" y="148.116"/>
      <point x="181.457" y="161.593"/>
      <point x="198" y="174" type="curve" smooth="yes"/>
      <point x="199.333" y="175.333"/>
      <point x="201.667" y="176"/>
      <point x="205" y="176" type="curve" smooth="yes"/>
      <point x="209.667" y="176"/>
      <point x="212" y="174"/>
      <point x="212" y="170" type="curve" smooth="yes"/>
      <point x="212" y="133.008"/>
      <point x="201.167" y="98.5017"/>
      <point x="192" y="71" type="curve" smooth="yes"/>
      <point x="181.324" y="38.9705"/>
      <point x="163.072" y="23.2432"/>
      <point x="136" y="7" type="curve" smooth="yes"/>
      <point x="115.511" y="-5.52092"/>
      <point x="96.0802" y="-10"/>
      <point x="67" y="-10" type="curve" smooth="yes"/>
      <point x="61.2407" y="-10"/>
      <point x="58" y="-4.00736"/>
      <point x="58" y="2" type="curve" smooth="yes"/>
      <point x="64.5615" y="23.3248"/>
      <point x="68" y="45.4137"/>
      <point x="68" y="76" type="curve" smooth="yes"/>
      <point x="68" y="77.6106"/>
      <point x="67" y="92.3948"/>
    </contour>
  </outline>
</glyph>
<glyph name="afii10084" format="2">
  <advance width="553"/>
  <unicode hex="0442"/>
  <anchor x="468" y="557" name="Yerok"/>
  <anchor x="289" y="556" name="Diacritic"/>
  <outline>
    <contour>
      <point x="331" y="197" type="curve" smooth="yes"/>
      <point x="331" y="129.325"/>
      <point x="336.339" y="59.9462"/>
      <point x="343" y="0" type="curve"/>
      <point x="323" y="-2"/>
      <point x="305" y="-3"/>
      <point x="289" y="-3" type="curve" smooth="yes"/>
      <point x="273.667" y="-3"/>
      <point x="256.667" y="-2"/>
      <point x="238" y="0" type="curve"/>
      <point x="236" y="46"/>
      <point x="235" y="100"/>
      <point x="235" y="162" type="curve" smooth="yes"/>
      <point x="235" y="255.767"/>
      <point x="238.123" y="335.259"/>
      <point x="244" y="419" type="curve"/>
      <point x="152" y="419" type="line"/>
      <point x="149.18" y="390.798"/>
      <point x="148.996" y="350.172"/>
      <point x="148.996" y="314.603" type="curve" smooth="yes"/>
      <point x="148.996" y="309.268"/>
      <point x="149" y="304.048"/>
      <point x="149" y="299" type="curve" smooth="yes"/>
      <point x="149" y="261" type="line" smooth="yes"/>
      <point x="149" y="249"/>
      <point x="149.667" y="237.333"/>
      <point x="151" y="226" type="curve"/>
      <point x="129.501" y="217.938"/>
      <point x="88.9868" y="211.434"/>
      <point x="61" y="209" type="curve" smooth="yes"/>
      <point x="57.4029" y="209"/>
      <point x="55" y="214.719"/>
      <point x="55" y="218" type="curve" smooth="yes"/>
      <point x="55" y="288.414"/>
      <point x="56.4015" y="366.842"/>
      <point x="59" y="437" type="curve"/>
      <point x="537" y="437" type="line" smooth="yes"/>
      <point x="541.667" y="437"/>
      <point x="544" y="435"/>
      <point x="544" y="431" type="curve" smooth="yes"/>
      <point x="544" y="428.333"/>
      <point x="543" y="426"/>
      <point x="541" y="424" type="curve" smooth="yes"/>
      <point x="502.975" y="384.823"/>
      <point x="471.399" y="332.779"/>
      <point x="454" y="279" type="curve" smooth="yes"/>
      <point x="452.667" y="275"/>
      <point x="450" y="273"/>
      <point x="446" y="273" type="curve" smooth="yes"/>
      <point x="434.379" y="273"/>
      <point x="434.384" y="293.438"/>
      <point x="432.5" y="307" type="curve" smooth="yes"/>
      <point x="427.765" y="341.092"/>
      <point x="424.553" y="383.258"/>
      <point x="422" y="419" type="curve"/>
      <point x="345" y="419" type="line"/>
      <point x="337.302" y="354.337"/>
      <point x="331" y="274.745"/>
    </contour>
  </outline>
</glyph>
<glyph name="uni0443" format="2">
  <advance width="433"/>
  <unicode hex="0443"/>
  <anchor x="346" y="557" name="Yerok"/>
  <anchor x="201" y="556" name="Diacritic"/>
  <outline>
    <contour>
      <point x="208" y="9" type="curve"/>
      <point x="171.493" y="4.7877"/>
      <point x="137" y="-2.11548"/>
      <point x="104" y="-11" type="curve" smooth="yes"/>
      <point x="100.667" y="-11"/>
      <point x="99" y="-9"/>
      <point x="99" y="-5" type="curve" smooth="yes"/>
      <point x="99" y="137.656"/>
      <point x="78.6952" y="265.453"/>
      <point x="56.5" y="384.5" type="curve" smooth="yes"/>
      <point x="52.8333" y="404.167"/>
      <point x="49.3333" y="421.333"/>
      <point x="46" y="436" type="curve" smooth="yes"/>
      <point x="46" y="440.667"/>
      <point x="47" y="443"/>
      <point x="49" y="443" type="curve" smooth="yes"/>
      <point x="83.5565" y="443"/>
      <point x="120.196" y="439.134"/>
      <point x="151" y="434" type="curve"/>
      <point x="172.418" y="312.629"/>
      <point x="182.425" y="162.585"/>
      <point x="188" y="26" type="curve"/>
      <point x="209" y="27" type="line"/>
      <point x="212.451" y="85.6647"/>
      <point x="215.018" y="136.181"/>
      <point x="220.5" y="191" type="curve" smooth="yes"/>
      <point x="226" y="246" type="line" smooth="yes"/>
      <point x="232.3" y="308.998"/>
      <point x="246.271" y="368.322"/>
      <point x="278" y="406" type="curve" smooth="yes"/>
      <point x="303.348" y="436.101"/>
      <point x="351.022" y="440.317"/>
      <point x="402" y="443" type="curve" smooth="yes"/>
      <point x="404.667" y="443"/>
      <point x="406" y="440.333"/>
      <point x="406" y="435" type="curve"/>
      <point x="389.94" y="415.499"/>
      <point x="379" y="396.752"/>
      <point x="379" y="365" type="curve" smooth="yes"/>
      <point x="379" y="357"/>
      <point x="380" y="348"/>
      <point x="382" y="338" type="curve" smooth="yes"/>
      <point x="382" y="334.078"/>
      <point x="381.026" y="329"/>
      <point x="377" y="329" type="curve" smooth="yes"/>
      <point x="360.861" y="335.207"/>
      <point x="349.654" y="343"/>
      <point x="329" y="343" type="curve" smooth="yes"/>
      <point x="296.281" y="343"/>
      <point x="276.78" y="306.983"/>
      <point x="273" y="278" type="curve" smooth="yes"/>
      <point x="260.584" y="172.462"/>
      <point x="251" y="61.1053"/>
      <point x="251" y="-55.5" type="curve" smooth="yes"/>
      <point x="251" y="-113.5" type="line" smooth="yes"/>
      <point x="251" y="-234.936"/>
      <point x="242.264" y="-358.226"/>
      <point x="221" y="-461" type="curve" smooth="yes"/>
      <point x="214.367" y="-493.058"/>
      <point x="214.203" y="-518.786"/>
      <point x="181" y="-521" type="curve"/>
      <point x="177.667" y="-518.333"/>
      <point x="176" y="-514.333"/>
      <point x="176" y="-509" type="curve"/>
      <point x="183.176" y="-506.13"/>
      <point x="186.953" y="-484.424"/>
      <point x="188" y="-475" type="curve" smooth="yes"/>
      <point x="198.9" y="-339.836"/>
      <point x="206" y="-198.271"/>
      <point x="206" y="-49" type="curve" smooth="yes"/>
      <point x="206" y="-31.6667"/>
      <point x="206.667" y="-12.3333"/>
    </contour>
  </outline>
</glyph>
